{
.appVersion = "1272";
DisplayStrings = (
"/l_la-deva.loclMAR/eShortMatra_reph-deva",
"/ka-deva/kha-deva/ga-deva/gha-deva/nga-deva/ca-deva/cha-deva/ja-deva/jha-deva/nya-deva/tta-deva/ttha-deva/dda-deva/ddha-deva/nna-deva/ta-deva/tha-deva/da-deva/dha-deva/na-deva/nnna-deva/pa-deva/pha-deva/ba-deva/bha-deva/ma-deva/ya-deva/ra-deva",
"/iMatra_reph-deva.01",
"/l_d_ra-deva",
"/dda-deva/nga-deva",
"/sh-deva.loclMAR/sha-deva.loclMAR",
"/aaMatra-deva/jha-deva",
"/gha-deva",
"/f_f_i",
"/f_f_i ffi",
"l/f_f_l ffl",
"/jacute",
"/jdotless",
"/Jacute",
"/IJ_acutecomb IJ",
"ij/jacute í/jacute/ij_acutecomb ij",
"/j_j_ya-deva",
Tno,
tTn
);
classes = (
{
automatic = 1;
code = "k-deva kh-deva g-deva gh-deva ng-deva c-deva ch-deva j-deva jh-deva ny-deva tt-deva tth-deva dd-deva ddh-deva nn-deva t-deva th-deva d-deva dh-deva n-deva p-deva ph-deva b-deva bh-deva m-deva y-deva rr-deva l-deva ll-deva v-deva sh-deva ss-deva s-deva h-deva khh-deva z-deva f-deva sh-deva.loclMAR jh-deva.np";
name = DevaHalfforms;
},
{
automatic = 1;
code = "iMatra-deva iMatra-deva.0 iMatra-deva.01 iMatra-deva.02 iMatra-deva.03 iMatra-deva.05 iMatra-deva.08 iMatra-deva.10 iMatra-deva.15 iMatra-deva.20 iMatra-deva.25 iMatra-deva.30";
name = DevaIMatras;
},
{
automatic = 1;
code = "iMatra_reph-deva iMatra_reph-deva.0 iMatra_reph-deva.01 iMatra_reph-deva.02 iMatra_reph-deva.03 iMatra_reph-deva.05 iMatra_reph-deva.08 iMatra_reph-deva.10 iMatra_reph-deva.15 iMatra_reph-deva.20 iMatra_reph-deva.25 iMatra_reph-deva.30";
name = DevaIMatraRephs;
},
{
automatic = 1;
code = "iMatra_reph_anusvara-deva iMatra_reph_anusvara-deva.0 iMatra_reph_anusvara-deva.01 iMatra_reph_anusvara-deva.02 iMatra_reph_anusvara-deva.03 iMatra_reph_anusvara-deva.05 iMatra_reph_anusvara-deva.08 iMatra_reph_anusvara-deva.10 iMatra_reph_anusvara-deva.15 iMatra_reph_anusvara-deva.20 iMatra_reph_anusvara-deva.25 iMatra_reph_anusvara-deva.30";
name = DevaIMatraRephAnusvaras;
},
{
automatic = 1;

glyphs = (
{
glyphname = A;
lastChange = "2019-10-26 06:09:29 +0000";
layers = (
{
anchors = (
{
name = btm;
position = "{543, -300}";
},
{
name = top;
position = "{543, 1590}";
}
);
hints = (
{
horizontal = 1;
origin = "{1, 9}";
type = Tag;
name = hr00;
}
);
layerId = "F1FC1B3B-4EE8-4ECF-8776-11160932002C";
paths = (
{
closed = 1;
nodes = (
"145 0 LINE",
"286 432 LINE",
"795 432 LINE",
"935 0 LINE",
"1083 0 LINE",
"620 1346 LINE",
"467 1346 LINE",
"3 0 LINE"
);
},
{
closed = 1;
nodes = (
"398 770 LINE",
"448 923 OFFCURVE",
"493 1068 OFFCURVE",
"537 1228 CURVE",
"546 1228 LINE",
"590 1068 OFFCURVE",
"636 923 OFFCURVE",
"685 770 CURVE SMOOTH",
"758 545 LINE",
"323 545 LINE"
);
}
);
width = 1086;
},
{
anchors = (
{
name = btm;
position = "{564, -200}";
},
{
name = top;
position = "{564, 800}";
}
);
hints = (
{
horizontal = 1;
origin = "{0, 1}";
target = "{0, 1}";
type = Tag;
name = hr00;
}
);
layerId = "C4389747-BECF-4D47-A11A-92B8AD605B66";
paths = (
{
closed = 1;
nodes = (
"219 0 LINE",
"330 375 LINE",
"790 375 LINE",
"901 0 LINE",
"1134 0 LINE",
"692 1340 LINE",
"436 1340 LINE",
"-5 0 LINE"
);
},
{
closed = 1;
nodes = (
"434 723 LINE",
"477 866 OFFCURVE",
"518 1017 OFFCURVE",
"556 1167 CURVE",
"564 1167 LINE",
"604 1018 OFFCURVE",
"644 866 OFFCURVE",
"688 723 CURVE",
"740 549 LINE",
"380 549 LINE"
);
}
);
width = 1128;
}
);
leftKerningGroup = A;
rightKerningGroup = A;
unicode = 0041;
userData = {
com.adobe.type.autohint = "ICA8aGludFNldExpc3Q+CiAgICA8aGludHNldCBw";
com.typemytype.robofont.mark = (
1,
0.6,
0.6,
1
);
};
},
{
glyphname = Aogonek;
lastChange = "2019-10-26 06:10:49 +0000";
layers = (
{
hints = (
{
horizontal = 1;
origin = "{1, 9}";
type = Tag;
name = hr00;
}
);
layerId = "F1FC1B3B-4EE8-4ECF-8776-11160932002C";
paths = (
{
closed = 1;
nodes = (
"1083 -317 OFFCURVE",
"1057 -326 OFFCURVE",
"1021 -326 CURVE SMOOTH",
"972 -326 OFFCURVE",
"924 -294 OFFCURVE",
"924 -227 CURVE SMOOTH",
"924 -142 OFFCURVE",
"992 -46 OFFCURVE",
"1083 0 CURVE",
"620 1346 LINE",
"467 1346 LINE",
"3 0 LINE",
"145 0 LINE",
"286 432 LINE",
"795 432 LINE",
"935 0 LINE",
"964 0 LINE",
"891 -49 OFFCURVE",
"813 -147 OFFCURVE",
"813 -254 CURVE SMOOTH",
"813 -370 OFFCURVE",
"895 -428 OFFCURVE",
"998 -428 CURVE SMOOTH",
"1049 -428 OFFCURVE",
"1114 -403 OFFCURVE",
"1150 -375 CURVE",
"1108 -297 LINE"
);
},
{
closed = 1;
nodes = (
"398 770 LINE",
"448 923 OFFCURVE",
"493 1068 OFFCURVE",
"537 1228 CURVE",
"546 1228 LINE",
"590 1068 OFFCURVE",
"636 923 OFFCURVE",
"685 770 CURVE SMOOTH",
"758 545 LINE",
"323 545 LINE"
);
}
);
width = 1086;
},
{
hints = (
{
horizontal = 1;
origin = "{0, 25}";
target = "{0, 25}";
type = Tag;
name = hr00;
}
);
layerId = "C4389747-BECF-4D47-A11A-92B8AD605B66";
paths = (
{
closed = 1;
nodes = (
"1111 -282 OFFCURVE",
"1084 -294 OFFCURVE",
"1050 -294 CURVE SMOOTH",
"1004 -294 OFFCURVE",
"961 -265 OFFCURVE",
"961 -206 CURVE SMOOTH",
"961 -121 OFFCURVE",
"1033 -28 OFFCURVE",
"1134 0 CURVE",
"692 1340 LINE",
"436 1340 LINE",
"-5 0 LINE",
"219 0 LINE",
"330 375 LINE",
"790 375 LINE",
"901 0 LINE",
"955 0 LINE",
"886 -44 OFFCURVE",
"797 -142 OFFCURVE",
"797 -259 CURVE SMOOTH",
"797 -378 OFFCURVE",
"890 -443 OFFCURVE",
"1007 -443 CURVE SMOOTH",
"1068 -443 OFFCURVE",
"1145 -415 OFFCURVE",
"1189 -380 CURVE",
"1134 -265 LINE"
);
},
{
closed = 1;
nodes = (
"434 723 LINE",
"477 866 OFFCURVE",
"518 1017 OFFCURVE",
"556 1167 CURVE",
"564 1167 LINE",
"604 1018 OFFCURVE",
"644 866 OFFCURVE",
"688 723 CURVE",
"740 549 LINE",
"380 549 LINE"
);
}
);
width = 1128;
}
);
leftKerningGroup = A;
rightKerningGroup = A;
unicode = 0104;
userData = {
com.adobe.type.autohint = "ICA8aGludFNldExpc3Q+CiAgICA8aGludHNldCBw";
};
},
{
glyphname = AE;
lastChange = "2019-10-26 06:09:29 +0000";
layers = (
{
anchors = (
{
name = top;
position = "{830, 1346}";
}
);
hints = (
{
horizontal = 1;
origin = "{1, 6}";
type = Tag;
name = hr01;
},
{
horizontal = 1;
origin = "{1, 3}";
type = Tag;
name = hr02;
},
{
horizontal = 1;
origin = "{0, 11}";
type = Tag;
name = hr03;
}
);
layerId = "F1FC1B3B-4EE8-4ECF-8776-11160932002C";
paths = (
{
closed = 1;
nodes = (
"165 0 LINE",
"384 413 LINE",
"824 413 LINE",
"824 0 LINE",
"1569 0 LINE",
"1569 119 LINE",
"963 119 LINE",
"963 651 LINE",
"1450 651 LINE",
"1450 770 LINE",
"963 770 LINE",
"963 1228 LINE",
"1549 1228 LINE",
"1549 1346 LINE",
"744 1346 LINE",
"22 0 LINE"
);
},
{
closed = 1;
nodes = (
"579 780 LINE",
"657 932 OFFCURVE",
"739 1085 OFFCURVE",
"816 1233 CURVE",
"824 1233 LINE",
"824 526 LINE",
"445 526 LINE"
);
}
);
width = 1660;
},
{
anchors = (
{
name = top;
position = "{847, 1340}";
}
);
hints = (
{
horizontal = 1;
origin = "{0, 4}";
target = "{0, 4}";
type = Tag;
name = hr01;
},
{
horizontal = 1;
origin = "{1, 4}";
target = "{0, 4}";
type = Tag;
name = hr02;
}
);
layerId = "C4389747-BECF-4D47-A11A-92B8AD605B66";
paths = (
{
closed = 1;
nodes = (
"226 0 LINE",
"404 358 LINE",
"806 358 LINE",
"806 0 LINE",
"1595 0 LINE",
"1595 187 LINE",
"1027 187 LINE",
"1027 606 LINE",
"1486 606 LINE",
"1486 791 LINE",
"1027 791 LINE",
"1027 1155 LINE",
"1575 1155 LINE",
"1575 1340 LINE",
"674 1340 LINE",
"-4 0 LINE"
);
},
{
closed = 1;
nodes = (
"599 754 LINE",
"664 889 OFFCURVE",
"732 1030 OFFCURVE",
"798 1170 CURVE",
"806 1170 LINE",
"806 532 LINE",
"489 532 LINE"
);
}
);
width = 1694;
}
);
leftKerningGroup = A;
rightKerningGroup = E;
unicode = 00C6;
userData = {
com.adobe.type.autohint = "ICA8aGludFNldExpc3Q+CiAgICA8aGludHNldCBw";
com.typemytype.robofont.mark = (
1,
0.6,
0.6,
1
);
};
},
{
glyphname = B;
lastChange = "2019-10-26 06:09:29 +0000";
layers = (
{
anchors = (
{
name = bottom;
position = "{592, 0}";
},
{
name = top;
position = "{575, 1346}";
}
);
hints = (
{
horizontal = 1;
origin = "{0, 15}";
type = Tag;
name = hr01;
},
{
horizontal = 1;
origin = "{0, 10}";
type = Tag;
name = hr02;
},
{
horizontal = 1;
origin = "{1, 4}";
type = Tag;
name = hr03;
}
);
layerId = "F1FC1B3B-4EE8-4ECF-8776-11160932002C";
paths = (
{
closed = 1;
nodes = (
"602 0 LINE",
"903 0 OFFCURVE",
"1103 131 OFFCURVE",
"1103 395 CURVE SMOOTH",
"1103 583 OFFCURVE",
"985 696 OFFCURVE",
"787 717 CURVE",
"787 725 LINE",
"956 762 OFFCURVE",
"1024 883 OFFCURVE",
"1024 1021 CURVE SMOOTH",
"1024 1255 OFFCURVE",
"846 1346 OFFCURVE",
"575 1346 CURVE SMOOTH",
"184 1346 LINE",
"184 0 LINE"
);
},
{
closed = 1;
nodes = (
"324 658 LINE",
"577 658 LINE",
"829 658 OFFCURVE",
"966 579 OFFCURVE",
"966 400 CURVE SMOOTH",
"966 202 OFFCURVE",
"822 112 OFFCURVE",
"577 112 CURVE SMOOTH",
"324 112 LINE"
);
},
{
closed = 1;
nodes = (
"324 1234 LINE",
"551 1234 LINE",
"775 1234 OFFCURVE",
"886 1172 OFFCURVE",
"886 1013 CURVE SMOOTH",
"886 850 OFFCURVE",
"788 764 OFFCURVE",
"540 764 CURVE SMOOTH",
"324 764 LINE"
);
}
);
width = 1184;
},
{
anchors = (
{
name = bottom;
position = "{605, 0}";
},
{
name = top;
position = "{605, 1340}";
}
);
layerId = "C4389747-BECF-4D47-A11A-92B8AD605B66";
paths = (
{
closed = 1;
nodes = (
"632 0 LINE SMOOTH",
"928 0 OFFCURVE",
"1137 124 OFFCURVE",
"1137 397 CURVE SMOOTH",
"1137 581 OFFCURVE",
"1028 694 OFFCURVE",
"834 712 CURVE",
"834 720 LINE",
"1001 757 OFFCURVE",
"1065 886 OFFCURVE",
"1065 1016 CURVE SMOOTH",
"1065 1263 OFFCURVE",
"879 1340 OFFCURVE",
"600 1340 CURVE",
"170 1340 LINE",
"170 0 LINE"
);
},
{
closed = 1;
nodes = (
"392 620 LINE",
"612 620 LINE SMOOTH",
"821 620 OFFCURVE",
"921 559 OFFCURVE",
"921 411 CURVE SMOOTH",
"921 246 OFFCURVE",
"812 172 OFFCURVE",
"608 172 CURVE",
"392 172 LINE"
);
},
{
closed = 1;
nodes = (
"392 1168 LINE",
"587 1168 LINE SMOOTH",
"768 1168 OFFCURVE",
"849 1119 OFFCURVE",
"849 989 CURVE SMOOTH",
"849 856 OFFCURVE",
"772 780 OFFCURVE",
"575 780 CURVE",
"392 780 LINE"
);
}
);
width = 1210;
}
);
leftKerningGroup = H;
rightKerningGroup = B;
unicode = 0042;
userData = {
com.adobe.type.autohint = "ICA8aGludFNldExpc3Q+CiAgICA8aGludHNldCBw";
com.typemytype.robofont.mark = (
1,
0.6,
0.6,
1
);
};
},
{
glyphname = Bstroke;
lastChange = "2019-10-26 06:09:29 +0000";
layers = (
{
hints = (
{
horizontal = 1;
origin = "{1, 12}";
type = Tag;
name = hr01;
},
{
horizontal = 1;
origin = "{2, 4}";
type = Tag;
name = hr02;
},
{
horizontal = 1;
origin = "{0, 3}";
type = Tag;
name = hr03;
}
);
layerId = "F1FC1B3B-4EE8-4ECF-8776-11160932002C";
paths = (
{
closed = 1;
nodes = (
"636 0 LINE",
"938 0 OFFCURVE",
"1142 132 OFFCURVE",
"1142 399 CURVE SMOOTH",
"1142 588 OFFCURVE",
"1023 696 OFFCURVE",
"826 727 CURVE",
"826 735 LINE",
"984 776 OFFCURVE",
"1061 887 OFFCURVE",
"1061 1021 CURVE SMOOTH",
"1061 1248 OFFCURVE",
"879 1346 OFFCURVE",
"607 1346 CURVE SMOOTH",
"222 1346 LINE",
"222 448 LINE",
"64 441 LINE",
"64 363 LINE",
"222 363 LINE",
"222 0 LINE"
);
},
{
closed = 1;
nodes = (
"362 363 LINE",
"684 363 LINE",
"684 448 LINE",
"362 448 LINE",
"362 674 LINE",
"612 674 LINE",
"862 674 OFFCURVE",
"1006 588 OFFCURVE",
"1006 404 CURVE SMOOTH",
"1006 201 OFFCURVE",
"857 107 OFFCURVE",
"612 107 CURVE SMOOTH",
"362 107 LINE"
);
},
{
closed = 1;
nodes = (
"362 1240 LINE",
"583 1240 LINE",
"808 1240 OFFCURVE",
"927 1173 OFFCURVE",
"927 1015 CURVE SMOOTH",
"927 854 OFFCURVE",
"823 770 OFFCURVE",
"575 770 CURVE SMOOTH",
"362 770 LINE"
);
}
);
width = 1222;
},
{
hints = (
{
horizontal = 1;
origin = "{0, 0}";
target = "{0, 0}";
type = Tag;
name = hr01;
},
{
horizontal = 1;
origin = "{0, 4}";
target = "{0, 0}";
type = Tag;
name = hr02;
},
{
horizontal = 1;
origin = "{0, 17}";
target = "{0, 0}";
type = Tag;
name = hr03;
},
{
horizontal = 1;
origin = "{1, 0}";
target = "{0, 0}";
type = Tag;
name = hr04;
},
{
horizontal = 1;
origin = "{2, 0}";
target = "{0, 0}";
type = Tag;
name = hr05;
}
);
layerId = "C4389747-BECF-4D47-A11A-92B8AD605B66";
paths = (
{
closed = 1;
nodes = (
"668 0 LINE SMOOTH",
"964 0 OFFCURVE",
"1181 129 OFFCURVE",
"1181 404 CURVE SMOOTH",
"1181 593 OFFCURVE",
"1072 701 OFFCURVE",
"878 734 CURVE",
"878 742 LINE",
"1036 782 OFFCURVE",
"1108 894 OFFCURVE",
"1108 1018 CURVE SMOOTH",
"1108 1251 OFFCURVE",
"910 1340 OFFCURVE",
"636 1340 CURVE SMOOTH",
"214 1340 LINE",
"214 476 LINE",
"58 467 LINE",
"58 360 LINE",
"214 360 LINE",
"214 0 LINE"
);
},
{
closed = 1;
nodes = (
"434 360 LINE",
"725 360 LINE",
"725 476 LINE",
"434 476 LINE",
"434 654 LINE",
"644 654 LINE SMOOTH",
"852 654 OFFCURVE",
"968 581 OFFCURVE",
"968 418 CURVE SMOOTH",
"968 246 OFFCURVE",
"849 162 OFFCURVE",
"644 162 CURVE",
"434 162 LINE"
);
},
{
closed = 1;
nodes = (
"434 1179 LINE",
"617 1179 LINE SMOOTH",
"800 1179 OFFCURVE",
"896 1125 OFFCURVE",
"896 997 CURVE SMOOTH",
"896 865 OFFCURVE",
"809 791 OFFCURVE",
"613 791 CURVE",
"434 791 LINE"
);
}
);
width = 1254;
}
);
leftKerningGroup = Bstroke;
rightKerningGroup = Bstroke;
unicode = 0243;
userData = {
com.adobe.type.autohint = "ICA8aGludFNldExpc3Q+CiAgICA8aGludHNldCBw";
};
},
{
glyphname = C;
lastChange = "2019-10-26 06:10:49 +0000";
layers = (
{
anchors = (
{
name = bottom;
position = "{663, 0}";
},
{
name = top;
position = "{679, 1590}";
}
);
hints = (
{
horizontal = 1;
origin = "{0, 18}";
type = Tag;
name = hr00;
}
);
layerId = "F1FC1B3B-4EE8-4ECF-8776-11160932002C";
paths = (
{
closed = 1;
nodes = (
"914 151 OFFCURVE",
"815 99 OFFCURVE",
"683 99 CURVE SMOOTH",
"413 99 OFFCURVE",
"246 318 OFFCURVE",
"246 678 CURVE SMOOTH",
"246 1035 OFFCURVE",
"419 1247 OFFCURVE",
"691 1247 CURVE SMOOTH",
"807 1247 OFFCURVE",
"901 1197 OFFCURVE",
"973 1119 CURVE",
"1053 1208 LINE",
"976 1294 OFFCURVE",
"849 1370 OFFCURVE",
"690 1370 CURVE SMOOTH",
"346 1370 OFFCURVE",
"102 1114 OFFCURVE",
"102 674 CURVE SMOOTH",
"102 231 OFFCURVE",
"343 -25 OFFCURVE",
"679 -25 CURVE SMOOTH",
"851 -25 OFFCURVE",
"981 46 OFFCURVE",
"1085 167 CURVE",
"1005 253 LINE"
);
}
);
width = 1152;
},
{
anchors = (
{
name = bottom;
position = "{687, 0}";
},
{
name = top;
position = "{704, 1340}";
}
);
hints = (
{
horizontal = 1;
origin = "{0, 15}";
target = "{0, 15}";
type = Tag;
name = hr00;
}
);
layerId = "C4389747-BECF-4D47-A11A-92B8AD605B66";
paths = (
{
closed = 1;
nodes = (
"909 216 OFFCURVE",
"820 167 OFFCURVE",
"699 167 CURVE SMOOTH",
"466 167 OFFCURVE",
"324 352 OFFCURVE",
"324 675 CURVE SMOOTH",
"324 992 OFFCURVE",
"478 1174 OFFCURVE",
"707 1174 CURVE SMOOTH",
"811 1174 OFFCURVE",
"896 1131 OFFCURVE",
"966 1061 CURVE",
"1089 1199 LINE",
"1005 1289 OFFCURVE",
"866 1365 OFFCURVE",
"704 1365 CURVE SMOOTH",
"360 1365 OFFCURVE",
"97 1116 OFFCURVE",
"97 667 CURVE SMOOTH",
"97 213 OFFCURVE",
"354 -25 OFFCURVE",
"695 -25 CURVE SMOOTH",
"863 -25 OFFCURVE",
"1004 44 OFFCURVE",
"1111 169 CURVE",
"988 303 LINE"
);
}
);
width = 1170;
}
);
leftKerningGroup = O;
rightKerningGroup = C;
unicode = 0043;
userData = {
com.adobe.type.autohint = "ICA8aGludFNldExpc3Q+CiAgICA8aGludHNldCBw";
com.typemytype.robofont.mark = (
1,
0.6,
0.6,
1
);
};
},
{
glyphname = D;
lastChange = "2019-10-26 06:09:29 +0000";
layers = (
{
anchors = (
{
name = bottom;
position = "{621, 0}";
},
{
name = center;
position = "{621, 673}";
},
{
name = top;
position = "{621, 1346}";
}
);
hints = (
{
horizontal = 1;
origin = "{0, 8}";
type = Tag;
name = hr00;
}
);
layerId = "F1FC1B3B-4EE8-4ECF-8776-11160932002C";
paths = (
{
closed = 1;
nodes = (
"518 0 LINE",
"928 0 OFFCURVE",
"1136 252 OFFCURVE",
"1136 679 CURVE SMOOTH",
"1136 1104 OFFCURVE",
"934 1346 OFFCURVE",
"519 1346 CURVE SMOOTH",
"184 1346 LINE",
"184 0 LINE"
);
},
{
closed = 1;
nodes = (
"324 1231 LINE",
"508 1231 LINE",
"843 1231 OFFCURVE",
"992 1028 OFFCURVE",
"992 679 CURVE SMOOTH",
"992 330 OFFCURVE",
"838 115 OFFCURVE",
"502 115 CURVE SMOOTH",
"324 115 LINE"
);
}
);
width = 1242;
},
{
anchors = (
{
name = bottom;
position = "{635, 0}";
},
{
name = center;
position = "{635, 670}";
},
{
name = top;
position = "{635, 1340}";
}
);
layerId = "C4389747-BECF-4D47-A11A-92B8AD605B66";
paths = (
{
closed = 1;
nodes = (
"540 0 LINE SMOOTH",
"940 0 OFFCURVE",
"1169 235 OFFCURVE",
"1169 678 CURVE SMOOTH",
"1169 1127 OFFCURVE",
"950 1340 OFFCURVE",
"534 1340 CURVE",
"170 1340 LINE",
"170 0 LINE"
);
},
{
closed = 1;
nodes = (
"392 1161 LINE",
"520 1161 LINE SMOOTH",
"805 1161 OFFCURVE",
"943 1018 OFFCURVE",
"943 678 CURVE SMOOTH",
"943 341 OFFCURVE",
"795 179 OFFCURVE",
"514 179 CURVE",
"392 179 LINE"
);
}
);
width = 1270;
}
);
leftKerningGroup = H;
rightKerningGroup = O;
unicode = 0044;
userData = {
com.adobe.type.autohint = "ICA8aGludFNldExpc3Q+CiAgICA8aGludHNldCBw";
com.typemytype.robofont.mark = (
1,
0.6,
0.6,
1
);
};
},
{
glyphname = Eth;
lastChange = "2019-10-26 06:09:29 +0000";
layers = (
{
anchors = (
{
name = btm;
position = "{619, -300}";
},
{
name = top;
position = "{619, 1590}";
}
);
hints = (
{
horizontal = 1;
origin = "{1, 12}";
type = Tag;
name = hr00;
}
);
layerId = "F1FC1B3B-4EE8-4ECF-8776-11160932002C";
paths = (
{
closed = 1;
nodes = (
"554 0 LINE",
"963 0 OFFCURVE",
"1175 258 OFFCURVE",
"1175 679 CURVE SMOOTH",
"1175 1097 OFFCURVE",
"963 1346 OFFCURVE",
"548 1346 CURVE SMOOTH",
"222 1346 LINE",
"222 752 LINE",
"64 744 LINE",
"64 666 LINE",
"222 666 LINE",
"222 0 LINE"
);
},
{
closed = 1;
nodes = (
"362 666 LINE",
"684 666 LINE",
"684 752 LINE",
"362 752 LINE",
"362 1231 LINE",
"537 1231 LINE",
"872 1231 OFFCURVE",
"1031 1022 OFFCURVE",
"1031 679 CURVE SMOOTH",
"1031 334 OFFCURVE",
"872 115 OFFCURVE",
"537 115 CURVE SMOOTH",
"362 115 LINE"
);
}
);
width = 1280;
},
{
anchors = (
{
name = btm;
position = "{636, -200}";
},
{
name = top;
position = "{636, 800}";
}
);
hints = (
{
horizontal = 1;
origin = "{0, 6}";
target = "{0, 6}";
type = Tag;
name = hr00;
}
);
layerId = "C4389747-BECF-4D47-A11A-92B8AD605B66";
paths = (
{
closed = 1;
nodes = (
"577 0 LINE SMOOTH",
"977 0 OFFCURVE",
"1214 237 OFFCURVE",
"1214 676 CURVE SMOOTH",
"1214 1115 OFFCURVE",
"977 1340 OFFCURVE",
"566 1340 CURVE",
"214 1340 LINE",
"214 757 LINE",
"58 748 LINE",
"58 641 LINE",
"214 641 LINE",
"214 0 LINE"
);
},
{
closed = 1;
nodes = (
"434 641 LINE",
"725 641 LINE",
"725 757 LINE",
"434 757 LINE",
"434 1161 LINE",
"551 1161 LINE SMOOTH",
"831 1161 OFFCURVE",
"987 1007 OFFCURVE",
"987 676 CURVE SMOOTH",
"987 344 OFFCURVE",
"831 179 OFFCURVE",
"551 179 CURVE",
"434 179 LINE"
);
}
);
width = 1313;
}
);
leftKerningGroup = H;
rightKerningGroup = O;
unicode = 00D0;
userData = {
com.adobe.type.autohint = "ICA8aGludFNldExpc3Q+CiAgICA8aGludHNldCBw";
com.typemytype.robofont.mark = (
1,
0.6,
0.6,
1
);
};
},
{
glyphname = E;
lastChange = "2019-10-26 06:09:29 +0000";
layers = (
{
anchors = (
{
name = btm;
position = "{574, -300}";
},
{
name = top;
position = "{574, 1590}";
}
);
hints = (
{
horizontal = 1;
origin = "{0, 11}";
type = Tag;
name = hr00;
}
);
layerId = "F1FC1B3B-4EE8-4ECF-8776-11160932002C";
paths = (
{
closed = 1;
nodes = (
"964 0 LINE",
"964 119 LINE",
"324 119 LINE",
"324 651 LINE",
"845 651 LINE",
"845 770 LINE",
"324 770 LINE",
"324 1228 LINE",
"943 1228 LINE",
"943 1346 LINE",
"184 1346 LINE",
"184 0 LINE"
);
}
);
width = 1056;
},
{
anchors = (
{
name = btm;
position = "{579, -200}";
},
{
name = top;
position = "{562, 800}";
}
);
hints = (
{
horizontal = 1;
origin = "{0, 9}";
target = "{0, 9}";
type = Tag;
name = hr00;
}
);
layerId = "C4389747-BECF-4D47-A11A-92B8AD605B66";
paths = (
{
closed = 1;
nodes = (
"989 0 LINE",
"989 187 LINE",
"392 187 LINE",
"392 606 LINE",
"879 606 LINE",
"879 791 LINE",
"392 791 LINE",
"392 1155 LINE",
"968 1155 LINE",
"968 1340 LINE",
"170 1340 LINE",
"170 0 LINE"
);
}
);
width = 1088;
}
);
leftKerningGroup = H;
rightKerningGroup = E;
unicode = 0045;
userData = {
com.adobe.type.autohint = "ICA8aGludFNldExpc3Q+CiAgICA8aGludHNldCBw";
com.typemytype.robofont.mark = (
1,
0.6,
0.6,
1
);
};
},
{
glyphname = Eogonek;
lastChange = "2019-10-26 06:10:49 +0000";
layers = (
{
hints = (
{
horizontal = 1;
origin = "{0, 20}";
type = Tag;
name = hr00;
}
);
layerId = "F1FC1B3B-4EE8-4ECF-8776-11160932002C";
paths = (
{
closed = 1;
nodes = (
"926 -317 OFFCURVE",
"902 -326 OFFCURVE",
"868 -326 CURVE SMOOTH",
"817 -326 OFFCURVE",
"767 -294 OFFCURVE",
"767 -227 CURVE SMOOTH",
"767 -114 OFFCURVE",
"866 -14 OFFCURVE",
"958 0 CURVE SMOOTH",
"964 0 LINE",
"964 119 LINE",
"324 119 LINE",
"324 651 LINE",
"845 651 LINE",
"845 770 LINE",
"324 770 LINE",
"324 1228 LINE",
"943 1228 LINE",
"943 1346 LINE",
"184 1346 LINE",
"184 0 LINE",
"808 0 LINE",
"730 -50 OFFCURVE",
"657 -144 OFFCURVE",
"657 -254 CURVE SMOOTH",
"657 -370 OFFCURVE",
"739 -428 OFFCURVE",
"843 -428 CURVE SMOOTH",
"894 -428 OFFCURVE",
"958 -403 OFFCURVE",
"994 -375 CURVE",
"952 -297 LINE"
);
}
);
width = 1056;
},
{
hints = (
{
horizontal = 1;
origin = "{0, 28}";
target = "{0, 28}";
type = Tag;
name = hr00;
}
);
layerId = "C4389747-BECF-4D47-A11A-92B8AD605B66";
paths = (
{
closed = 1;
nodes = (
"946 -282 OFFCURVE",
"920 -294 OFFCURVE",
"890 -294 CURVE SMOOTH",
"843 -294 OFFCURVE",
"796 -266 OFFCURVE",
"796 -206 CURVE SMOOTH",
"796 -105 OFFCURVE",
"887 -9 OFFCURVE",
"980 0 CURVE",
"989 0 LINE",
"989 187 LINE",
"392 187 LINE",
"392 606 LINE",
"879 606 LINE",
"879 791 LINE",
"392 791 LINE",
"392 1155 LINE",
"968 1155 LINE",
"968 1340 LINE",
"170 1340 LINE",
"170 0 LINE",
"788 0 LINE",
"713 -47 OFFCURVE",
"631 -141 OFFCURVE",
"631 -259 CURVE SMOOTH",
"631 -378 OFFCURVE",
"725 -443 OFFCURVE",
"841 -443 CURVE SMOOTH",
"902 -443 OFFCURVE",
"980 -415 OFFCURVE",
"1025 -380 CURVE",
"968 -265 LINE"
);
}
);
width = 1088;
}
);
leftKerningGroup = H;
rightKerningGroup = E;
unicode = 0118;
userData = {
com.adobe.type.autohint = "ICA8aGludFNldExpc3Q+CiAgICA8aGludHNldCBw";
};
},
{
glyphname = F;
lastChange = "2019-10-26 06:09:29 +0000";
layers = (
{
anchors = (
{
name = bottom;
position = "{493, 0}";
},
{
name = top;
position = "{592, 1346}";
}
);
hints = (
{
horizontal = 1;
origin = "{0, 9}";
type = Tag;
name = hr00;
}
);
layerId = "F1FC1B3B-4EE8-4ECF-8776-11160932002C";
paths = (
{
closed = 1;
nodes = (
"324 0 LINE",
"324 621 LINE",
"848 621 LINE",
"848 739 LINE",
"324 739 LINE",
"324 1228 LINE",
"943 1228 LINE",
"943 1346 LINE",
"184 1346 LINE",
"184 0 LINE"
);
}
);
width = 985;
},
{
anchors = (
{
name = bottom;
position = "{514, 0}";
},
{
name = top;
position = "{514, 1340}";
}
);
hints = (
{
horizontal = 1;
origin = "{0, 7}";
target = "{0, 7}";
type = Tag;
name = hr00;
}
);
layerId = "C4389747-BECF-4D47-A11A-92B8AD605B66";
paths = (
{
closed = 1;
nodes = (
"392 0 LINE",
"392 570 LINE",
"884 570 LINE",
"884 755 LINE",
"392 755 LINE",
"392 1155 LINE",
"971 1155 LINE",
"971 1340 LINE",
"170 1340 LINE",
"170 0 LINE"
);
}
);
width = 1028;
}
);
leftKerningGroup = H;
rightKerningGroup = F;
unicode = 0046;
userData = {
com.adobe.type.autohint = "ICA8aGludFNldExpc3Q+CiAgICA8aGludHNldCBw";
com.typemytype.robofont.mark = (
1,
0.6,
0.6,
1
);
};
},
{
glyphname = G;
lastChange = "2019-10-26 06:10:49 +0000";
layers = (
{
anchors = (
{
name = bottom;
position = "{621, 0}";
},
{
name = top;
position = "{682, 1346}";
}
);
hints = (
{
horizontal = 1;
origin = "{0, 22}";
type = Tag;
name = hr00;
}
);
layerId = "F1FC1B3B-4EE8-4ECF-8776-11160932002C";
paths = (
{
closed = 1;
nodes = (
"683 683 LINE",
"683 567 LINE",
"978 567 LINE",
"978 188 LINE",
"919 132 OFFCURVE",
"817 99 OFFCURVE",
"710 99 CURVE SMOOTH",
"415 99 OFFCURVE",
"247 315 OFFCURVE",
"247 675 CURVE SMOOTH",
"247 1041 OFFCURVE",
"427 1247 OFFCURVE",
"714 1247 CURVE SMOOTH",
"854 1247 OFFCURVE",
"942 1196 OFFCURVE",
"1010 1123 CURVE",
"1091 1212 LINE",
"1014 1292 OFFCURVE",
"896 1370 OFFCURVE",
"713 1370 CURVE SMOOTH",
"354 1370 OFFCURVE",
"102 1124 OFFCURVE",
"102 673 CURVE SMOOTH",
"102 227 OFFCURVE",
"346 -25 OFFCURVE",
"696 -25 CURVE SMOOTH",
"875 -25 OFFCURVE",
"1020 43 OFFCURVE",
"1106 130 CURVE",
"1106 683 LINE"
);
}
);
width = 1241;
},
{
anchors = (
{
name = bottom;
position = "{733, 0}";
},
{
name = top;
position = "{731, 1365}";
}
);
hints = (
{
horizontal = 1;
origin = "{0, 19}";
target = "{0, 19}";
type = Tag;
name = hr00;
}
);
layerId = "C4389747-BECF-4D47-A11A-92B8AD605B66";
paths = (
{
closed = 1;
nodes = (
"694 717 LINE",
"694 536 LINE",
"949 536 LINE",
"949 232 LINE",
"903 192 OFFCURVE",
"822 167 OFFCURVE",
"743 167 CURVE SMOOTH",
"468 167 OFFCURVE",
"324 347 OFFCURVE",
"324 671 CURVE SMOOTH",
"324 999 OFFCURVE",
"486 1174 OFFCURVE",
"734 1174 CURVE SMOOTH",
"859 1174 OFFCURVE",
"937 1131 OFFCURVE",
"1005 1064 CURVE",
"1129 1202 LINE",
"1045 1287 OFFCURVE",
"915 1365 OFFCURVE",
"731 1365 CURVE SMOOTH",
"368 1365 OFFCURVE",
"97 1128 OFFCURVE",
"97 665 CURVE SMOOTH",
"97 207 OFFCURVE",
"360 -25 OFFCURVE",
"717 -25 CURVE SMOOTH",
"900 -25 OFFCURVE",
"1056 48 OFFCURVE",
"1147 133 CURVE",
"1147 717 LINE"
);
}
);
width = 1272;
}
);
leftKerningGroup = O;
rightKerningGroup = G;
unicode = 0047;
userData = {
com.adobe.type.autohint = "ICA8aGludFNldExpc3Q+CiAgICA8aGludHNldCBw";
com.typemytype.robofont.mark = (
1,
0.6,
0.6,
1
);
};
},
{
glyphname = H;
lastChange = "2019-10-26 06:09:29 +0000";
layers = (
{
anchors = (
{
name = bottom;
position = "{656, 0}";
},
{
name = center;
position = "{656, 673}";
},
{
name = top;
position = "{656, 1346}";
}
);
hints = (
{
horizontal = 1;
origin = "{0, 11}";
type = Tag;
name = hr00;
}
);
layerId = "F1FC1B3B-4EE8-4ECF-8776-11160932002C";
paths = (
{
closed = 1;
nodes = (
"324 0 LINE",
"324 651 LINE",
"989 651 LINE",
"989 0 LINE",
"1127 0 LINE",
"1127 1346 LINE",
"989 1346 LINE",
"989 771 LINE",
"324 771 LINE",
"324 1346 LINE",
"184 1346 LINE",
"184 0 LINE"
);
}
);
width = 1312;
},
{
anchors = (
{
name = bottom;
position = "{672, 0}";
},
{
name = center;
position = "{672, 670}";
},
{
name = top;
position = "{672, 1340}";
}
);
hints = (
{
horizontal = 1;
origin = "{0, 9}";
target = "{0, 9}";
type = Tag;
name = hr00;
}
);
layerId = "C4389747-BECF-4D47-A11A-92B8AD605B66";
paths = (
{
closed = 1;
nodes = (
"392 0 LINE",
"392 604 LINE",
"954 604 LINE",
"954 0 LINE",
"1174 0 LINE",
"1174 1340 LINE",
"954 1340 LINE",
"954 796 LINE",
"392 796 LINE",
"392 1340 LINE",
"170 1340 LINE",
"170 0 LINE"
);
}
);
width = 1344;
}
);
leftKerningGroup = H;
rightKerningGroup = H;
unicode = 0048;
userData = {
com.adobe.type.autohint = "ICA8aGludFNldExpc3Q+CiAgICA8aGludHNldCBw";
com.typemytype.robofont.mark = (
1,
0.6,
0.6,
1
);
};
},
{
glyphname = Hbar;
lastChange = "2019-10-26 06:09:29 +0000";
layers = (
{
hints = (
{
horizontal = 1;
origin = "{1, 2}";
type = Tag;
name = hr00;
}
);
layerId = "F1FC1B3B-4EE8-4ECF-8776-11160932002C";
paths = (
{
closed = 1;
nodes = (
"358 0 LINE",
"358 651 LINE",
"1022 651 LINE",
"1022 0 LINE",
"1163 0 LINE",
"1163 1010 LINE",
"1318 1010 LINE",
"1318 1095 LINE",
"1163 1095 LINE",
"1163 1346 LINE",
"1022 1346 LINE",
"1022 1095 LINE",
"358 1095 LINE",
"358 1346 LINE",
"219 1346 LINE",
"219 1095 LINE",
"64 1085 LINE",
"64 1010 LINE",
"219 1010 LINE",
"219 0 LINE"
);
},
{
closed = 1;
nodes = (
"358 1010 LINE",
"1022 1010 LINE",
"1022 771 LINE",
"358 771 LINE"
);
}
);
width = 1382;
},
{
hints = (
{
horizontal = 1;
origin = "{0, 0}";
target = "{0, 0}";
type = Tag;
name = hr01;
},
{
horizontal = 1;
origin = "{0, 4}";
target = "{0, 0}";
type = Tag;
name = hr02;
},
{
horizontal = 1;
origin = "{0, 6}";
target = "{0, 0}";
type = Tag;
name = hr03;
},
{
horizontal = 1;
origin = "{0, 8}";
target = "{0, 0}";
type = Tag;
name = hr04;
},
{
horizontal = 1;
origin = "{0, 10}";
target = "{0, 0}";
type = Tag;
name = hr05;
}
);
layerId = "C4389747-BECF-4D47-A11A-92B8AD605B66";
paths = (
{
closed = 1;
nodes = (
"428 0 LINE",
"428 604 LINE",
"990 604 LINE",
"990 0 LINE",
"1212 0 LINE",
"1212 1003 LINE",
"1362 1003 LINE",
"1362 1118 LINE",
"1212 1118 LINE",
"1212 1340 LINE",
"990 1340 LINE",
"990 1118 LINE",
"428 1118 LINE",
"428 1340 LINE",
"208 1340 LINE",
"208 1118 LINE",
"56 1118 LINE",
"56 1003 LINE",
"208 1003 LINE",
"208 0 LINE"
);
},
{
closed = 1;
nodes = (
"428 1003 LINE",
"990 1003 LINE",
"990 796 LINE",
"428 796 LINE"
);
}
);
width = 1420;
}
);
leftKerningGroup = H;
rightKerningGroup = H;
unicode = 0126;
userData = {
com.adobe.type.autohint = "ICA8aGludFNldExpc3Q+CiAgICA8aGludHNldCBw";
};
},
{
glyphname = I;
lastChange = "2019-10-26 06:09:29 +0000";
layers = (
{
anchors = (
{
name = bottom;
position = "{254, 0}";
},
{
name = ogonek;
position = "{456, 10}";
},
{
name = top;
position = "{254, 1346}";
}
);
hints = (
{
horizontal = 1;
origin = "{0, 3}";
type = Tag;
name = hr00;
}
);
layerId = "F1FC1B3B-4EE8-4ECF-8776-11160932002C";
paths = (
{
closed = 1;
nodes = (
"324 0 LINE",
"324 1346 LINE",
"184 1346 LINE",
"184 0 LINE"
);
}
);
width = 507;
},
{
anchors = (
{
name = bottom;
position = "{281, 0}";
},
{
name = ogonek;
position = "{505, 10}";
},
{
name = top;
position = "{281, 1340}";
}
);
hints = (
{
horizontal = 1;
origin = "{0, 0}";
target = "{0, 0}";
type = Tag;
name = hr00;
}
);
layerId = "C4389747-BECF-4D47-A11A-92B8AD605B66";
paths = (
{
closed = 1;
nodes = (
"392 0 LINE",
"392 1340 LINE",
"170 1340 LINE",
"170 0 LINE"
);
}
);
width = 561;
}
);
leftKerningGroup = H;
rightKerningGroup = H;
unicode = 0049;
userData = {
com.adobe.type.autohint = "ICA8aGludFNldExpc3Q+CiAgICA8aGludHNldCBw";
com.typemytype.robofont.mark = (
1,
0.6,
0.6,
1
);
};
},
{
glyphname = Iogonek;
lastChange = "2019-10-26 06:10:49 +0000";
layers = (
{
hints = (
{
horizontal = 1;
origin = "{0, 11}";
type = Tag;
name = hr01;
},
{
horizontal = 1;
origin = "{0, 15}";
type = Tag;
name = hr02;
},
{
horizontal = 1;
origin = "{0, 8}";
type = Tag;
name = hr03;
}
);
layerId = "F1FC1B3B-4EE8-4ECF-8776-11160932002C";
paths = (
{
closed = 1;
nodes = (
"353 -317 OFFCURVE",
"328 -326 OFFCURVE",
"294 -326 CURVE SMOOTH",
"244 -326 OFFCURVE",
"194 -294 OFFCURVE",
"194 -227 CURVE SMOOTH",
"194 -140 OFFCURVE",
"244 -71 OFFCURVE",
"324 0 CURVE",
"324 1346 LINE",
"184 1346 LINE",
"184 0 LINE",
"215 0 LINE",
"149 -64 OFFCURVE",
"83 -140 OFFCURVE",
"83 -254 CURVE SMOOTH",
"83 -370 OFFCURVE",
"166 -428 OFFCURVE",
"269 -428 CURVE SMOOTH",
"320 -428 OFFCURVE",
"384 -403 OFFCURVE",
"420 -375 CURVE",
"378 -297 LINE"
);
}
);
width = 507;
},
{
hints = (
{
horizontal = 1;
origin = "{0, 19}";
target = "{0, 19}";
type = Tag;
name = hr01;
},
{
horizontal = 1;
origin = "{0, 2}";
target = "{0, 19}";
type = Tag;
name = hr02;
},
{
horizontal = 1;
origin = "{0, 18}";
target = "{0, 19}";
type = Tag;
name = hr03;
}
);
layerId = "C4389747-BECF-4D47-A11A-92B8AD605B66";
paths = (
{
closed = 1;
nodes = (
"400 -282 OFFCURVE",
"373 -294 OFFCURVE",
"342 -294 CURVE SMOOTH",
"296 -294 OFFCURVE",
"249 -266 OFFCURVE",
"249 -206 CURVE SMOOTH",
"249 -127 OFFCURVE",
"296 -58 OFFCURVE",
"392 0 CURVE",
"392 1340 LINE",
"170 1340 LINE",
"170 0 LINE",
"226 0 LINE",
"163 -53 OFFCURVE",
"85 -137 OFFCURVE",
"85 -259 CURVE SMOOTH",
"85 -378 OFFCURVE",
"177 -443 OFFCURVE",
"294 -443 CURVE SMOOTH",
"356 -443 OFFCURVE",
"433 -415 OFFCURVE",
"477 -380 CURVE",
"422 -265 LINE"
);
}
);
width = 561;
}
);
leftKerningGroup = H;
rightKerningGroup = H;
unicode = 012E;
userData = {
com.adobe.type.autohint = "ICA8aGludFNldExpc3Q+CiAgICA8aGludHNldCBw";
};
},
{
glyphname = J;
lastChange = "2019-10-26 06:10:49 +0000";
layers = (
{
anchors = (
{
name = bottom;
position = "{478, 0}";
},
{
name = top;
position = "{478, 1346}";
}
);
hints = (
{
horizontal = 1;
origin = "{0, 8}";
type = Tag;
name = hr00;
}
);
layerId = "F1FC1B3B-4EE8-4ECF-8776-11160932002C";
paths = (
{
closed = 1;
nodes = (
"638 1346 LINE",
"638 392 LINE",
"638 181 OFFCURVE",
"565 99 OFFCURVE",
"413 99 CURVE SMOOTH",
"310 99 OFFCURVE",
"231 144 OFFCURVE",
"166 253 CURVE",
"66 183 LINE",
"140 48 OFFCURVE",
"260 -25 OFFCURVE",
"422 -25 CURVE SMOOTH",
"678 -25 OFFCURVE",
"777 152 OFFCURVE",
"777 378 CURVE SMOOTH",
"777 1346 LINE"
);
}
);
width = 955;
},
{
anchors = (
{
name = bottom;
position = "{499, 0}";
},
{
name = top;
position = "{499, 1340}";
}
);
hints = (
{
horizontal = 1;
origin = "{0, 12}";
target = "{0, 12}";
type = Tag;
name = hr00;
}
);
layerId = "C4389747-BECF-4D47-A11A-92B8AD605B66";
paths = (
{
closed = 1;
nodes = (
"613 1340 LINE",
"613 426 LINE SMOOTH",
"613 231 OFFCURVE",
"549 167 OFFCURVE",
"419 167 CURVE SMOOTH",
"333 167 OFFCURVE",
"259 212 OFFCURVE",
"201 311 CURVE",
"48 200 LINE",
"132 51 OFFCURVE",
"260 -25 OFFCURVE",
"443 -25 CURVE SMOOTH",
"719 -25 OFFCURVE",
"834 165 OFFCURVE",
"834 406 CURVE SMOOTH",
"834 1340 LINE"
);
}
);
width = 997;
}
);
leftKerningGroup = J;
rightKerningGroup = J;
unicode = 004A;
userData = {
com.adobe.type.autohint = "ICA8aGludFNldExpc3Q+CiAgICA8aGludHNldCBw";
com.typemytype.robofont.mark = (
1,
0.6,
0.6,
1
);
};
},
{
glyphname = K;
lastChange = "2019-10-26 06:09:29 +0000";
layers = (
{
anchors = (
{
name = bottom;
position = "{578, 0}";
},
{
name = top;
position = "{578, 1346}";
}
);
hints = (
{
horizontal = 1;
origin = "{0, 12}";
type = Tag;
name = hr00;
}
);
layerId = "F1FC1B3B-4EE8-4ECF-8776-11160932002C";
paths = (
{
closed = 1;
nodes = (
"324 0 LINE",
"324 442 LINE",
"572 731 LINE",
"991 0 LINE",
"1148 0 LINE",
"661 839 LINE",
"1086 1346 LINE",
"926 1346 LINE",
"328 641 LINE",
"324 641 LINE",
"324 1346 LINE",
"184 1346 LINE",
"184 0 LINE"
);
}
);
width = 1156;
},
{
anchors = (
{
name = bottom;
position = "{603, 0}";
},
{
name = top;
position = "{603, 1340}";
}
);
hints = (
{
horizontal = 1;
origin = "{0, 0}";
target = "{0, 0}";
type = Tag;
name = hr00;
}
);
layerId = "C4389747-BECF-4D47-A11A-92B8AD605B66";
paths = (
{
closed = 1;
nodes = (
"392 0 LINE",
"392 400 LINE",
"593 646 LINE",
"965 0 LINE",
"1209 0 LINE",
"726 820 LINE",
"1141 1340 LINE",
"894 1340 LINE",
"396 711 LINE",
"392 711 LINE",
"392 1340 LINE",
"170 1340 LINE",
"170 0 LINE"
);
}
);
width = 1206;
}
);
leftKerningGroup = H;
rightKerningGroup = K;
unicode = 004B;
userData = {
com.adobe.type.autohint = "ICA8aGludFNldExpc3Q+CiAgICA8aGludHNldCBw";
com.typemytype.robofont.mark = (
1,
0.6,
0.6,
1
);
};
},
{
glyphname = L;
lastChange = "2019-10-26 06:09:29 +0000";
layers = (
{
anchors = (
{
name = btm;
position = "{503, -300}";
},
{
name = car;
position = "{741, 1003}";
},
{
name = dot;
position = "{675, 772}";
},
{
name = top;
position = "{257, 1590}";
}
);
hints = (
{
horizontal = 1;
origin = "{0, 5}";
type = Tag;
name = hr00;
}
);
layerId = "F1FC1B3B-4EE8-4ECF-8776-11160932002C";
paths = (
{
closed = 1;
nodes = (
"924 0 LINE",
"924 119 LINE",
"324 119 LINE",
"324 1346 LINE",
"184 1346 LINE",
"184 0 LINE"
);
}
);
width = 967;
},
{
anchors = (
{
name = btm;
position = "{562, -200}";
},
{
name = car;
position = "{643, 1029}";
},
{
name = dot;
position = "{731, 776}";
},
{
name = top;
position = "{288, 800}";
}
);
hints = (
{
horizontal = 1;
origin = "{0, 3}";
target = "{0, 3}";
type = Tag;
name = hr00;
}
);
layerId = "C4389747-BECF-4D47-A11A-92B8AD605B66";
paths = (
{
closed = 1;
nodes = (
"955 0 LINE",
"955 187 LINE",
"392 187 LINE",
"392 1340 LINE",
"170 1340 LINE",
"170 0 LINE"
);
}
);
width = 1012;
}
);
leftKerningGroup = H;
rightKerningGroup = L;
unicode = 004C;
userData = {
com.adobe.type.autohint = "ICA8aGludFNldExpc3Q+CiAgICA8aGludHNldCBw";
com.typemytype.robofont.mark = (
0.967,
0.6,
1,
1
);
};
},
{
glyphname = Lslash;
lastChange = "2019-10-26 06:09:29 +0000";
layers = (
{
hints = (
{
horizontal = 1;
origin = "{0, 2}";
type = Tag;
name = hr00;
}
);
layerId = "F1FC1B3B-4EE8-4ECF-8776-11160932002C";
paths = (
{
closed = 1;
nodes = (
"928 0 LINE",
"928 119 LINE",
"328 119 LINE",
"328 566 LINE",
"720 774 LINE",
"720 889 LINE",
"328 681 LINE",
"328 1346 LINE",
"188 1346 LINE",
"188 612 LINE",
"20 526 LINE",
"20 411 LINE",
"188 497 LINE",
"188 0 LINE"
);
}
);
width = 972;
},
{
hints = (
{
horizontal = 1;
origin = "{0, 0}";
target = "{0, 0}";
type = Tag;
name = hr00;
}
);
layerId = "C4389747-BECF-4D47-A11A-92B8AD605B66";
paths = (
{
closed = 1;
nodes = (
"963 0 LINE",
"963 187 LINE",
"400 187 LINE",
"400 568 LINE",
"774 769 LINE",
"774 944 LINE",
"400 742 LINE",
"400 1340 LINE",
"179 1340 LINE",
"179 634 LINE",
"20 550 LINE",
"20 376 LINE",
"179 460 LINE",
"179 0 LINE"
);
}
);
width = 1022;
}
);
leftKerningGroup = H;
rightKerningGroup = L;
unicode = 0141;
userData = {
com.adobe.type.autohint = "ICA8aGludFNldExpc3Q+CiAgICA8aGludHNldCBw";
};
},
{
glyphname = M;
lastChange = "2019-10-26 06:09:29 +0000";
layers = (
{
anchors = (
{
name = bottom;
position = "{730, 0}";
},
{
name = top;
position = "{730, 1346}";
}
);
hints = (
{
horizontal = 1;
origin = "{0, 25}";
type = Tag;
name = hr00;
}
);
layerId = "F1FC1B3B-4EE8-4ECF-8776-11160932002C";
paths = (
{
closed = 1;
nodes = (
"307 0 LINE",
"307 800 LINE",
"307 915 OFFCURVE",
"303 1068 OFFCURVE",
"296 1184 CURVE",
"304 1184 LINE",
"411 886 LINE",
"682 140 LINE",
"774 140 LINE",
"1044 886 LINE",
"1150 1184 LINE",
"1158 1184 LINE",
"1151 1068 OFFCURVE",
"1146 915 OFFCURVE",
"1146 800 CURVE SMOOTH",
"1148 0 LINE",
"1280 0 LINE",
"1267 1346 LINE",
"1100 1346 LINE",
"834 596 LINE",
"735 311 LINE",
"727 311 LINE",
"627 596 LINE",
"358 1346 LINE",
"190 1346 LINE",
"178 0 LINE"
);
}
);
width = 1460;
},
{
anchors = (
{
name = bottom;
position = "{755, 0}";
},
{
name = top;
position = "{755, 1340}";
}
);
hints = (
{
horizontal = 1;
origin = "{0, 0}";
target = "{0, 0}";
type = Tag;
name = hr01;
},
{
horizontal = 1;
origin = "{0, 7}";
target = "{0, 0}";
type = Tag;
name = hr02;
}
);
layerId = "C4389747-BECF-4D47-A11A-92B8AD605B66";
paths = (
{
closed = 1;
nodes = (
"363 0 LINE",
"363 644 LINE SMOOTH",
"363 768 OFFCURVE",
"357 941 OFFCURVE",
"346 1063 CURVE",
"354 1063 LINE",
"461 761 LINE",
"698 128 LINE",
"805 128 LINE",
"1042 761 LINE",
"1150 1063 LINE",
"1158 1063 LINE",
"1147 941 OFFCURVE",
"1139 768 OFFCURVE",
"1139 644 CURVE SMOOTH",
"1141 0 LINE",
"1349 0 LINE",
"1327 1340 LINE",
"1091 1340 LINE",
"850 666 LINE",
"761 407 LINE",
"753 407 LINE",
"663 666 LINE",
"417 1340 LINE",
"180 1340 LINE",
"160 0 LINE"
);
}
);
width = 1510;
}
);
leftKerningGroup = M;
rightKerningGroup = M;
unicode = 004D;
userData = {
com.adobe.type.autohint = "ICA8aGludFNldExpc3Q+CiAgICA8aGludHNldCBw";
com.typemytype.robofont.mark = (
1,
0.6,
0.6,
1
);
};
},
{
glyphname = N;
lastChange = "2019-10-26 06:09:29 +0000";
layers = (
{
anchors = (
{
name = bottom;
position = "{652, 0}";
},
{
name = top;
position = "{652, 1346}";
}
);
hints = (
{
horizontal = 1;
origin = "{0, 19}";
type = Tag;
name = hr01;
},
{
horizontal = 1;
origin = "{0, 4}";
type = Tag;
name = hr02;
},
{
horizontal = 1;
origin = "{0, 14}";
type = Tag;
name = hr03;
}
);
layerId = "F1FC1B3B-4EE8-4ECF-8776-11160932002C";
paths = (
{
closed = 1;
nodes = (
"316 0 LINE",
"316 758 LINE",
"316 895 OFFCURVE",
"306 1030 OFFCURVE",
"298 1163 CURVE",
"307 1163 LINE",
"455 889 LINE",
"974 0 LINE",
"1119 0 LINE",
"1119 1346 LINE",
"987 1346 LINE",
"987 597 LINE",
"987 460 OFFCURVE",
"998 317 OFFCURVE",
"1005 183 CURVE",
"997 183 LINE",
"849 458 LINE",
"328 1346 LINE",
"184 1346 LINE",
"184 0 LINE"
);
}
);
width = 1304;
},
{
anchors = (
{
name = bottom;
position = "{666, 0}";
},
{
name = top;
position = "{666, 1340}";
}
);
hints = (
{
horizontal = 1;
origin = "{0, 0}";
target = "{0, 0}";
type = Tag;
name = hr00;
}
);
layerId = "C4389747-BECF-4D47-A11A-92B8AD605B66";
paths = (
{
closed = 1;
nodes = (
"380 0 LINE",
"380 615 LINE SMOOTH",
"380 763 OFFCURVE",
"363 919 OFFCURVE",
"352 1059 CURVE",
"361 1059 LINE",
"500 777 LINE",
"933 0 LINE",
"1161 0 LINE",
"1161 1340 LINE",
"951 1340 LINE",
"951 731 LINE SMOOTH",
"951 584 OFFCURVE",
"969 418 OFFCURVE",
"979 281 CURVE",
"971 281 LINE",
"831 566 LINE",
"396 1340 LINE",
"170 1340 LINE",
"170 0 LINE"
);
}
);
width = 1332;
}
);
leftKerningGroup = H;
rightKerningGroup = H;
unicode = 004E;
userData = {
com.adobe.type.autohint = "ICA8aGludFNldExpc3Q+CiAgICA8aGludHNldCBw";
com.typemytype.robofont.mark = (
1,
0.6,
0.6,
1
);
};
},
{
glyphname = O;
lastChange = "2019-10-26 06:09:29 +0000";
layers = (
{
anchors = (
{
name = btm;
position = "{668, -300}";
},
{
name = top;
position = "{668, 1590}";
}
);
hints = (
{
horizontal = 1;
origin = "{0, 11}";
type = Tag;
name = hr00;
}
);
layerId = "F1FC1B3B-4EE8-4ECF-8776-11160932002C";
paths = (
{
closed = 1;
nodes = (
"1007 -25 OFFCURVE",
"1235 238 OFFCURVE",
"1235 676 CURVE SMOOTH",
"1235 1112 OFFCURVE",
"1007 1370 OFFCURVE",
"668 1370 CURVE SMOOTH",
"328 1370 OFFCURVE",
"102 1113 OFFCURVE",
"102 676 CURVE SMOOTH",
"102 238 OFFCURVE",
"328 -25 OFFCURVE",
"668 -25 CURVE SMOOTH"
);
},
{
closed = 1;
nodes = (
"407 99 OFFCURVE",
"246 318 OFFCURVE",
"246 676 CURVE SMOOTH",
"246 1033 OFFCURVE",
"407 1247 OFFCURVE",
"668 1247 CURVE SMOOTH",
"927 1247 OFFCURVE",
"1091 1033 OFFCURVE",
"1091 676 CURVE SMOOTH",
"1091 318 OFFCURVE",
"927 99 OFFCURVE",
"668 99 CURVE SMOOTH"
);
}
);
width = 1338;
},
{
anchors = (
{
name = btm;
position = "{683, -200}";
},
{
name = top;
position = "{683, 800}";
}
);
hints = (
{
horizontal = 1;
origin = "{0, 8}";
target = "{0, 8}";
type = Tag;
name = hr00;
}
);
layerId = "C4389747-BECF-4D47-A11A-92B8AD605B66";
paths = (
{
closed = 1;
nodes = (
"1040 -25 OFFCURVE",
"1270 228 OFFCURVE",
"1270 675 CURVE SMOOTH",
"1270 1118 OFFCURVE",
"1040 1365 OFFCURVE",
"683 1365 CURVE SMOOTH",
"326 1365 OFFCURVE",
"97 1120 OFFCURVE",
"97 675 CURVE SMOOTH",
"97 228 OFFCURVE",
"326 -25 OFFCURVE",
"683 -25 CURVE SMOOTH"
);
},
{
closed = 1;
nodes = (
"456 167 OFFCURVE",
"324 355 OFFCURVE",
"324 675 CURVE SMOOTH",
"324 992 OFFCURVE",
"456 1174 OFFCURVE",
"683 1174 CURVE SMOOTH",
"908 1174 OFFCURVE",
"1043 992 OFFCURVE",
"1043 675 CURVE SMOOTH",
"1043 355 OFFCURVE",
"908 167 OFFCURVE",
"683 167 CURVE SMOOTH"
);
}
);
width = 1369;
}
);
leftKerningGroup = O;
rightKerningGroup = O;
unicode = 004F;
userData = {
com.adobe.type.autohint = "ICA8aGludFNldExpc3Q+CiAgICA8aGludHNldCBw";
com.typemytype.robofont.mark = (
1,
0.6,
0.6,
1
);
};
},
{
glyphname = Ohorn;
lastChange = "2019-10-26 06:10:49 +0000";
layers = (
{
anchors = (
{
name = btm;
position = "{669, -300}";
},
{
name = top;
position = "{669, 1590}";
}
);
hints = (
{
horizontal = 1;
origin = "{1, 11}";
type = Tag;
name = hr01;
},
{
horizontal = 1;
origin = "{0, 27}";
type = Tag;
name = hr02;
},
{
horizontal = 1;
origin = "{0, 17}";
type = Tag;
name = hr03;
},
{
horizontal = 1;
origin = "{0, 23}";
type = Tag;
name = hr04;
}
);
layerId = "F1FC1B3B-4EE8-4ECF-8776-11160932002C";
paths = (
{
closed = 1;
nodes = (
"1098 1499 OFFCURVE",
"1109 1473 OFFCURVE",
"1109 1444 CURVE SMOOTH",
"1109 1367 OFFCURVE",
"1053 1325 OFFCURVE",
"931 1305 CURVE",
"855 1348 OFFCURVE",
"767 1370 OFFCURVE",
"670 1370 CURVE SMOOTH",
"337 1370 OFFCURVE",
"102 1107 OFFCURVE",
"102 679 CURVE SMOOTH",
"102 248 OFFCURVE",
"337 -25 OFFCURVE",
"670 -25 CURVE SMOOTH",
"1001 -25 OFFCURVE",
"1236 248 OFFCURVE",
"1236 679 CURVE SMOOTH",
"1236 931 OFFCURVE",
"1153 1126 OFFCURVE",
"1019 1244 CURVE",
"1145 1274 OFFCURVE",
"1224 1339 OFFCURVE",
"1224 1452 CURVE SMOOTH",
"1224 1499 OFFCURVE",
"1207 1540 OFFCURVE",
"1181 1577 CURVE",
"1080 1526 LINE"
);
},
{
closed = 1;
nodes = (
"415 99 OFFCURVE",
"246 327 OFFCURVE",
"246 679 CURVE SMOOTH",
"246 1029 OFFCURVE",
"415 1247 OFFCURVE",
"670 1247 CURVE SMOOTH",
"923 1247 OFFCURVE",
"1091 1029 OFFCURVE",
"1091 679 CURVE SMOOTH",
"1091 327 OFFCURVE",
"923 99 OFFCURVE",
"670 99 CURVE SMOOTH"
);
}
);
width = 1338;
},
{
anchors = (
{
name = btm;
position = "{689, -200}";
},
{
name = top;
position = "{689, 800}";
}
);
hints = (
{
horizontal = 1;
origin = "{0, 15}";
target = "{0, 15}";
type = Tag;
name = hr01;
},
{
horizontal = 1;
origin = "{0, 6}";
target = "{0, 15}";
type = Tag;
name = hr02;
},
{
horizontal = 1;
origin = "{0, 12}";
target = "{0, 15}";
type = Tag;
name = hr03;
},
{
horizontal = 1;
origin = "{1, 0}";
target = "{0, 15}";
type = Tag;
name = hr04;
}
);
layerId = "C4389747-BECF-4D47-A11A-92B8AD605B66";
paths = (
{
closed = 1;
nodes = (
"1094 1495 OFFCURVE",
"1107 1465 OFFCURVE",
"1107 1433 CURVE SMOOTH",
"1107 1357 OFFCURVE",
"1058 1320 OFFCURVE",
"958 1300 CURVE",
"878 1343 OFFCURVE",
"786 1365 OFFCURVE",
"684 1365 CURVE SMOOTH",
"339 1365 OFFCURVE",
"97 1109 OFFCURVE",
"97 676 CURVE SMOOTH",
"97 243 OFFCURVE",
"339 -25 OFFCURVE",
"684 -25 CURVE SMOOTH",
"1030 -25 OFFCURVE",
"1270 243 OFFCURVE",
"1270 676 CURVE SMOOTH",
"1270 916 OFFCURVE",
"1195 1101 OFFCURVE",
"1070 1220 CURVE",
"1199 1253 OFFCURVE",
"1282 1324 OFFCURVE",
"1282 1447 CURVE SMOOTH",
"1282 1504 OFFCURVE",
"1259 1555 OFFCURVE",
"1231 1592 CURVE",
"1077 1521 LINE"
);
},
{
closed = 1;
nodes = (
"466 167 OFFCURVE",
"324 366 OFFCURVE",
"324 676 CURVE SMOOTH",
"324 985 OFFCURVE",
"466 1174 OFFCURVE",
"684 1174 CURVE SMOOTH",
"902 1174 OFFCURVE",
"1043 985 OFFCURVE",
"1043 676 CURVE SMOOTH",
"1043 366 OFFCURVE",
"902 167 OFFCURVE",
"684 167 CURVE SMOOTH"
);
}
);
width = 1369;
}
);
leftKerningGroup = O;
rightKerningGroup = O;
unicode = 01A0;
userData = {
com.adobe.type.autohint = "ICA8aGludFNldExpc3Q+CiAgICA8aGludHNldCBw";
};
},
{
glyphname = Oogonek;
lastChange = "2019-10-26 06:10:49 +0000";
layers = (
{
hints = (
{
horizontal = 1;
origin = "{0, 23}";
type = Tag;
name = hr00;
}
);
layerId = "F1FC1B3B-4EE8-4ECF-8776-11160932002C";
paths = (
{
closed = 1;
nodes = (
"815 -317 OFFCURVE",
"789 -326 OFFCURVE",
"755 -326 CURVE SMOOTH",
"706 -326 OFFCURVE",
"656 -294 OFFCURVE",
"656 -227 CURVE SMOOTH",
"656 -156 OFFCURVE",
"706 -65 OFFCURVE",
"819 -15 CURVE SMOOTH",
"1087 108 OFFCURVE",
"1236 314 OFFCURVE",
"1236 679 CURVE SMOOTH",
"1236 1106 OFFCURVE",
"1001 1370 OFFCURVE",
"670 1370 CURVE SMOOTH",
"337 1370 OFFCURVE",
"102 1107 OFFCURVE",
"102 679 CURVE SMOOTH",
"102 257 OFFCURVE",
"322 -19 OFFCURVE",
"670 -24 CURVE",
"594 -84 OFFCURVE",
"545 -168 OFFCURVE",
"545 -254 CURVE SMOOTH",
"545 -370 OFFCURVE",
"628 -428 OFFCURVE",
"731 -428 CURVE SMOOTH",
"781 -428 OFFCURVE",
"845 -403 OFFCURVE",
"881 -375 CURVE",
"841 -297 LINE"
);
},
{
closed = 1;
nodes = (
"415 99 OFFCURVE",
"246 327 OFFCURVE",
"246 679 CURVE SMOOTH",
"246 1029 OFFCURVE",
"415 1247 OFFCURVE",
"670 1247 CURVE SMOOTH",
"923 1247 OFFCURVE",
"1091 1029 OFFCURVE",
"1091 679 CURVE SMOOTH",
"1091 327 OFFCURVE",
"923 99 OFFCURVE",
"670 99 CURVE SMOOTH"
);
}
);
width = 1338;
},
{
hints = (
{
horizontal = 1;
origin = "{0, 27}";
target = "{0, 27}";
type = Tag;
name = hr00;
}
);
layerId = "C4389747-BECF-4D47-A11A-92B8AD605B66";
paths = (
{
closed = 1;
nodes = (
"846 -282 OFFCURVE",
"820 -294 OFFCURVE",
"789 -294 CURVE SMOOTH",
"744 -294 OFFCURVE",
"697 -266 OFFCURVE",
"697 -206 CURVE SMOOTH",
"697 -141 OFFCURVE",
"744 -60 OFFCURVE",
"850 -12 CURVE SMOOTH",
"1116 110 OFFCURVE",
"1270 306 OFFCURVE",
"1270 676 CURVE SMOOTH",
"1270 1107 OFFCURVE",
"1030 1365 OFFCURVE",
"684 1365 CURVE SMOOTH",
"339 1365 OFFCURVE",
"97 1109 OFFCURVE",
"97 676 CURVE SMOOTH",
"97 260 OFFCURVE",
"314 -7 OFFCURVE",
"659 -22 CURVE",
"589 -79 OFFCURVE",
"530 -163 OFFCURVE",
"530 -259 CURVE SMOOTH",
"530 -378 OFFCURVE",
"625 -443 OFFCURVE",
"741 -443 CURVE SMOOTH",
"801 -443 OFFCURVE",
"879 -415 OFFCURVE",
"923 -380 CURVE",
"869 -265 LINE"
);
},
{
closed = 1;
nodes = (
"466 167 OFFCURVE",
"324 366 OFFCURVE",
"324 676 CURVE SMOOTH",
"324 985 OFFCURVE",
"466 1174 OFFCURVE",
"684 1174 CURVE SMOOTH",
"902 1174 OFFCURVE",
"1043 985 OFFCURVE",
"1043 676 CURVE SMOOTH",
"1043 366 OFFCURVE",
"902 167 OFFCURVE",
"684 167 CURVE SMOOTH"
);
}
);
width = 1369;
}
);
leftKerningGroup = Oogonek;
rightKerningGroup = Oogonek;
unicode = 01EA;
userData = {
com.adobe.type.autohint = "ICA8aGludFNldExpc3Q+CiAgICA8aGludHNldCBw";
};
},
{
glyphname = Oslash;
lastChange = "2019-10-26 06:10:49 +0000";
layers = (
{
anchors = (
{
name = bottom;
position = "{669, 0}";
},
{
name = top;
position = "{669, 1346}";
}
);
hints = (
{
horizontal = 1;
origin = "{1, 9}";
type = Tag;
name = hr00;
}
);
layerId = "F1FC1B3B-4EE8-4ECF-8776-11160932002C";
paths = (
{
closed = 1;
nodes = (
"310 113 LINE",
"406 24 OFFCURVE",
"529 -25 OFFCURVE",
"670 -25 CURVE SMOOTH",
"1001 -25 OFFCURVE",
"1236 248 OFFCURVE",
"1236 679 CURVE SMOOTH",
"1236 875 OFFCURVE",
"1186 1037 OFFCURVE",
"1100 1155 CURVE",
"1242 1341 LINE",
"1161 1402 LINE",
"1033 1232 LINE",
"937 1321 OFFCURVE",
"812 1370 OFFCURVE",
"670 1370 CURVE SMOOTH",
"337 1370 OFFCURVE",
"102 1107 OFFCURVE",
"102 679 CURVE SMOOTH",
"102 478 OFFCURVE",
"153 312 OFFCURVE",
"241 192 CURVE",
"100 6 LINE",
"182 -55 LINE"
);
},
{
closed = 1;
nodes = (
"1063 945 OFFCURVE",
"1091 823 OFFCURVE",
"1091 679 CURVE SMOOTH",
"1091 327 OFFCURVE",
"923 99 OFFCURVE",
"670 99 CURVE SMOOTH",
"558 99 OFFCURVE",
"462 143 OFFCURVE",
"392 221 CURVE",
"1011 1038 LINE"
);
},
{
closed = 1;
nodes = (
"276 404 OFFCURVE",
"246 531 OFFCURVE",
"246 679 CURVE SMOOTH",
"246 1029 OFFCURVE",
"415 1247 OFFCURVE",
"670 1247 CURVE SMOOTH",
"782 1247 OFFCURVE",
"879 1204 OFFCURVE",
"951 1124 CURVE",
"330 308 LINE"
);
}
);
width = 1338;
},
{
anchors = (
{
name = bottom;
position = "{685, 0}";
},
{
name = top;
position = "{685, 1340}";
}
);
hints = (
{
horizontal = 1;
origin = "{0, 0}";
target = "{0, 0}";
type = Tag;
name = hr00;
}
);
layerId = "C4389747-BECF-4D47-A11A-92B8AD605B66";
paths = (
{
closed = 1;
nodes = (
"335 92 LINE",
"432 15 OFFCURVE",
"549 -25 OFFCURVE",
"684 -25 CURVE SMOOTH",
"1030 -25 OFFCURVE",
"1270 243 OFFCURVE",
"1270 676 CURVE SMOOTH",
"1270 862 OFFCURVE",
"1226 1015 OFFCURVE",
"1147 1129 CURVE",
"1297 1320 LINE",
"1177 1410 LINE",
"1046 1241 LINE",
"949 1322 OFFCURVE",
"825 1365 OFFCURVE",
"684 1365 CURVE SMOOTH",
"339 1365 OFFCURVE",
"97 1109 OFFCURVE",
"97 676 CURVE SMOOTH",
"97 481 OFFCURVE",
"146 320 OFFCURVE",
"232 202 CURVE",
"90 21 LINE",
"210 -70 LINE"
);
},
{
closed = 1;
nodes = (
"1027 867 OFFCURVE",
"1043 778 OFFCURVE",
"1043 676 CURVE SMOOTH",
"1043 366 OFFCURVE",
"902 167 OFFCURVE",
"684 167 CURVE SMOOTH",
"597 167 OFFCURVE",
"523 199 OFFCURVE",
"465 255 CURVE",
"997 939 LINE"
);
},
{
closed = 1;
nodes = (
"343 466 OFFCURVE",
"324 564 OFFCURVE",
"324 676 CURVE SMOOTH",
"324 985 OFFCURVE",
"466 1174 OFFCURVE",
"684 1174 CURVE SMOOTH",
"776 1174 OFFCURVE",
"855 1140 OFFCURVE",
"915 1076 CURVE",
"379 388 LINE"
);
}
);
width = 1369;
}
);
leftKerningGroup = O;
rightKerningGroup = O;
unicode = 00D8;
userData = {
com.adobe.type.autohint = "ICA8aGludFNldExpc3Q+CiAgICA8aGludHNldCBw";
};
},
{
glyphname = OE;
lastChange = "2019-10-26 06:10:49 +0000";
layers = (
{
anchors = (
{
name = top;
position = "{856, 1346}";
}
);
hints = (
{
horizontal = 1;
origin = "{0, 12}";
type = Tag;
name = hr01;
},
{
horizontal = 1;
origin = "{1, 2}";
type = Tag;
name = hr02;
}
);
layerId = "F1FC1B3B-4EE8-4ECF-8776-11160932002C";
paths = (
{
closed = 1;
nodes = (
"1619 119 LINE",
"1014 119 LINE",
"1014 651 LINE",
"1501 651 LINE",
"1501 770 LINE",
"1014 770 LINE",
"1014 1228 LINE",
"1599 1228 LINE",
"1599 1346 LINE",
"753 1346 LINE",
"333 1346 OFFCURVE",
"102 1097 OFFCURVE",
"102 679 CURVE SMOOTH",
"102 258 OFFCURVE",
"333 0 OFFCURVE",
"747 0 CURVE SMOOTH",
"1619 0 LINE"
);
},
{
closed = 1;
nodes = (
"419 115 OFFCURVE",
"246 333 OFFCURVE",
"246 679 CURVE SMOOTH",
"246 1024 OFFCURVE",
"419 1231 OFFCURVE",
"764 1231 CURVE SMOOTH",
"874 1231 LINE",
"874 115 LINE",
"764 115 LINE"
);
}
);
width = 1711;
},
{
anchors = (
{
name = top;
position = "{873, 1340}";
}
);
hints = (
{
horizontal = 1;
origin = "{0, 16}";
target = "{0, 16}";
type = Tag;
name = hr01;
},
{
horizontal = 1;
origin = "{1, 0}";
target = "{0, 16}";
type = Tag;
name = hr02;
}
);
layerId = "C4389747-BECF-4D47-A11A-92B8AD605B66";
paths = (
{
closed = 1;
nodes = (
"1647 187 LINE",
"1081 187 LINE",
"1081 606 LINE",
"1539 606 LINE",
"1539 791 LINE",
"1081 791 LINE",
"1081 1155 LINE",
"1627 1155 LINE",
"1627 1340 LINE",
"766 1340 LINE SMOOTH",
"358 1340 OFFCURVE",
"97 1115 OFFCURVE",
"97 676 CURVE SMOOTH",
"97 237 OFFCURVE",
"358 0 OFFCURVE",
"755 0 CURVE SMOOTH",
"1647 0 LINE"
);
},
{
closed = 1;
nodes = (
"491 179 OFFCURVE",
"324 341 OFFCURVE",
"324 676 CURVE SMOOTH",
"324 1009 OFFCURVE",
"491 1161 OFFCURVE",
"780 1161 CURVE SMOOTH",
"860 1161 LINE",
"860 179 LINE",
"780 179 LINE SMOOTH"
);
}
);
width = 1745;
}
);
leftKerningGroup = O;
rightKerningGroup = E;
unicode = 0152;
userData = {
com.adobe.type.autohint = "ICA8aGludFNldExpc3Q+CiAgICA8aGludHNldCBw";
com.typemytype.robofont.mark = (
1,
0.6,
0.6,
1
);
};
},
{
glyphname = P;
lastChange = "2019-10-26 06:09:29 +0000";
layers = (
{
anchors = (
{
name = bottom;
position = "{576, 0}";
},
{
name = top;
position = "{576, 1346}";
}
);
hints = (
{
horizontal = 1;
origin = "{0, 10}";
type = Tag;
name = hr00;
}
);
layerId = "F1FC1B3B-4EE8-4ECF-8776-11160932002C";
paths = (
{
closed = 1;
nodes = (
"324 0 LINE",
"324 540 LINE",
"587 540 LINE",
"888 540 OFFCURVE",
"1068 679 OFFCURVE",
"1068 954 CURVE SMOOTH",
"1068 1242 OFFCURVE",
"890 1346 OFFCURVE",
"585 1346 CURVE SMOOTH",
"184 1346 LINE",
"184 0 LINE"
);
},
{
closed = 1;
nodes = (
"324 1232 LINE",
"562 1232 LINE",
"817 1232 OFFCURVE",
"929 1162 OFFCURVE",
"929 954 CURVE SMOOTH",
"929 751 OFFCURVE",
"822 655 OFFCURVE",
"564 655 CURVE SMOOTH",
"324 655 LINE"
);
}
);
width = 1152;
},
{
anchors = (
{
name = bottom;
position = "{598, 0}";
},
{
name = top;
position = "{598, 1340}";
}
);
hints = (
{
horizontal = 1;
origin = "{0, 0}";
target = "{0, 0}";
type = Tag;
name = hr00;
}
);
layerId = "C4389747-BECF-4D47-A11A-92B8AD605B66";
paths = (
{
closed = 1;
nodes = (
"392 0 LINE",
"392 485 LINE",
"623 485 LINE SMOOTH",
"920 485 OFFCURVE",
"1117 632 OFFCURVE",
"1117 925 CURVE SMOOTH",
"1117 1232 OFFCURVE",
"928 1340 OFFCURVE",
"621 1340 CURVE",
"170 1340 LINE",
"170 0 LINE"
);
},
{
closed = 1;
nodes = (
"392 1164 LINE",
"604 1164 LINE SMOOTH",
"815 1164 OFFCURVE",
"900 1099 OFFCURVE",
"900 925 CURVE SMOOTH",
"900 755 OFFCURVE",
"818 663 OFFCURVE",
"602 663 CURVE",
"392 663 LINE"
);
}
);
width = 1196;
}
);
leftKerningGroup = H;
rightKerningGroup = P;
unicode = 0050;
userData = {
com.adobe.type.autohint = "ICA8aGludFNldExpc3Q+CiAgICA8aGludHNldCBw";
com.typemytype.robofont.mark = (
1,
0.6,
0.6,
1
);
};
},
{
glyphname = Thorn;
lastChange = "2019-10-26 06:09:29 +0000";
layers = (
{
anchors = (
{
name = btm;
position = "{628, -300}";
},
{
name = top;
position = "{628, 1590}";
}
);
hints = (
{
horizontal = 1;
origin = "{0, 12}";
type = Tag;
name = hr00;
}
);
layerId = "F1FC1B3B-4EE8-4ECF-8776-11160932002C";
paths = (
{
closed = 1;
nodes = (
"325 0 LINE",
"325 321 LINE",
"580 321 LINE",
"878 321 OFFCURVE",
"1070 451 OFFCURVE",
"1070 727 CURVE SMOOTH",
"1070 1014 OFFCURVE",
"879 1115 OFFCURVE",
"580 1115 CURVE SMOOTH",
"325 1115 LINE",
"325 1346 LINE",
"187 1346 LINE",
"187 0 LINE"
);
},
{
closed = 1;
nodes = (
"325 1000 LINE",
"558 1000 LINE",
"808 1000 OFFCURVE",
"930 933 OFFCURVE",
"930 727 CURVE SMOOTH",
"930 523 OFFCURVE",
"809 435 OFFCURVE",
"558 435 CURVE SMOOTH",
"325 435 LINE"
);
}
);
width = 1176;
},
{
anchors = (
{
name = btm;
position = "{648, -200}";
},
{
name = top;
position = "{648, 800}";
}
);
hints = (
{
horizontal = 1;
origin = "{0, 0}";
target = "{0, 0}";
type = Tag;
name = hr00;
}
);
layerId = "C4389747-BECF-4D47-A11A-92B8AD605B66";
paths = (
{
closed = 1;
nodes = (
"395 0 LINE",
"395 286 LINE",
"615 286 LINE SMOOTH",
"906 286 OFFCURVE",
"1122 419 OFFCURVE",
"1122 716 CURVE SMOOTH",
"1122 1021 OFFCURVE",
"910 1124 OFFCURVE",
"615 1124 CURVE SMOOTH",
"395 1124 LINE",
"395 1340 LINE",
"175 1340 LINE",
"175 0 LINE"
);
},
{
closed = 1;
nodes = (
"395 946 LINE",
"596 946 LINE SMOOTH",
"800 946 OFFCURVE",
"904 888 OFFCURVE",
"904 716 CURVE SMOOTH",
"904 543 OFFCURVE",
"804 464 OFFCURVE",
"596 464 CURVE",
"395 464 LINE"
);
}
);
width = 1223;
}
);
leftKerningGroup = H;
rightKerningGroup = Thorn;
unicode = 00DE;
userData = {
com.adobe.type.autohint = "ICA8aGludFNldExpc3Q+CiAgICA8aGludHNldCBw";
com.typemytype.robofont.mark = (
1,
0.6,
0.6,
1
);
};
},
{
glyphname = Q;
lastChange = "2019-10-26 06:10:49 +0000";
layers = (
{
anchors = (
{
name = bottom;
position = "{669, 0}";
},
{
name = top;
position = "{669, 1346}";
}
);
hints = (
{
horizontal = 1;
origin = "{1, 2}";
type = Tag;
name = hr01;
}
);
layerId = "F1FC1B3B-4EE8-4ECF-8776-11160932002C";
paths = (
{
closed = 1;
nodes = (
"1189 -199 OFFCURVE",
"1140 -209 OFFCURVE",
"1080 -209 CURVE SMOOTH",
"925 -209 OFFCURVE",
"797 -144 OFFCURVE",
"747 -19 CURVE",
"1038 22 OFFCURVE",
"1235 278 OFFCURVE",
"1235 679 CURVE SMOOTH",
"1235 1112 OFFCURVE",
"1006 1370 OFFCURVE",
"666 1370 CURVE SMOOTH",
"327 1370 OFFCURVE",
"100 1114 OFFCURVE",
"100 679 CURVE SMOOTH",
"100 274 OFFCURVE",
"302 16 OFFCURVE",
"595 -20 CURVE",
"663 -199 OFFCURVE",
"826 -328 OFFCURVE",
"1066 -328 CURVE SMOOTH",
"1140 -328 OFFCURVE",
"1215 -313 OFFCURVE",
"1253 -301 CURVE",
"1225 -189 LINE"
);
},
{
closed = 1;
nodes = (
"407 99 OFFCURVE",
"245 322 OFFCURVE",
"245 679 CURVE SMOOTH",
"245 1034 OFFCURVE",
"407 1247 OFFCURVE",
"666 1247 CURVE SMOOTH",
"925 1247 OFFCURVE",
"1088 1034 OFFCURVE",
"1088 679 CURVE SMOOTH",
"1088 322 OFFCURVE",
"925 99 OFFCURVE",
"666 99 CURVE SMOOTH"
);
}
);
width = 1338;
},
{
anchors = (
{
name = bottom;
position = "{685, 0}";
},
{
name = top;
position = "{685, 1340}";
}
);
hints = (
{
horizontal = 1;
origin = "{0, 21}";
target = "{0, 21}";
type = Tag;
name = hr00;
}
);
layerId = "C4389747-BECF-4D47-A11A-92B8AD605B66";
paths = (
{
closed = 1;
nodes = (
"1233 -156 OFFCURVE",
"1177 -167 OFFCURVE",
"1118 -167 CURVE SMOOTH",
"985 -167 OFFCURVE",
"851 -119 OFFCURVE",
"811 -10 CURVE",
"1086 49 OFFCURVE",
"1266 289 OFFCURVE",
"1266 676 CURVE SMOOTH",
"1266 1117 OFFCURVE",
"1036 1365 OFFCURVE",
"679 1365 CURVE SMOOTH",
"323 1365 OFFCURVE",
"93 1119 OFFCURVE",
"93 676 CURVE SMOOTH",
"93 278 OFFCURVE",
"285 33 OFFCURVE",
"575 -15 CURVE",
"644 -214 OFFCURVE",
"832 -347 OFFCURVE",
"1093 -347 CURVE SMOOTH",
"1182 -347 OFFCURVE",
"1267 -329 OFFCURVE",
"1311 -311 CURVE",
"1270 -145 LINE"
);
},
{
closed = 1;
nodes = (
"455 167 OFFCURVE",
"320 358 OFFCURVE",
"320 676 CURVE SMOOTH",
"320 992 OFFCURVE",
"455 1174 OFFCURVE",
"679 1174 CURVE SMOOTH",
"903 1174 OFFCURVE",
"1038 992 OFFCURVE",
"1038 676 CURVE SMOOTH",
"1038 358 OFFCURVE",
"903 167 OFFCURVE",
"679 167 CURVE SMOOTH"
);
}
);
width = 1369;
}
);
leftKerningGroup = O;
rightKerningGroup = O;
unicode = 0051;
userData = {
com.adobe.type.autohint = "ICA8aGludFNldExpc3Q+CiAgICA8aGludHNldCBw";
com.typemytype.robofont.mark = (
1,
0.6,
0.6,
1
);
};
},
{
glyphname = R;
lastChange = "2019-10-26 06:09:29 +0000";
layers = (
{
anchors = (
{
name = bottom;
position = "{581, 0}";
},
{
name = top;
position = "{581, 1346}";
}
);
hints = (
{
horizontal = 1;
origin = "{1, 0}";
type = Tag;
name = hr00;
}
);
layerId = "F1FC1B3B-4EE8-4ECF-8776-11160932002C";
paths = (
{
closed = 1;
nodes = (
"324 0 LINE",
"324 589 LINE",
"590 589 LINE",
"924 0 LINE",
"1084 0 LINE",
"736 603 LINE",
"930 642 OFFCURVE",
"1050 756 OFFCURVE",
"1050 979 CURVE SMOOTH",
"1050 1255 OFFCURVE",
"870 1346 OFFCURVE",
"600 1346 CURVE SMOOTH",
"184 1346 LINE",
"184 0 LINE"
);
},
{
closed = 1;
nodes = (
"324 1232 LINE",
"575 1232 LINE",
"797 1232 OFFCURVE",
"909 1172 OFFCURVE",
"909 979 CURVE SMOOTH",
"909 784 OFFCURVE",
"797 703 OFFCURVE",
"575 703 CURVE SMOOTH",
"324 703 LINE"
);
}
);
width = 1161;
},
{
anchors = (
{
name = bottom;
position = "{606, 0}";
},
{
name = top;
position = "{606, 1340}";
}
);
hints = (
{
horizontal = 1;
origin = "{0, 0}";
target = "{0, 0}";
type = Tag;
name = hr00;
}
);
layerId = "C4389747-BECF-4D47-A11A-92B8AD605B66";
paths = (
{
closed = 1;
nodes = (
"392 0 LINE",
"392 534 LINE",
"613 534 LINE",
"901 0 LINE",
"1151 0 LINE",
"834 567 LINE",
"1000 620 OFFCURVE",
"1101 736 OFFCURVE",
"1101 952 CURVE SMOOTH",
"1101 1252 OFFCURVE",
"906 1340 OFFCURVE",
"630 1340 CURVE SMOOTH",
"170 1340 LINE",
"170 0 LINE"
);
},
{
closed = 1;
nodes = (
"392 1164 LINE",
"605 1164 LINE SMOOTH",
"794 1164 OFFCURVE",
"883 1117 OFFCURVE",
"883 952 CURVE SMOOTH",
"883 782 OFFCURVE",
"791 712 OFFCURVE",
"601 712 CURVE",
"392 712 LINE"
);
}
);
width = 1211;
}
);
leftKerningGroup = H;
rightKerningGroup = R;
unicode = 0052;
userData = {
com.adobe.type.autohint = "ICA8aGludFNldExpc3Q+CiAgICA8aGludHNldCBw";
com.typemytype.robofont.mark = (
1,
0.6,
0.6,
1
);
};
},
{
glyphname = S;
lastChange = "2019-10-26 06:10:49 +0000";
layers = (
{
anchors = (
{
name = bottom;
position = "{536, 0}";
},
{
name = top;
position = "{536, 1346}";
}
);
hints = (
{
horizontal = 1;
origin = "{0, 29}";
type = Tag;
name = hr00;
}
);
layerId = "F1FC1B3B-4EE8-4ECF-8776-11160932002C";
paths = (
{
closed = 1;
nodes = (
"412 839 OFFCURVE",
"289 898 OFFCURVE",
"289 1038 CURVE SMOOTH",
"289 1170 OFFCURVE",
"400 1247 OFFCURVE",
"562 1247 CURVE SMOOTH",
"690 1247 OFFCURVE",
"791 1201 OFFCURVE",
"871 1121 CURVE",
"947 1212 LINE",
"858 1306 OFFCURVE",
"723 1370 OFFCURVE",
"562 1370 CURVE SMOOTH",
"327 1370 OFFCURVE",
"149 1231 OFFCURVE",
"149 1030 CURVE SMOOTH",
"149 832 OFFCURVE",
"297 735 OFFCURVE",
"419 683 CURVE SMOOTH",
"616 595 LINE",
"746 537 OFFCURVE",
"854 487 OFFCURVE",
"854 337 CURVE SMOOTH",
"854 194 OFFCURVE",
"739 99 OFFCURVE",
"551 99 CURVE SMOOTH",
"403 99 OFFCURVE",
"269 162 OFFCURVE",
"171 267 CURVE",
"87 170 LINE",
"200 50 OFFCURVE",
"355 -25 OFFCURVE",
"548 -25 CURVE SMOOTH",
"822 -25 OFFCURVE",
"996 137 OFFCURVE",
"996 348 CURVE SMOOTH",
"996 550 OFFCURVE",
"865 641 OFFCURVE",
"711 708 CURVE SMOOTH",
"514 794 LINE"
);
}
);
width = 1071;
},
{
anchors = (
{
name = bottom;
position = "{552, 0}";
},
{
name = top;
position = "{552, 1340}";
}
);
hints = (
{
horizontal = 1;
origin = "{0, 33}";
target = "{0, 33}";
type = Tag;
name = hr00;
}
);
layerId = "C4389747-BECF-4D47-A11A-92B8AD605B66";
paths = (
{
closed = 1;
nodes = (
"462 853 OFFCURVE",
"357 904 OFFCURVE",
"357 1015 CURVE SMOOTH",
"357 1119 OFFCURVE",
"445 1174 OFFCURVE",
"578 1174 CURVE SMOOTH",
"697 1174 OFFCURVE",
"789 1135 OFFCURVE",
"873 1062 CURVE",
"987 1202 LINE",
"884 1307 OFFCURVE",
"739 1365 OFFCURVE",
"580 1365 CURVE SMOOTH",
"321 1365 OFFCURVE",
"134 1212 OFFCURVE",
"134 1001 CURVE SMOOTH",
"134 804 OFFCURVE",
"273 694 OFFCURVE",
"404 640 CURVE",
"588 560 LINE",
"711 505 OFFCURVE",
"806 467 OFFCURVE",
"806 350 CURVE SMOOTH",
"806 239 OFFCURVE",
"721 167 OFFCURVE",
"560 167 CURVE SMOOTH",
"429 167 OFFCURVE",
"305 223 OFFCURVE",
"209 316 CURVE",
"80 163 LINE",
"205 40 OFFCURVE",
"371 -25 OFFCURVE",
"556 -25 CURVE SMOOTH",
"855 -25 OFFCURVE",
"1032 152 OFFCURVE",
"1032 368 CURVE SMOOTH",
"1032 563 OFFCURVE",
"913 663 OFFCURVE",
"755 730 CURVE SMOOTH",
"571 807 LINE SMOOTH"
);
}
);
width = 1103;
}
);
leftKerningGroup = S;
rightKerningGroup = S;
unicode = 0053;
userData = {
com.adobe.type.autohint = "ICA8aGludFNldExpc3Q+CiAgICA8aGludHNldCBw";
com.typemytype.robofont.mark = (
1,
0.6,
0.6,
1
);
};
},
{
glyphname = Germandbls;
lastChange = "2019-10-26 06:10:49 +0000";
layers = (
{
anchors = (
{
name = btm;
position = "{719, -300}";
},
{
name = top;
position = "{719, 1590}";
}
);
hints = (
{
horizontal = 1;
origin = "{0, 6}";
type = Tag;
name = hr01;
},
{
horizontal = 1;
origin = "{0, 22}";
type = Tag;
name = hr02;
}
);
layerId = "F1FC1B3B-4EE8-4ECF-8776-11160932002C";
paths = (
{
closed = 1;
nodes = (
"1051 1251 OFFCURVE",
"917 1370 OFFCURVE",
"698 1370 CURVE SMOOTH",
"354 1370 OFFCURVE",
"187 1149 OFFCURVE",
"187 858 CURVE SMOOTH",
"187 0 LINE",
"325 0 LINE",
"325 829 LINE",
"325 1121 OFFCURVE",
"466 1253 OFFCURVE",
"693 1253 CURVE SMOOTH",
"837 1253 OFFCURVE",
"929 1173 OFFCURVE",
"977 1074 CURVE",
"683 746 LINE",
"692 652 LINE",
"1027 597 OFFCURVE",
"1106 484 OFFCURVE",
"1106 346 CURVE SMOOTH",
"1106 200 OFFCURVE",
"1015 94 OFFCURVE",
"858 94 CURVE SMOOTH",
"751 94 OFFCURVE",
"665 135 OFFCURVE",
"583 226 CURVE",
"501 133 LINE",
"585 37 OFFCURVE",
"717 -25 OFFCURVE",
"868 -25 CURVE SMOOTH",
"1095 -25 OFFCURVE",
"1251 135 OFFCURVE",
"1251 347 CURVE SMOOTH",
"1251 540 OFFCURVE",
"1135 686 OFFCURVE",
"830 742 CURVE",
"1128 1069 LINE"
);
}
);
width = 1335;
},
{
anchors = (
{
name = btm;
position = "{740, -200}";
},
{
name = top;
position = "{740, 800}";
}
);
hints = (
{
horizontal = 1;
origin = "{0, 30}";
target = "{0, 30}";
type = Tag;
name = hr01;
},
{
horizontal = 1;
origin = "{0, 31}";
target = "{0, 30}";
type = Tag;
name = hr02;
},
{
horizontal = 1;
origin = "{0, 10}";
target = "{0, 30}";
type = Tag;
name = hr03;
}
);
layerId = "C4389747-BECF-4D47-A11A-92B8AD605B66";
paths = (
{
closed = 1;
nodes = (
"1118 1230 OFFCURVE",
"961 1365 OFFCURVE",
"718 1365 CURVE SMOOTH",
"344 1365 OFFCURVE",
"175 1139 OFFCURVE",
"175 848 CURVE",
"175 0 LINE",
"395 0 LINE",
"395 813 LINE SMOOTH",
"395 1066 OFFCURVE",
"510 1185 OFFCURVE",
"711 1185 CURVE SMOOTH",
"839 1185 OFFCURVE",
"921 1116 OFFCURVE",
"962 1035 CURVE",
"703 743 LINE",
"718 608 LINE",
"998 559 OFFCURVE",
"1080 466 OFFCURVE",
"1080 356 CURVE SMOOTH",
"1080 239 OFFCURVE",
"1006 157 OFFCURVE",
"884 157 CURVE SMOOTH",
"801 157 OFFCURVE",
"726 189 OFFCURVE",
"653 267 CURVE",
"533 128 LINE",
"613 42 OFFCURVE",
"743 -25 OFFCURVE",
"907 -25 CURVE SMOOTH",
"1156 -25 OFFCURVE",
"1306 140 OFFCURVE",
"1306 356 CURVE SMOOTH",
"1306 553 OFFCURVE",
"1180 679 OFFCURVE",
"928 739 CURVE",
"1187 1027 LINE"
);
}
);
width = 1389;
}
);
leftKerningGroup = Germandbls;
rightKerningGroup = Germandbls;
unicode = 1E9E;
userData = {
com.adobe.type.autohint = "ICA8aGludFNldExpc3Q+CiAgICA8aGludHNldCBw";
com.typemytype.robofont.mark = (
1,
0.6,
0.6,
1
);
};
},
{
glyphname = Schwa;
lastChange = "2019-10-26 06:10:49 +0000";
layers = (
{
anchors = (
{
name = bottom;
position = "{672, 0}";
},
{
name = top;
position = "{672, 1346}";
}
);
hints = (
{
horizontal = 1;
origin = "{1, 6}";
type = Tag;
name = hr00;
}
);
layerId = "F1FC1B3B-4EE8-4ECF-8776-11160932002C";
paths = (
{
closed = 1;
nodes = (
"419 1198 OFFCURVE",
"538 1251 OFFCURVE",
"674 1251 CURVE SMOOTH",
"938 1251 OFFCURVE",
"1091 1042 OFFCURVE",
"1100 706 CURVE",
"132 706 LINE",
"130 691 OFFCURVE",
"129 678 OFFCURVE",
"129 667 CURVE SMOOTH",
"129 258 OFFCURVE",
"342 -25 OFFCURVE",
"673 -25 CURVE SMOOTH",
"1006 -25 OFFCURVE",
"1237 248 OFFCURVE",
"1237 677 CURVE SMOOTH",
"1237 1106 OFFCURVE",
"1024 1370 OFFCURVE",
"681 1370 CURVE SMOOTH",
"504 1370 OFFCURVE",
"362 1305 OFFCURVE",
"270 1215 CURVE",
"337 1120 LINE"
);
},
{
closed = 1;
nodes = (
"1073 290 OFFCURVE",
"908 95 OFFCURVE",
"673 95 CURVE SMOOTH",
"447 95 OFFCURVE",
"289 288 OFFCURVE",
"271 597 CURVE",
"1097 597 LINE"
);
}
);
width = 1343;
},
{
anchors = (
{
name = bottom;
position = "{694, 0}";
},
{
name = top;
position = "{694, 1340}";
}
);
hints = (
{
horizontal = 1;
origin = "{0, 13}";
target = "{0, 13}";
type = Tag;
name = hr00;
}
);
layerId = "C4389747-BECF-4D47-A11A-92B8AD605B66";
paths = (
{
closed = 1;
nodes = (
"451 1123 OFFCURVE",
"559 1178 OFFCURVE",
"688 1178 CURVE SMOOTH",
"916 1178 OFFCURVE",
"1049 1015 OFFCURVE",
"1064 734 CURVE",
"141 734 LINE",
"138 709 OFFCURVE",
"136 685 OFFCURVE",
"136 664 CURVE SMOOTH",
"136 243 OFFCURVE",
"362 -25 OFFCURVE",
"702 -25 CURVE SMOOTH",
"1043 -25 OFFCURVE",
"1284 241 OFFCURVE",
"1284 674 CURVE SMOOTH",
"1284 1106 OFFCURVE",
"1055 1365 OFFCURVE",
"710 1365 CURVE SMOOTH",
"518 1365 OFFCURVE",
"374 1298 OFFCURVE",
"275 1204 CURVE",
"375 1053 LINE"
);
},
{
closed = 1;
nodes = (
"1031 314 OFFCURVE",
"892 163 OFFCURVE",
"702 163 CURVE SMOOTH",
"515 163 OFFCURVE",
"380 313 OFFCURVE",
"361 569 CURVE",
"1060 569 LINE"
);
}
);
width = 1387;
}
);
leftKerningGroup = O;
rightKerningGroup = O;
unicode = 018F;
userData = {
com.adobe.type.autohint = "ICA8aGludFNldExpc3Q+CiAgICA8aGludHNldCBw";
com.typemytype.robofont.mark = (
0.656,
1,
0.6,
1
);
};
},
{
glyphname = T;
lastChange = "2019-10-26 06:09:29 +0000";
layers = (
{
anchors = (
{
name = bottom;
position = "{538, 0}";
},
{
name = center;
position = "{538, 673}";
},
{
name = top;
position = "{538, 1346}";
}
);
hints = (
{
horizontal = 1;
origin = "{0, 7}";
type = Tag;
name = hr00;
}
);
layerId = "F1FC1B3B-4EE8-4ECF-8776-11160932002C";
paths = (
{
closed = 1;
nodes = (
"608 0 LINE",
"608 1228 LINE",
"1024 1228 LINE",
"1024 1346 LINE",
"52 1346 LINE",
"52 1228 LINE",
"469 1228 LINE",
"469 0 LINE"
);
}
);
width = 1076;
},
{
anchors = (
{
name = bottom;
position = "{553, 0}";
},
{
name = center;
position = "{553, 670}";
},
{
name = top;
position = "{553, 1340}";
}
);
hints = (
{
horizontal = 1;
origin = "{0, 0}";
target = "{0, 0}";
type = Tag;
name = hr00;
}
);
layerId = "C4389747-BECF-4D47-A11A-92B8AD605B66";
paths = (
{
closed = 1;
nodes = (
"663 0 LINE",
"663 1155 LINE",
"1055 1155 LINE",
"1055 1340 LINE",
"50 1340 LINE",
"50 1155 LINE",
"443 1155 LINE",
"443 0 LINE"
);
}
);
width = 1106;
}
);
leftKerningGroup = T;
rightKerningGroup = T;
unicode = 0054;
userData = {
com.adobe.type.autohint = "ICA8aGludFNldExpc3Q+CiAgICA8aGludHNldCBw";
com.typemytype.robofont.mark = (
1,
0.6,
0.6,
1
);
};
},
{
glyphname = Tbar;
lastChange = "2019-10-26 06:09:29 +0000";
layers = (
{
components = (
{
name = T;
}
);
hints = (
{
horizontal = 1;
origin = "{0, 3}";
target = "{0, 3}";
type = Tag;
name = hr00;
}
);
layerId = "F1FC1B3B-4EE8-4ECF-8776-11160932002C";
paths = (
{
closed = 1;
nodes = (
"836 631 LINE",
"836 742 LINE",
"279 742 LINE",
"279 631 LINE"
);
}
);
width = 1076;
},
{
components = (
{
name = T;
}
);
hints = (
{
horizontal = 1;
origin = "{0, 1}";
target = "{0, 1}";
type = Tag;
name = hr00;
}
);
layerId = "C4389747-BECF-4D47-A11A-92B8AD605B66";
paths = (
{
closed = 1;
nodes = (
"859 486 LINE",
"859 661 LINE",
"236 661 LINE",
"236 486 LINE"
);
}
);
width = 1106;
}
);
leftKerningGroup = T;
rightKerningGroup = T;
unicode = 0166;
userData = {
com.adobe.type.autohint = "ICA8aGludFNldExpc3Q+CiAgICA8aGludHNldCBw";
com.typemytype.robofont.mark = (
1,
0.6,
0.6,
1
);
};
},
{
glyphname = U;
lastChange = "2019-10-26 06:10:49 +0000";
layers = (
{
anchors = (
{
name = bottom;
position = "{650, 0}";
},
{
name = ogonek;
position = "{1170, 10}";
},
{
name = top;
position = "{650, 1346}";
},
{
name = topright;
position = "{1280, 1346}";
}
);
hints = (
{
horizontal = 1;
origin = "{0, 10}";
type = Tag;
name = hr00;
}
);
layerId = "F1FC1B3B-4EE8-4ECF-8776-11160932002C";
paths = (
{
closed = 1;
nodes = (
"989 1346 LINE",
"989 536 LINE",
"989 199 OFFCURVE",
"835 99 OFFCURVE",
"649 99 CURVE SMOOTH",
"469 99 OFFCURVE",
"318 200 OFFCURVE",
"318 536 CURVE SMOOTH",
"318 1346 LINE",
"178 1346 LINE",
"178 534 LINE",
"178 110 OFFCURVE",
"392 -25 OFFCURVE",
"649 -25 CURVE SMOOTH",
"906 -25 OFFCURVE",
"1122 108 OFFCURVE",
"1122 534 CURVE SMOOTH",
"1122 1346 LINE"
);
}
);
width = 1300;
},
{
anchors = (
{
name = bottom;
position = "{665, 0}";
},
{
name = ogonek;
position = "{1196, 10}";
},
{
name = top;
position = "{665, 1340}";
},
{
name = topright;
position = "{1309, 1340}";
}
);
hints = (
{
horizontal = 1;
origin = "{0, 14}";
target = "{0, 14}";
type = Tag;
name = hr00;
}
);
layerId = "C4389747-BECF-4D47-A11A-92B8AD605B66";
paths = (
{
closed = 1;
nodes = (
"954 1340 LINE",
"954 557 LINE SMOOTH",
"954 258 OFFCURVE",
"833 167 OFFCURVE",
"665 167 CURVE SMOOTH",
"500 167 OFFCURVE",
"385 259 OFFCURVE",
"385 557 CURVE SMOOTH",
"385 1340 LINE",
"164 1340 LINE",
"164 571 LINE SMOOTH",
"164 136 OFFCURVE",
"364 -25 OFFCURVE",
"665 -25 CURVE SMOOTH",
"967 -25 OFFCURVE",
"1166 134 OFFCURVE",
"1166 571 CURVE SMOOTH",
"1166 1340 LINE"
);
}
);
width = 1329;
}
);
leftKerningGroup = U;
rightKerningGroup = U;
unicode = 0055;
userData = {
com.adobe.type.autohint = "ICA8aGludFNldExpc3Q+CiAgICA8aGludHNldCBw";
com.typemytype.robofont.mark = (
1,
0.6,
0.6,
1
);
};
},
{
glyphname = Uhorn;
lastChange = "2019-10-26 06:10:49 +0000";
layers = (
{
anchors = (
{
name = btm;
position = "{648, -300}";
},
{
name = top;
position = "{647, 1590}";
}
);
hints = (
{
horizontal = 1;
origin = "{0, 6}";
type = Tag;
name = hr00;
}
);
layerId = "F1FC1B3B-4EE8-4ECF-8776-11160932002C";
paths = (
{
closed = 1;
nodes = (
"1237 1306 OFFCURVE",
"1340 1362 OFFCURVE",
"1340 1493 CURVE SMOOTH",
"1340 1540 OFFCURVE",
"1321 1581 OFFCURVE",
"1295 1618 CURVE",
"1193 1567 LINE",
"1212 1540 OFFCURVE",
"1224 1514 OFFCURVE",
"1224 1485 CURVE SMOOTH",
"1224 1395 OFFCURVE",
"1157 1362 OFFCURVE",
"1042 1346 CURVE",
"989 1346 LINE",
"989 542 LINE",
"989 204 OFFCURVE",
"835 99 OFFCURVE",
"649 99 CURVE SMOOTH",
"469 99 OFFCURVE",
"318 204 OFFCURVE",
"318 542 CURVE SMOOTH",
"318 1346 LINE",
"178 1346 LINE",
"178 540 LINE",
"178 112 OFFCURVE",
"392 -25 OFFCURVE",
"649 -25 CURVE SMOOTH",
"906 -25 OFFCURVE",
"1122 112 OFFCURVE",
"1122 540 CURVE SMOOTH",
"1122 1281 LINE"
);
}
);
width = 1326;
},
{
anchors = (
{
name = btm;
position = "{675, -200}";
},
{
name = top;
position = "{680, 800}";
}
);
hints = (
{
horizontal = 1;
origin = "{0, 27}";
target = "{0, 27}";
type = Tag;
name = hr00;
}
);
layerId = "C4389747-BECF-4D47-A11A-92B8AD605B66";
paths = (
{
closed = 1;
nodes = (
"1295 1279 OFFCURVE",
"1402 1346 OFFCURVE",
"1402 1488 CURVE SMOOTH",
"1402 1545 OFFCURVE",
"1378 1596 OFFCURVE",
"1350 1633 CURVE",
"1196 1562 LINE",
"1213 1536 OFFCURVE",
"1227 1506 OFFCURVE",
"1227 1474 CURVE SMOOTH",
"1227 1375 OFFCURVE",
"1150 1351 OFFCURVE",
"1053 1340 CURVE",
"954 1340 LINE",
"954 565 LINE SMOOTH",
"954 265 OFFCURVE",
"833 167 OFFCURVE",
"665 167 CURVE SMOOTH",
"500 167 OFFCURVE",
"385 265 OFFCURVE",
"385 565 CURVE SMOOTH",
"385 1340 LINE",
"164 1340 LINE",
"164 579 LINE SMOOTH",
"164 141 OFFCURVE",
"364 -25 OFFCURVE",
"665 -25 CURVE SMOOTH",
"967 -25 OFFCURVE",
"1166 141 OFFCURVE",
"1166 579 CURVE SMOOTH",
"1166 1253 LINE"
);
}
);
width = 1360;
}
);
leftKerningGroup = Uhorn;
rightKerningGroup = Uhorn;
unicode = 01AF;
userData = {
com.adobe.type.autohint = "ICA8aGludFNldExpc3Q+CiAgICA8aGludHNldCBw";
com.typemytype.robofont.mark = (
0.798,
0.6,
1,
1
);
};
},
{
glyphname = Uogonek;
lastChange = "2019-10-26 06:10:49 +0000";
layers = (
{
hints = (
{
horizontal = 1;
origin = "{0, 23}";
type = Tag;
name = hr00;
}
);
layerId = "F1FC1B3B-4EE8-4ECF-8776-11160932002C";
paths = (
{
closed = 1;
nodes = (
"791 -317 OFFCURVE",
"766 -326 OFFCURVE",
"732 -326 CURVE SMOOTH",
"682 -326 OFFCURVE",
"631 -294 OFFCURVE",
"631 -227 CURVE SMOOTH",
"631 -158 OFFCURVE",
"691 -68 OFFCURVE",
"798 -15 CURVE SMOOTH",
"982 73 OFFCURVE",
"1122 182 OFFCURVE",
"1122 540 CURVE SMOOTH",
"1122 1346 LINE",
"989 1346 LINE",
"989 542 LINE",
"989 204 OFFCURVE",
"835 99 OFFCURVE",
"649 99 CURVE SMOOTH",
"469 99 OFFCURVE",
"318 204 OFFCURVE",
"318 542 CURVE SMOOTH",
"318 1346 LINE",
"178 1346 LINE",
"178 540 LINE",
"178 127 OFFCURVE",
"377 -20 OFFCURVE",
"652 -24 CURVE",
"597 -79 OFFCURVE",
"521 -144 OFFCURVE",
"521 -254 CURVE SMOOTH",
"521 -370 OFFCURVE",
"605 -428 OFFCURVE",
"706 -428 CURVE SMOOTH",
"757 -428 OFFCURVE",
"822 -403 OFFCURVE",
"858 -375 CURVE",
"816 -297 LINE"
);
}
);
width = 1300;
},
{
hints = (
{
horizontal = 1;
origin = "{0, 33}";
target = "{0, 33}";
type = Tag;
name = hr00;
}
);
layerId = "C4389747-BECF-4D47-A11A-92B8AD605B66";
paths = (
{
closed = 1;
nodes = (
"822 -282 OFFCURVE",
"797 -294 OFFCURVE",
"766 -294 CURVE SMOOTH",
"720 -294 OFFCURVE",
"673 -266 OFFCURVE",
"673 -206 CURVE SMOOTH",
"673 -143 OFFCURVE",
"726 -63 OFFCURVE",
"830 -12 CURVE",
"1043 86 OFFCURVE",
"1166 211 OFFCURVE",
"1166 579 CURVE SMOOTH",
"1166 1340 LINE",
"954 1340 LINE",
"954 565 LINE SMOOTH",
"954 265 OFFCURVE",
"833 167 OFFCURVE",
"665 167 CURVE SMOOTH",
"500 167 OFFCURVE",
"385 265 OFFCURVE",
"385 565 CURVE SMOOTH",
"385 1340 LINE",
"164 1340 LINE",
"164 579 LINE SMOOTH",
"164 163 OFFCURVE",
"346 -11 OFFCURVE",
"639 -22 CURVE",
"594 -66 OFFCURVE",
"508 -141 OFFCURVE",
"508 -259 CURVE SMOOTH",
"508 -378 OFFCURVE",
"602 -443 OFFCURVE",
"718 -443 CURVE SMOOTH",
"779 -443 OFFCURVE",
"857 -415 OFFCURVE",
"901 -380 CURVE",
"845 -265 LINE"
);
}
);
width = 1329;
}
);
leftKerningGroup = U;
rightKerningGroup = U;
unicode = 0172;
userData = {
com.adobe.type.autohint = "ICA8aGludFNldExpc3Q+CiAgICA8aGludHNldCBw";
};
},
{
glyphname = V;
lastChange = "2019-10-26 06:09:29 +0000";
layers = (
{
anchors = (
{
name = bottom;
position = "{511, 0}";
},
{
name = top;
position = "{511, 1346}";
}
);
hints = (
{
horizontal = 1;
origin = "{0, 13}";
type = Tag;
name = hr00;
}
);
layerId = "F1FC1B3B-4EE8-4ECF-8776-11160932002C";
paths = (
{
closed = 1;
nodes = (
"593 0 LINE",
"1024 1346 LINE",
"883 1346 LINE",
"653 595 LINE",
"606 434 OFFCURVE",
"571 307 OFFCURVE",
"519 147 CURVE",
"511 147 LINE",
"459 307 OFFCURVE",
"425 434 OFFCURVE",
"376 595 CURVE SMOOTH",
"146 1346 LINE",
"-2 1346 LINE",
"433 0 LINE"
);
}
);
width = 1022;
},
{
anchors = (
{
name = bottom;
position = "{540, 0}";
},
{
name = top;
position = "{540, 1340}";
}
);
hints = (
{
horizontal = 1;
origin = "{0, 0}";
target = "{0, 0}";
type = Tag;
name = hr01;
},
{
horizontal = 1;
origin = "{0, 9}";
target = "{0, 0}";
type = Tag;
name = hr02;
}
);
layerId = "C4389747-BECF-4D47-A11A-92B8AD605B66";
paths = (
{
closed = 1;
nodes = (
"671 0 LINE",
"1089 1340 LINE",
"863 1340 LINE",
"669 654 LINE",
"627 500 OFFCURVE",
"596 370 OFFCURVE",
"549 216 CURVE",
"541 216 LINE",
"495 370 OFFCURVE",
"464 500 OFFCURVE",
"420 654 CURVE SMOOTH",
"224 1340 LINE",
"-9 1340 LINE",
"410 0 LINE"
);
}
);
width = 1079;
}
);
leftKerningGroup = V;
rightKerningGroup = V;
unicode = 0056;
userData = {
com.adobe.type.autohint = "ICA8aGludFNldExpc3Q+CiAgICA8aGludHNldCBw";
com.typemytype.robofont.mark = (
1,
0.6,
0.6,
1
);
};
},
{
glyphname = W;
lastChange = "2019-10-26 06:09:29 +0000";
layers = (
{
anchors = (
{
name = bottom;
position = "{792, 0}";
},
{
name = top;
position = "{792, 1346}";
}
);
hints = (
{
horizontal = 1;
origin = "{0, 33}";
type = Tag;
name = hr01;
},
{
horizontal = 1;
origin = "{0, 4}";
type = Tag;
name = hr02;
}
);
layerId = "F1FC1B3B-4EE8-4ECF-8776-11160932002C";
paths = (
{
closed = 1;
nodes = (
"501 0 LINE",
"718 857 LINE",
"742 962 OFFCURVE",
"766 1057 OFFCURVE",
"788 1162 CURVE",
"796 1162 LINE",
"817 1057 OFFCURVE",
"840 962 OFFCURVE",
"863 857 CURVE",
"1084 0 LINE",
"1248 0 LINE",
"1537 1346 LINE",
"1401 1346 LINE",
"1248 589 LINE",
"1222 444 OFFCURVE",
"1195 299 OFFCURVE",
"1167 152 CURVE",
"1158 152 LINE",
"1125 299 OFFCURVE",
"1091 445 OFFCURVE",
"1058 589 CURVE",
"861 1346 LINE",
"730 1346 LINE",
"533 589 LINE",
"499 444 OFFCURVE",
"465 298 OFFCURVE",
"435 152 CURVE",
"427 152 LINE",
"399 298 OFFCURVE",
"371 443 OFFCURVE",
"341 589 CURVE",
"190 1346 LINE",
"44 1346 LINE",
"338 0 LINE"
);
}
);
width = 1584;
},
{
anchors = (
{
name = bottom;
position = "{812, 0}";
},
{
name = top;
position = "{812, 1340}";
}
);
hints = (
{
horizontal = 1;
origin = "{0, 0}";
target = "{0, 0}";
type = Tag;
name = hr00;
}
);
layerId = "C4389747-BECF-4D47-A11A-92B8AD605B66";
paths = (
{
closed = 1;
nodes = (
"573 0 LINE",
"746 732 LINE",
"768 835 OFFCURVE",
"788 936 OFFCURVE",
"808 1038 CURVE",
"817 1038 LINE",
"833 936 OFFCURVE",
"854 835 OFFCURVE",
"876 732 CURVE",
"1052 0 LINE",
"1324 0 LINE",
"1587 1340 LINE",
"1375 1340 LINE",
"1251 650 LINE",
"1230 509 OFFCURVE",
"1207 365 OFFCURVE",
"1185 220 CURVE",
"1176 220 LINE",
"1146 365 OFFCURVE",
"1116 511 OFFCURVE",
"1086 650 CURVE",
"916 1340 LINE",
"722 1340 LINE",
"552 650 LINE",
"521 508 OFFCURVE",
"491 364 OFFCURVE",
"464 220 CURVE",
"455 220 LINE",
"432 364 OFFCURVE",
"408 507 OFFCURVE",
"385 650 CURVE",
"262 1340 LINE",
"36 1340 LINE",
"306 0 LINE"
);
}
);
width = 1623;
}
);
leftKerningGroup = W;
rightKerningGroup = W;
unicode = 0057;
userData = {
com.adobe.type.autohint = "ICA8aGludFNldExpc3Q+CiAgICA8aGludHNldCBw";
com.typemytype.robofont.mark = (
1,
0.6,
0.6,
1
);
};
},
{
glyphname = X;
lastChange = "2019-10-26 06:09:29 +0000";
layers = (
{
anchors = (
{
name = bottom;
position = "{507, 0}";
},
{
name = top;
position = "{507, 1346}";
}
);
hints = (
{
horizontal = 1;
origin = "{0, 25}";
type = Tag;
name = hr00;
}
);
layerId = "F1FC1B3B-4EE8-4ECF-8776-11160932002C";
paths = (
{
closed = 1;
nodes = (
"172 0 LINE",
"382 383 LINE",
"418 450 OFFCURVE",
"453 517 OFFCURVE",
"493 599 CURVE",
"501 599 LINE",
"546 517 OFFCURVE",
"584 450 OFFCURVE",
"620 383 CURVE SMOOTH",
"833 0 LINE",
"986 0 LINE",
"590 689 LINE",
"959 1346 LINE",
"813 1346 LINE",
"617 980 LINE",
"584 919 OFFCURVE",
"558 866 OFFCURVE",
"521 790 CURVE",
"512 790 LINE",
"468 866 OFFCURVE",
"440 919 OFFCURVE",
"406 980 CURVE SMOOTH",
"206 1346 LINE",
"53 1346 LINE",
"424 696 LINE",
"28 0 LINE"
);
}
);
width = 1013;
},
{
anchors = (
{
name = bottom;
position = "{543, 0}";
},
{
name = top;
position = "{543, 1340}";
}
);
hints = (
{
horizontal = 1;
origin = "{0, 0}";
target = "{0, 0}";
type = Tag;
name = hr00;
}
);
layerId = "C4389747-BECF-4D47-A11A-92B8AD605B66";
paths = (
{
closed = 1;
nodes = (
"258 0 LINE",
"426 328 LINE",
"459 395 OFFCURVE",
"490 463 OFFCURVE",
"527 545 CURVE",
"535 545 LINE",
"575 463 OFFCURVE",
"610 395 OFFCURVE",
"645 328 CURVE SMOOTH",
"817 0 LINE",
"1062 0 LINE",
"680 681 LINE",
"1037 1340 LINE",
"803 1340 LINE",
"652 1031 LINE",
"621 970 OFFCURVE",
"596 909 OFFCURVE",
"562 829 CURVE",
"553 829 LINE",
"512 909 OFFCURVE",
"483 970 OFFCURVE",
"451 1031 CURVE",
"294 1340 LINE",
"48 1340 LINE",
"408 691 LINE",
"25 0 LINE"
);
}
);
width = 1085;
}
);
leftKerningGroup = X;
rightKerningGroup = X;
unicode = 0058;
userData = {
com.adobe.type.autohint = "ICA8aGludFNldExpc3Q+CiAgICA8aGludHNldCBw";
com.typemytype.robofont.mark = (
1,
0.6,
0.6,
1
);
};
},
{
glyphname = Y;
lastChange = "2019-10-26 06:09:29 +0000";
layers = (
{
anchors = (
{
name = bottom;
position = "{470, 0}";
},
{
name = top;
position = "{470, 1346}";
}
);
hints = (
{
horizontal = 1;
origin = "{0, 15}";
type = Tag;
name = hr00;
}
);
layerId = "F1FC1B3B-4EE8-4ECF-8776-11160932002C";
paths = (
{
closed = 1;
nodes = (
"539 0 LINE",
"539 531 LINE",
"943 1346 LINE",
"800 1346 LINE",
"613 950 LINE",
"571 851 OFFCURVE",
"521 757 OFFCURVE",
"474 658 CURVE",
"465 658 LINE",
"417 757 OFFCURVE",
"374 851 OFFCURVE",
"330 950 CURVE SMOOTH",
"144 1346 LINE",
"-6 1346 LINE",
"399 531 LINE",
"399 0 LINE"
);
}
);
width = 939;
},
{
anchors = (
{
name = bottom;
position = "{503, 0}";
},
{
name = top;
position = "{503, 1340}";
}
);
hints = (
{
horizontal = 1;
origin = "{0, 0}";
target = "{0, 0}";
type = Tag;
name = hr00;
}
);
layerId = "C4389747-BECF-4D47-A11A-92B8AD605B66";
paths = (
{
closed = 1;
nodes = (
"612 0 LINE",
"612 503 LINE",
"1016 1340 LINE",
"787 1340 LINE",
"634 989 LINE",
"595 890 OFFCURVE",
"550 796 OFFCURVE",
"508 695 CURVE",
"500 695 LINE",
"456 796 OFFCURVE",
"418 890 OFFCURVE",
"378 989 CURVE",
"225 1340 LINE",
"-11 1340 LINE",
"392 503 LINE",
"392 0 LINE"
);
}
);
width = 1006;
}
);
leftKerningGroup = Y;
rightKerningGroup = Y;
unicode = 0059;
userData = {
com.adobe.type.autohint = "ICA8aGludFNldExpc3Q+CiAgICA8aGludHNldCBw";
com.typemytype.robofont.mark = (
1,
0.6,
0.6,
1
);
};
},
{
glyphname = Z;
lastChange = "2019-10-26 06:09:29 +0000";
layers = (
{
anchors = (
{
name = bottom;
position = "{546, 0}";
},
{
name = top;
position = "{546, 1346}";
}
);
hints = (
{
horizontal = 1;
origin = "{0, 9}";
type = Tag;
name = hr00;
}
);
layerId = "F1FC1B3B-4EE8-4ECF-8776-11160932002C";
paths = (
{
closed = 1;
nodes = (
"1006 0 LINE",
"1006 119 LINE",
"263 119 LINE",
"999 1264 LINE",
"999 1346 LINE",
"156 1346 LINE",
"156 1228 LINE",
"827 1228 LINE",
"89 83 LINE",
"89 0 LINE"
);
}
);
width = 1091;
},
{
anchors = (
{
name = bottom;
position = "{550, 0}";
},
{
name = top;
position = "{550, 1340}";
}
);
hints = (
{
horizontal = 1;
origin = "{0, 0}";
target = "{0, 0}";
type = Tag;
name = hr00;
}
);
layerId = "C4389747-BECF-4D47-A11A-92B8AD605B66";
paths = (
{
closed = 1;
nodes = (
"1022 0 LINE",
"1022 187 LINE",
"353 187 LINE",
"1017 1209 LINE",
"1017 1340 LINE",
"141 1340 LINE",
"141 1155 LINE",
"744 1155 LINE",
"81 133 LINE",
"81 0 LINE"
);
}
);
width = 1099;
}
);
leftKerningGroup = Z;
rightKerningGroup = Z;
unicode = 005A;
userData = {
com.adobe.type.autohint = "ICA8aGludFNldExpc3Q+CiAgICA8aGludHNldCBw";
com.typemytype.robofont.mark = (
1,
0.6,
0.6,
1
);
};
},
{
glyphname = a;
lastChange = "2019-10-26 06:10:49 +0000";
layers = (
{
anchors = (
{
name = btm;
position = "{503, -300}";
},
{
name = top;
position = "{503, 1050}";
}
);
hints = (
{
horizontal = 1;
origin = "{0, 18}";
type = Tag;
name = hr01;
},
{
horizontal = 1;
origin = "{0, 0}";
type = Tag;
name = hr02;
}
);
layerId = "F1FC1B3B-4EE8-4ECF-8776-11160932002C";
paths = (
{
closed = 1;
nodes = (
"769 0 LINE",
"882 0 LINE",
"882 618 LINE",
"882 859 OFFCURVE",
"788 1015 OFFCURVE",
"549 1015 CURVE SMOOTH",
"389 1015 OFFCURVE",
"247 952 OFFCURVE",
"164 898 CURVE",
"221 801 LINE",
"294 853 OFFCURVE",
"405 900 OFFCURVE",
"529 900 CURVE SMOOTH",
"703 900 OFFCURVE",
"748 775 OFFCURVE",
"746 625 CURVE",
"314 593 OFFCURVE",
"125 471 OFFCURVE",
"125 254 CURVE SMOOTH",
"125 73 OFFCURVE",
"252 -25 OFFCURVE",
"421 -25 CURVE SMOOTH",
"558 -25 OFFCURVE",
"654 43 OFFCURVE",
"752 122 CURVE",
"756 122 LINE"
);
},
{
closed = 1;
nodes = (
"640 138 OFFCURVE",
"558 87 OFFCURVE",
"455 87 CURVE SMOOTH",
"344 87 OFFCURVE",
"261 138 OFFCURVE",
"261 262 CURVE SMOOTH",
"261 401 OFFCURVE",
"382 504 OFFCURVE",
"746 531 CURVE",
"746 231 LINE"
);
}
);
width = 1038;
},
{
anchors = (
{
name = btm;
position = "{538, -200}";
},
{
name = top;
position = "{538, 800}";
}
);
hints = (
{
horizontal = 1;
origin = "{0, 22}";
target = "{0, 22}";
type = Tag;
name = hr01;
},
{
horizontal = 1;
origin = "{0, 7}";
target = "{0, 22}";
type = Tag;
name = hr02;
}
);
layerId = "C4389747-BECF-4D47-A11A-92B8AD605B66";
paths = (
{
closed = 1;
nodes = (
"746 0 LINE",
"926 0 LINE",
"926 599 LINE SMOOTH",
"926 880 OFFCURVE",
"811 1028 OFFCURVE",
"557 1028 CURVE SMOOTH",
"397 1028 OFFCURVE",
"250 976 OFFCURVE",
"144 910 CURVE",
"226 762 LINE",
"312 817 OFFCURVE",
"412 850 OFFCURVE",
"517 850 CURVE SMOOTH",
"662 850 OFFCURVE",
"707 779 OFFCURVE",
"707 634 CURVE",
"287 617 OFFCURVE",
"110 485 OFFCURVE",
"110 270 CURVE SMOOTH",
"110 94 OFFCURVE",
"232 -25 OFFCURVE",
"416 -25 CURVE SMOOTH",
"549 -25 OFFCURVE",
"631 36 OFFCURVE",
"723 113 CURVE",
"728 113 LINE"
);
},
{
closed = 1;
nodes = (
"631 190 OFFCURVE",
"567 148 OFFCURVE",
"481 148 CURVE SMOOTH",
"386 148 OFFCURVE",
"322 190 OFFCURVE",
"322 285 CURVE SMOOTH",
"322 393 OFFCURVE",
"407 492 OFFCURVE",
"707 501 CURVE",
"707 263 LINE"
);
}
);
width = 1066;
}
);
leftKerningGroup = a;
rightKerningGroup = n;
unicode = 0061;
userData = {
com.adobe.type.autohint = "ICA8aGludFNldExpc3Q+CiAgICA8aGludHNldCBw";
com.typemytype.robofont.mark = (
1,
0.6,
0.6,
1
);
};
},
{
glyphname = aogonek;
lastChange = "2019-10-26 06:10:49 +0000";
layers = (
{
hints = (
{
horizontal = 1;
origin = "{1, 5}";
type = Tag;
name = hr01;
},
{
horizontal = 1;
origin = "{0, 8}";
type = Tag;
name = hr02;
}
);
layerId = "F1FC1B3B-4EE8-4ECF-8776-11160932002C";
paths = (
{
closed = 1;
nodes = (
"862 -314 OFFCURVE",
"837 -323 OFFCURVE",
"803 -323 CURVE SMOOTH",
"753 -323 OFFCURVE",
"705 -291 OFFCURVE",
"705 -224 CURVE SMOOTH",
"705 -141 OFFCURVE",
"774 -47 OFFCURVE",
"882 0 CURVE",
"882 618 LINE",
"882 851 OFFCURVE",
"790 1015 OFFCURVE",
"551 1015 CURVE SMOOTH",
"391 1015 OFFCURVE",
"253 942 OFFCURVE",
"170 887 CURVE",
"227 790 LINE",
"300 841 OFFCURVE",
"407 900 OFFCURVE",
"531 900 CURVE SMOOTH",
"705 900 OFFCURVE",
"748 761 OFFCURVE",
"746 625 CURVE",
"317 577 OFFCURVE",
"125 470 OFFCURVE",
"125 252 CURVE SMOOTH",
"125 71 OFFCURVE",
"252 -25 OFFCURVE",
"415 -25 CURVE SMOOTH",
"541 -25 OFFCURVE",
"654 43 OFFCURVE",
"752 122 CURVE",
"756 122 LINE",
"770 10 LINE",
"684 -44 OFFCURVE",
"600 -140 OFFCURVE",
"600 -249 CURVE SMOOTH",
"600 -361 OFFCURVE",
"677 -420 OFFCURVE",
"777 -420 CURVE SMOOTH",
"826 -420 OFFCURVE",
"890 -396 OFFCURVE",
"926 -368 CURVE",
"887 -296 LINE"
);
},
{
closed = 1;
nodes = (
"640 138 OFFCURVE",
"552 87 OFFCURVE",
"449 87 CURVE SMOOTH",
"344 87 OFFCURVE",
"261 138 OFFCURVE",
"261 262 CURVE SMOOTH",
"261 401 OFFCURVE",
"384 488 OFFCURVE",
"746 531 CURVE",
"746 231 LINE"
);
}
);
width = 1038;
},
{
hints = (
{
horizontal = 1;
origin = "{0, 40}";
target = "{0, 40}";
type = Tag;
name = hr01;
},
{
horizontal = 1;
origin = "{0, 10}";
target = "{0, 40}";
type = Tag;
name = hr02;
},
{
horizontal = 1;
origin = "{0, 26}";
target = "{0, 40}";
type = Tag;
name = hr03;
}
);
layerId = "C4389747-BECF-4D47-A11A-92B8AD605B66";
paths = (
{
closed = 1;
nodes = (
"895 -276 OFFCURVE",
"869 -287 OFFCURVE",
"839 -287 CURVE SMOOTH",
"792 -287 OFFCURVE",
"747 -260 OFFCURVE",
"747 -199 CURVE SMOOTH",
"747 -127 OFFCURVE",
"805 -42 OFFCURVE",
"926 0 CURVE",
"926 599 LINE SMOOTH",
"926 871 OFFCURVE",
"808 1028 OFFCURVE",
"558 1028 CURVE SMOOTH",
"398 1028 OFFCURVE",
"256 963 OFFCURVE",
"150 897 CURVE",
"232 749 LINE",
"318 804 OFFCURVE",
"415 850 OFFCURVE",
"519 850 CURVE SMOOTH",
"661 850 OFFCURVE",
"705 752 OFFCURVE",
"707 639 CURVE",
"291 595 OFFCURVE",
"110 483 OFFCURVE",
"110 267 CURVE SMOOTH",
"110 92 OFFCURVE",
"232 -25 OFFCURVE",
"406 -25 CURVE SMOOTH",
"526 -25 OFFCURVE",
"631 36 OFFCURVE",
"723 113 CURVE",
"728 113 LINE",
"749 3 LINE",
"679 -41 OFFCURVE",
"593 -132 OFFCURVE",
"593 -246 CURVE SMOOTH",
"593 -364 OFFCURVE",
"680 -425 OFFCURVE",
"790 -425 CURVE SMOOTH",
"847 -425 OFFCURVE",
"924 -399 OFFCURVE",
"968 -365 CURVE",
"918 -262 LINE"
);
},
{
closed = 1;
nodes = (
"627 190 OFFCURVE",
"560 148 OFFCURVE",
"475 148 CURVE SMOOTH",
"386 148 OFFCURVE",
"322 189 OFFCURVE",
"322 283 CURVE SMOOTH",
"322 392 OFFCURVE",
"418 466 OFFCURVE",
"707 502 CURVE",
"707 263 LINE"
);
}
);
width = 1066;
}
);
leftKerningGroup = a;
rightKerningGroup = n;
unicode = 0105;
userData = {
com.adobe.type.autohint = "ICA8aGludFNldExpc3Q+CiAgICA8aGludHNldCBw";
};
},
{
glyphname = ae;
lastChange = "2019-10-26 06:10:49 +0000";
layers = (
{
anchors = (
{
name = btm;
position = "{827, -300}";
},
{
name = top;
position = "{795, 1050}";
}
);
hints = (
{
horizontal = 1;
origin = "{1, 8}";
type = Tag;
name = hr01;
},
{
horizontal = 1;
origin = "{0, 22}";
type = Tag;
name = hr02;
},
{
horizontal = 1;
origin = "{0, 12}";
type = Tag;
name = hr03;
}
);
layerId = "F1FC1B3B-4EE8-4ECF-8776-11160932002C";
paths = (
{
closed = 1;
nodes = (
"1364 124 OFFCURVE",
"1291 89 OFFCURVE",
"1190 89 CURVE SMOOTH",
"1009 89 OFFCURVE",
"869 242 OFFCURVE",
"865 466 CURVE",
"1524 466 LINE",
"1528 490 OFFCURVE",
"1529 520 OFFCURVE",
"1529 552 CURVE SMOOTH",
"1529 838 OFFCURVE",
"1406 1015 OFFCURVE",
"1168 1015 CURVE SMOOTH",
"1017 1015 OFFCURVE",
"898 927 OFFCURVE",
"822 790 CURVE",
"784 927 OFFCURVE",
"700 1015 OFFCURVE",
"537 1015 CURVE SMOOTH",
"389 1015 OFFCURVE",
"253 952 OFFCURVE",
"170 897 CURVE",
"227 800 LINE",
"300 851 OFFCURVE",
"407 900 OFFCURVE",
"521 900 CURVE SMOOTH",
"697 900 OFFCURVE",
"737 757 OFFCURVE",
"736 621 CURVE",
"318 585 OFFCURVE",
"125 470 OFFCURVE",
"125 252 CURVE SMOOTH",
"125 71 OFFCURVE",
"252 -25 OFFCURVE",
"415 -25 CURVE SMOOTH",
"541 -25 OFFCURVE",
"691 46 OFFCURVE",
"824 169 CURVE",
"898 68 OFFCURVE",
"1005 -25 OFFCURVE",
"1175 -25 CURVE SMOOTH",
"1314 -25 OFFCURVE",
"1407 24 OFFCURVE",
"1490 76 CURVE",
"1438 174 LINE"
);
},
{
closed = 1;
nodes = (
"736 395 OFFCURVE",
"751 310 OFFCURVE",
"777 256 CURVE",
"677 148 OFFCURVE",
"547 87 OFFCURVE",
"449 87 CURVE SMOOTH",
"344 87 OFFCURVE",
"261 138 OFFCURVE",
"261 262 CURVE SMOOTH",
"261 401 OFFCURVE",
"392 489 OFFCURVE",
"735 527 CURVE",
"736 478 LINE"
);
},
{
closed = 1;
nodes = (
"883 768 OFFCURVE",
"1005 905 OFFCURVE",
"1165 905 CURVE SMOOTH",
"1326 905 OFFCURVE",
"1407 785 OFFCURVE",
"1407 561 CURVE",
"865 561 LINE"
);
}
);
width = 1607;
},
{
anchors = (
{
name = btm;
position = "{821, -200}";
},
{
name = top;
position = "{821, 800}";
}
);
hints = (
{
horizontal = 1;
origin = "{0, 35}";
target = "{0, 35}";
type = Tag;
name = hr01;
},
{
horizontal = 1;
origin = "{0, 36}";
target = "{0, 35}";
type = Tag;
name = hr02;
},
{
horizontal = 1;
origin = "{0, 26}";
target = "{0, 35}";
type = Tag;
name = hr03;
},
{
horizontal = 1;
origin = "{2, 0}";
target = "{0, 35}";
type = Tag;
name = hr04;
}
);
layerId = "C4389747-BECF-4D47-A11A-92B8AD605B66";
paths = (
{
closed = 1;
nodes = (
"1343 183 OFFCURVE",
"1273 150 OFFCURVE",
"1185 150 CURVE SMOOTH",
"1033 150 OFFCURVE",
"914 261 OFFCURVE",
"901 443 CURVE",
"1523 443 LINE",
"1528 467 OFFCURVE",
"1532 506 OFFCURVE",
"1532 549 CURVE SMOOTH",
"1532 831 OFFCURVE",
"1409 1028 OFFCURVE",
"1155 1028 CURVE SMOOTH",
"1014 1028 OFFCURVE",
"906 956 OFFCURVE",
"825 839 CURVE",
"777 955 OFFCURVE",
"692 1028 OFFCURVE",
"542 1028 CURVE SMOOTH",
"394 1028 OFFCURVE",
"256 974 OFFCURVE",
"150 908 CURVE",
"232 760 LINE",
"318 814 OFFCURVE",
"415 850 OFFCURVE",
"513 850 CURVE SMOOTH",
"657 850 OFFCURVE",
"696 748 OFFCURVE",
"698 636 CURVE",
"290 603 OFFCURVE",
"110 483 OFFCURVE",
"110 267 CURVE SMOOTH",
"110 92 OFFCURVE",
"232 -25 OFFCURVE",
"406 -25 CURVE SMOOTH",
"536 -25 OFFCURVE",
"668 32 OFFCURVE",
"806 151 CURVE",
"886 54 OFFCURVE",
"996 -25 OFFCURVE",
"1156 -25 CURVE SMOOTH",
"1285 -25 OFFCURVE",
"1400 21 OFFCURVE",
"1493 83 CURVE",
"1417 229 LINE"
);
},
{
closed = 1;
nodes = (
"700 390 OFFCURVE",
"714 323 OFFCURVE",
"733 276 CURVE",
"657 195 OFFCURVE",
"558 148 OFFCURVE",
"475 148 CURVE SMOOTH",
"386 148 OFFCURVE",
"322 189 OFFCURVE",
"322 283 CURVE SMOOTH",
"322 392 OFFCURVE",
"427 467 OFFCURVE",
"697 498 CURVE",
"698 454 LINE SMOOTH"
);
},
{
closed = 1;
nodes = (
"918 757 OFFCURVE",
"1016 858 OFFCURVE",
"1149 858 CURVE SMOOTH",
"1285 858 OFFCURVE",
"1342 756 OFFCURVE",
"1342 582 CURVE",
"901 582 LINE"
);
}
);
width = 1609;
}
);
leftKerningGroup = a;
rightKerningGroup = e;
unicode = 00E6;
userData = {
com.adobe.type.autohint = "ICA8aGludFNldExpc3Q+CiAgICA8aGludHNldCBw";
com.typemytype.robofont.mark = (
1,
0.6,
0.6,
1
);
};
},
{
glyphname = b;
lastChange = "2019-10-26 06:10:49 +0000";
layers = (
{
anchors = (
{
name = btm;
position = "{601, -300}";
},
{
name = top;
position = "{718, 1050}";
}
);
hints = (
{
horizontal = 1;
origin = "{0, 2}";
type = Tag;
name = hr01;
},
{
horizontal = 1;
origin = "{0, 8}";
type = Tag;
name = hr02;
}
);
layerId = "F1FC1B3B-4EE8-4ECF-8776-11160932002C";
paths = (
{
closed = 1;
nodes = (
"313 1464 LINE",
"176 1464 LINE",
"176 0 LINE",
"287 0 LINE",
"299 96 LINE",
"306 96 LINE",
"395 20 OFFCURVE",
"501 -25 OFFCURVE",
"596 -25 CURVE SMOOTH",
"831 -25 OFFCURVE",
"1026 166 OFFCURVE",
"1026 509 CURVE SMOOTH",
"1026 820 OFFCURVE",
"901 1015 OFFCURVE",
"634 1015 CURVE SMOOTH",
"517 1015 OFFCURVE",
"403 952 OFFCURVE",
"308 870 CURVE",
"313 1055 LINE"
);
},
{
closed = 1;
nodes = (
"416 847 OFFCURVE",
"511 899 OFFCURVE",
"604 899 CURVE SMOOTH",
"811 899 OFFCURVE",
"883 740 OFFCURVE",
"883 508 CURVE SMOOTH",
"883 250 OFFCURVE",
"759 92 OFFCURVE",
"577 92 CURVE SMOOTH",
"506 92 OFFCURVE",
"409 122 OFFCURVE",
"313 205 CURVE",
"313 752 LINE"
);
}
);
width = 1128;
},
{
anchors = (
{
name = btm;
position = "{607, -200}";
},
{
name = top;
position = "{734, 800}";
}
);
hints = (
{
horizontal = 1;
origin = "{0, 9}";
target = "{0, 9}";
type = Tag;
name = hr01;
},
{
horizontal = 1;
origin = "{0, 11}";
target = "{0, 9}";
type = Tag;
name = hr02;
},
{
horizontal = 1;
origin = "{0, 17}";
target = "{0, 9}";
type = Tag;
name = hr03;
}
);
layerId = "C4389747-BECF-4D47-A11A-92B8AD605B66";
paths = (
{
closed = 1;
nodes = (
"373 1450 LINE",
"155 1450 LINE",
"155 0 LINE",
"328 0 LINE",
"346 101 LINE",
"353 101 LINE",
"438 20 OFFCURVE",
"536 -25 OFFCURVE",
"631 -25 CURVE SMOOTH",
"862 -25 OFFCURVE",
"1059 160 OFFCURVE",
"1059 517 CURVE SMOOTH",
"1059 838 OFFCURVE",
"926 1028 OFFCURVE",
"664 1028 CURVE SMOOTH",
"556 1028 OFFCURVE",
"453 975 OFFCURVE",
"368 899 CURVE",
"373 1069 LINE"
);
},
{
closed = 1;
nodes = (
"454 806 OFFCURVE",
"526 847 OFFCURVE",
"604 847 CURVE SMOOTH",
"773 847 OFFCURVE",
"833 724 OFFCURVE",
"833 514 CURVE SMOOTH",
"833 276 OFFCURVE",
"730 157 OFFCURVE",
"585 157 CURVE SMOOTH",
"523 157 OFFCURVE",
"448 180 OFFCURVE",
"373 246 CURVE",
"373 727 LINE"
);
}
);
width = 1151;
}
);
leftKerningGroup = h;
rightKerningGroup = o;
unicode = 0062;
userData = {
com.adobe.type.autohint = "ICA8aGludFNldExpc3Q+CiAgICA8aGludHNldCBw";
com.typemytype.robofont.mark = (
1,
0.6,
0.6,
1
);
};
},
{
glyphname = bstroke;
lastChange = "2019-10-26 06:10:49 +0000";
layers = (
{
hints = (
{
horizontal = 1;
origin = "{1, 12}";
type = Tag;
name = hr01;
},
{
horizontal = 1;
origin = "{0, 10}";
type = Tag;
name = hr02;
},
{
horizontal = 1;
origin = "{0, 16}";
type = Tag;
name = hr03;
}
);
layerId = "F1FC1B3B-4EE8-4ECF-8776-11160932002C";
paths = (
{
closed = 1;
nodes = (
"313 1178 LINE",
"692 1178 LINE",
"692 1263 LINE",
"313 1263 LINE",
"313 1464 LINE",
"176 1464 LINE",
"176 1263 LINE",
"22 1254 LINE",
"22 1178 LINE",
"176 1178 LINE",
"176 0 LINE",
"287 0 LINE",
"299 96 LINE",
"306 96 LINE",
"395 20 OFFCURVE",
"501 -25 OFFCURVE",
"594 -25 CURVE SMOOTH",
"823 -25 OFFCURVE",
"1026 165 OFFCURVE",
"1026 490 CURVE SMOOTH",
"1026 784 OFFCURVE",
"891 974 OFFCURVE",
"631 974 CURVE SMOOTH",
"516 974 OFFCURVE",
"403 911 OFFCURVE",
"308 829 CURVE",
"313 1014 LINE"
);
},
{
closed = 1;
nodes = (
"416 807 OFFCURVE",
"511 858 OFFCURVE",
"601 858 CURVE SMOOTH",
"805 858 OFFCURVE",
"883 705 OFFCURVE",
"883 489 CURVE SMOOTH",
"883 247 OFFCURVE",
"753 92 OFFCURVE",
"575 92 CURVE SMOOTH",
"506 92 OFFCURVE",
"409 122 OFFCURVE",
"313 205 CURVE",
"313 711 LINE"
);
}
);
width = 1100;
},
{
hints = (
{
horizontal = 1;
origin = "{0, 17}";
target = "{0, 17}";
type = Tag;
name = hr01;
},
{
horizontal = 1;
origin = "{0, 2}";
target = "{0, 17}";
type = Tag;
name = hr02;
},
{
horizontal = 1;
origin = "{0, 8}";
target = "{0, 17}";
type = Tag;
name = hr03;
}
);
layerId = "C4389747-BECF-4D47-A11A-92B8AD605B66";
paths = (
{
closed = 1;
nodes = (
"373 1158 LINE",
"736 1158 LINE",
"736 1274 LINE",
"373 1274 LINE",
"373 1450 LINE",
"155 1450 LINE",
"155 1273 LINE",
"8 1263 LINE",
"8 1158 LINE",
"155 1158 LINE",
"155 0 LINE",
"328 0 LINE",
"346 101 LINE",
"353 101 LINE",
"438 20 OFFCURVE",
"539 -25 OFFCURVE",
"630 -25 CURVE SMOOTH",
"855 -25 OFFCURVE",
"1059 167 OFFCURVE",
"1059 499 CURVE SMOOTH",
"1059 794 OFFCURVE",
"916 987 OFFCURVE",
"662 987 CURVE SMOOTH",
"558 987 OFFCURVE",
"453 934 OFFCURVE",
"368 858 CURVE",
"373 1028 LINE"
);
},
{
closed = 1;
nodes = (
"454 766 OFFCURVE",
"529 806 OFFCURVE",
"604 806 CURVE SMOOTH",
"767 806 OFFCURVE",
"833 687 OFFCURVE",
"833 495 CURVE SMOOTH",
"833 275 OFFCURVE",
"727 157 OFFCURVE",
"586 157 CURVE SMOOTH",
"526 157 OFFCURVE",
"448 180 OFFCURVE",
"373 246 CURVE",
"373 687 LINE"
);
}
);
width = 1135;
}
);
leftKerningGroup = bstroke;
rightKerningGroup = bstroke;
unicode = 0180;
userData = {
com.adobe.type.autohint = "ICA8aGludFNldExpc3Q+CiAgICA8aGludHNldCBw";
};
},
{
glyphname = c;
lastChange = "2019-10-26 06:10:49 +0000";
layers = (
{
anchors = (
{
name = btm;
position = "{533, -300}";
},
{
name = top;
position = "{570, 1050}";
}
);
hints = (
{
horizontal = 1;
origin = "{0, 18}";
type = Tag;
name = hr00;
}
);
layerId = "F1FC1B3B-4EE8-4ECF-8776-11160932002C";
paths = (
{
closed = 1;
nodes = (
"745 133 OFFCURVE",
"665 90 OFFCURVE",
"566 90 CURVE SMOOTH",
"370 90 OFFCURVE",
"240 249 OFFCURVE",
"240 495 CURVE SMOOTH",
"240 744 OFFCURVE",
"380 900 OFFCURVE",
"569 900 CURVE SMOOTH",
"655 900 OFFCURVE",
"723 862 OFFCURVE",
"785 807 CURVE",
"856 897 LINE",
"789 960 OFFCURVE",
"697 1015 OFFCURVE",
"564 1015 CURVE SMOOTH",
"314 1015 OFFCURVE",
"99 836 OFFCURVE",
"99 495 CURVE SMOOTH",
"99 159 OFFCURVE",
"296 -25 OFFCURVE",
"556 -25 CURVE SMOOTH",
"677 -25 OFFCURVE",
"784 22 OFFCURVE",
"871 99 CURVE",
"807 190 LINE"
);
}
);
width = 928;
},
{
anchors = (
{
name = btm;
position = "{570, -200}";
},
{
name = top;
position = "{574, 800}";
}
);
hints = (
{
horizontal = 1;
origin = "{0, 22}";
target = "{0, 22}";
type = Tag;
name = hr00;
}
);
layerId = "C4389747-BECF-4D47-A11A-92B8AD605B66";
paths = (
{
closed = 1;
nodes = (
"740 189 OFFCURVE",
"672 155 OFFCURVE",
"585 155 CURVE SMOOTH",
"422 155 OFFCURVE",
"310 287 OFFCURVE",
"310 503 CURVE SMOOTH",
"310 720 OFFCURVE",
"425 849 OFFCURVE",
"592 849 CURVE SMOOTH",
"659 849 OFFCURVE",
"718 822 OFFCURVE",
"773 775 CURVE",
"877 913 LINE",
"810 979 OFFCURVE",
"710 1028 OFFCURVE",
"581 1028 CURVE SMOOTH",
"316 1028 OFFCURVE",
"86 850 OFFCURVE",
"86 503 CURVE SMOOTH",
"86 159 OFFCURVE",
"292 -25 OFFCURVE",
"563 -25 CURVE SMOOTH",
"679 -25 OFFCURVE",
"795 13 OFFCURVE",
"888 95 CURVE",
"796 236 LINE"
);
}
);
width = 942;
}
);
leftKerningGroup = o;
rightKerningGroup = c;
unicode = 0063;
userData = {
com.adobe.type.autohint = "ICA8aGludFNldExpc3Q+CiAgICA8aGludHNldCBw";
com.typemytype.robofont.mark = (
1,
0.6,
0.6,
1
);
};
},
{
glyphname = d;
lastChange = "2019-10-26 06:10:49 +0000";
layers = (
{
anchors = (
{
name = btm;
position = "{525, -300}";
},
{
name = car;
position = "{1136, 1003}";
},
{
name = top;
position = "{333, 1050}";
}
);
hints = (
{
horizontal = 1;
origin = "{0, 11}";
type = Tag;
name = hr01;
},
{
horizontal = 1;
origin = "{0, 0}";
type = Tag;
name = hr02;
}
);
layerId = "F1FC1B3B-4EE8-4ECF-8776-11160932002C";
paths = (
{
closed = 1;
nodes = (
"837 0 LINE",
"951 0 LINE",
"951 1464 LINE",
"814 1464 LINE",
"814 1072 LINE",
"821 898 LINE",
"728 971 OFFCURVE",
"651 1015 OFFCURVE",
"534 1015 CURVE SMOOTH",
"298 1015 OFFCURVE",
"100 824 OFFCURVE",
"100 494 CURVE SMOOTH",
"100 154 OFFCURVE",
"263 -25 OFFCURVE",
"510 -25 CURVE SMOOTH",
"633 -25 OFFCURVE",
"740 43 OFFCURVE",
"819 121 CURVE",
"825 121 LINE"
);
},
{
closed = 1;
nodes = (
"723 142 OFFCURVE",
"636 92 OFFCURVE",
"537 92 CURVE SMOOTH",
"343 92 OFFCURVE",
"241 243 OFFCURVE",
"241 495 CURVE SMOOTH",
"241 737 OFFCURVE",
"373 899 OFFCURVE",
"554 899 CURVE SMOOTH",
"641 899 OFFCURVE",
"722 868 OFFCURVE",
"814 785 CURVE",
"814 239 LINE"
);
}
);
width = 1128;
},
{
anchors = (
{
name = btm;
position = "{543, -200}";
},
{
name = car;
position = "{1185, 1028}";
},
{
name = top;
position = "{386, 800}";
}
);
hints = (
{
horizontal = 1;
origin = "{0, 15}";
target = "{0, 15}";
type = Tag;
name = hr01;
},
{
horizontal = 1;
origin = "{0, 7}";
target = "{0, 15}";
type = Tag;
name = hr02;
}
);
layerId = "C4389747-BECF-4D47-A11A-92B8AD605B66";
paths = (
{
closed = 1;
nodes = (
"816 0 LINE",
"996 0 LINE",
"996 1450 LINE",
"776 1450 LINE",
"776 1081 LINE",
"786 916 LINE",
"705 985 OFFCURVE",
"632 1028 OFFCURVE",
"518 1028 CURVE SMOOTH",
"289 1028 OFFCURVE",
"90 837 OFFCURVE",
"90 502 CURVE SMOOTH",
"90 161 OFFCURVE",
"255 -25 OFFCURVE",
"503 -25 CURVE SMOOTH",
"613 -25 OFFCURVE",
"717 36 OFFCURVE",
"793 111 CURVE",
"799 111 LINE"
);
},
{
closed = 1;
nodes = (
"707 194 OFFCURVE",
"638 157 OFFCURVE",
"556 157 CURVE SMOOTH",
"398 157 OFFCURVE",
"314 275 OFFCURVE",
"314 505 CURVE SMOOTH",
"314 725 OFFCURVE",
"421 847 OFFCURVE",
"562 847 CURVE SMOOTH",
"634 847 OFFCURVE",
"704 823 OFFCURVE",
"776 757 CURVE",
"776 277 LINE"
);
}
);
width = 1151;
}
);
leftKerningGroup = o;
rightKerningGroup = l;
unicode = 0064;
userData = {
com.adobe.type.autohint = "ICA8aGludFNldExpc3Q+CiAgICA8aGludHNldCBw";
com.typemytype.robofont.mark = (
0.967,
0.6,
1,
1
);
};
},
{
glyphname = eth;
lastChange = "2019-10-26 06:10:49 +0000";
layers = (
{
anchors = (
{
name = btm;
position = "{548, -300}";
},
{
name = top;
position = "{548, 1050}";
}
);
hints = (
{
horizontal = 1;
origin = "{1, 14}";
type = Tag;
name = hr00;
}
);
layerId = "F1FC1B3B-4EE8-4ECF-8776-11160932002C";
paths = (
{
closed = 1;
nodes = (
"929 1451 LINE",
"638 1300 LINE",
"551 1375 OFFCURVE",
"455 1437 OFFCURVE",
"355 1490 CURVE",
"291 1402 LINE",
"377 1354 OFFCURVE",
"457 1303 OFFCURVE",
"530 1244 CURVE",
"266 1109 LINE",
"307 1036 LINE",
"597 1186 LINE",
"705 1080 OFFCURVE",
"786 949 OFFCURVE",
"823 768 CURVE",
"749 865 OFFCURVE",
"647 911 OFFCURVE",
"537 911 CURVE SMOOTH",
"294 911 OFFCURVE",
"115 727 OFFCURVE",
"115 453 CURVE SMOOTH",
"115 156 OFFCURVE",
"323 -25 OFFCURVE",
"549 -25 CURVE SMOOTH",
"807 -25 OFFCURVE",
"981 194 OFFCURVE",
"981 522 CURVE SMOOTH",
"981 850 OFFCURVE",
"866 1075 OFFCURVE",
"703 1241 CURVE",
"970 1378 LINE"
);
},
{
closed = 1;
nodes = (
"385 90 OFFCURVE",
"245 236 OFFCURVE",
"245 453 CURVE SMOOTH",
"245 646 OFFCURVE",
"355 802 OFFCURVE",
"553 802 CURVE SMOOTH",
"649 802 OFFCURVE",
"746 771 OFFCURVE",
"842 636 CURVE",
"845 599 OFFCURVE",
"847 559 OFFCURVE",
"847 518 CURVE SMOOTH",
"847 272 OFFCURVE",
"752 90 OFFCURVE",
"552 90 CURVE SMOOTH"
);
}
);
width = 1108;
},
{
anchors = (
{
name = btm;
position = "{556, -200}";
},
{
name = top;
position = "{556, 800}";
}
);
hints = (
{
horizontal = 1;
origin = "{0, 24}";
target = "{0, 24}";
type = Tag;
name = hr00;
}
);
layerId = "C4389747-BECF-4D47-A11A-92B8AD605B66";
paths = (
{
closed = 1;
nodes = (
"932 1470 LINE",
"641 1321 LINE",
"552 1392 OFFCURVE",
"456 1451 OFFCURVE",
"358 1503 CURVE",
"260 1368 LINE",
"337 1326 OFFCURVE",
"407 1283 OFFCURVE",
"472 1235 CURVE",
"221 1107 LINE",
"281 1005 LINE",
"570 1153 LINE",
"665 1060 OFFCURVE",
"735 950 OFFCURVE",
"772 805 CURVE",
"707 885 OFFCURVE",
"615 921 OFFCURVE",
"519 921 CURVE SMOOTH",
"291 921 OFFCURVE",
"100 743 OFFCURVE",
"100 460 CURVE SMOOTH",
"100 161 OFFCURVE",
"314 -25 OFFCURVE",
"554 -25 CURVE SMOOTH",
"833 -25 OFFCURVE",
"1012 205 OFFCURVE",
"1012 533 CURVE SMOOTH",
"1012 850 OFFCURVE",
"898 1071 OFFCURVE",
"735 1236 CURVE",
"992 1367 LINE"
);
},
{
closed = 1;
nodes = (
"421 155 OFFCURVE",
"303 271 OFFCURVE",
"303 460 CURVE SMOOTH",
"303 638 OFFCURVE",
"400 755 OFFCURVE",
"558 755 CURVE SMOOTH",
"642 755 OFFCURVE",
"723 729 OFFCURVE",
"802 628 CURVE",
"804 595 OFFCURVE",
"805 560 OFFCURVE",
"805 523 CURVE SMOOTH",
"805 295 OFFCURVE",
"718 155 OFFCURVE",
"560 155 CURVE SMOOTH"
);
}
);
width = 1128;
}
);
leftKerningGroup = eth;
rightKerningGroup = eth;
unicode = 00F0;
userData = {
com.adobe.type.autohint = "ICA8aGludFNldExpc3Q+CiAgICA8aGludHNldCBw";
com.typemytype.robofont.mark = (
1,
0.6,
0.6,
1
);
};
},
{
glyphname = dcroat;
lastChange = "2019-10-26 06:10:49 +0000";
layers = (
{
hints = (
{
horizontal = 1;
origin = "{1, 12}";
type = Tag;
name = hr01;
},
{
horizontal = 1;
origin = "{0, 0}";
type = Tag;
name = hr02;
}
);
layerId = "F1FC1B3B-4EE8-4ECF-8776-11160932002C";
paths = (
{
closed = 1;
nodes = (
"834 0 LINE",
"951 0 LINE",
"951 1178 LINE",
"1101 1187 LINE",
"1101 1263 LINE",
"951 1263 LINE",
"951 1464 LINE",
"814 1464 LINE",
"814 1263 LINE",
"476 1263 LINE",
"476 1178 LINE",
"814 1178 LINE",
"814 1031 LINE",
"821 857 LINE",
"728 930 OFFCURVE",
"651 974 OFFCURVE",
"534 974 CURVE SMOOTH",
"304 974 OFFCURVE",
"100 780 OFFCURVE",
"100 473 CURVE SMOOTH",
"100 154 OFFCURVE",
"261 -25 OFFCURVE",
"510 -25 CURVE SMOOTH",
"634 -25 OFFCURVE",
"740 40 OFFCURVE",
"818 119 CURVE",
"823 119 LINE"
);
},
{
closed = 1;
nodes = (
"723 142 OFFCURVE",
"636 92 OFFCURVE",
"537 92 CURVE SMOOTH",
"349 92 OFFCURVE",
"243 238 OFFCURVE",
"243 474 CURVE SMOOTH",
"243 697 OFFCURVE",
"379 858 OFFCURVE",
"554 858 CURVE SMOOTH",
"641 858 OFFCURVE",
"722 827 OFFCURVE",
"814 744 CURVE",
"814 239 LINE"
);
}
);
width = 1128;
},
{
hints = (
{
horizontal = 1;
origin = "{0, 23}";
target = "{0, 23}";
type = Tag;
name = hr01;
},
{
horizontal = 1;
origin = "{0, 21}";
target = "{0, 23}";
type = Tag;
name = hr02;
},
{
horizontal = 1;
origin = "{1, 7}";
target = "{0, 23}";
type = Tag;
name = hr03;
}
);
layerId = "C4389747-BECF-4D47-A11A-92B8AD605B66";
paths = (
{
closed = 1;
nodes = (
"811 0 LINE",
"996 0 LINE",
"996 1158 LINE",
"1140 1169 LINE",
"1140 1274 LINE",
"996 1274 LINE",
"996 1450 LINE",
"776 1450 LINE",
"776 1274 LINE",
"516 1274 LINE",
"516 1158 LINE",
"776 1158 LINE",
"776 1040 LINE",
"786 875 LINE",
"705 944 OFFCURVE",
"632 987 OFFCURVE",
"518 987 CURVE SMOOTH",
"296 987 OFFCURVE",
"90 791 OFFCURVE",
"90 480 CURVE SMOOTH",
"90 159 OFFCURVE",
"253 -25 OFFCURVE",
"503 -25 CURVE SMOOTH",
"616 -25 OFFCURVE",
"716 32 OFFCURVE",
"790 104 CURVE",
"797 104 LINE"
);
},
{
closed = 1;
nodes = (
"707 194 OFFCURVE",
"638 157 OFFCURVE",
"556 157 CURVE SMOOTH",
"404 157 OFFCURVE",
"315 269 OFFCURVE",
"315 483 CURVE SMOOTH",
"315 684 OFFCURVE",
"427 806 OFFCURVE",
"562 806 CURVE SMOOTH",
"634 806 OFFCURVE",
"704 782 OFFCURVE",
"776 716 CURVE",
"776 277 LINE"
);
}
);
width = 1151;
}
);
leftKerningGroup = o;
rightKerningGroup = l;
unicode = 0111;
userData = {
com.adobe.type.autohint = "ICA8aGludFNldExpc3Q+CiAgICA8aGludHNldCBw";
};
},
{
glyphname = e;
lastChange = "2019-10-26 06:10:49 +0000";
layers = (
{
anchors = (
{
name = btm;
position = "{512, -300}";
},
{
name = top;
position = "{547, 1050}";
}
);
hints = (
{
horizontal = 1;
origin = "{0, 15}";
type = Tag;
name = hr00;
}
);
layerId = "F1FC1B3B-4EE8-4ECF-8776-11160932002C";
paths = (
{
closed = 1;
nodes = (
"762 114 OFFCURVE",
"682 87 OFFCURVE",
"583 87 CURVE SMOOTH",
"379 87 OFFCURVE",
"244 235 OFFCURVE",
"235 468 CURVE",
"922 468 LINE",
"926 493 OFFCURVE",
"927 522 OFFCURVE",
"927 553 CURVE SMOOTH",
"927 846 OFFCURVE",
"793 1016 OFFCURVE",
"537 1016 CURVE SMOOTH",
"303 1016 OFFCURVE",
"98 823 OFFCURVE",
"98 494 CURVE SMOOTH",
"98 163 OFFCURVE",
"307 -25 OFFCURVE",
"567 -25 CURVE SMOOTH",
"706 -25 OFFCURVE",
"804 19 OFFCURVE",
"886 70 CURVE",
"836 163 LINE"
);
},
{
closed = 1;
nodes = (
"253 779 OFFCURVE",
"384 905 OFFCURVE",
"541 905 CURVE SMOOTH",
"710 905 OFFCURVE",
"805 791 OFFCURVE",
"805 562 CURVE",
"234 562 LINE"
);
}
);
width = 1005;
},
{
anchors = (
{
name = btm;
position = "{521, -200}";
},
{
name = top;
position = "{521, 800}";
}
);
hints = (
{
horizontal = 1;
origin = "{0, 19}";
target = "{0, 19}";
type = Tag;
name = hr00;
}
);
layerId = "C4389747-BECF-4D47-A11A-92B8AD605B66";
paths = (
{
closed = 1;
nodes = (
"768 168 OFFCURVE",
"693 147 OFFCURVE",
"606 147 CURVE SMOOTH",
"436 147 OFFCURVE",
"314 251 OFFCURVE",
"300 448 CURVE",
"948 448 LINE",
"952 472 OFFCURVE",
"956 511 OFFCURVE",
"956 553 CURVE SMOOTH",
"956 841 OFFCURVE",
"822 1028 OFFCURVE",
"544 1028 CURVE SMOOTH",
"300 1028 OFFCURVE",
"86 838 OFFCURVE",
"86 501 CURVE SMOOTH",
"86 165 OFFCURVE",
"302 -25 OFFCURVE",
"577 -25 CURVE SMOOTH",
"708 -25 OFFCURVE",
"824 16 OFFCURVE",
"916 77 CURVE",
"842 214 LINE"
);
},
{
closed = 1;
nodes = (
"317 769 OFFCURVE",
"421 858 OFFCURVE",
"549 858 CURVE SMOOTH",
"697 858 OFFCURVE",
"767 763 OFFCURVE",
"767 587 CURVE",
"298 587 LINE"
);
}
);
width = 1033;
}
);
leftKerningGroup = o;
rightKerningGroup = e;
unicode = 0065;
userData = {
com.adobe.type.autohint = "ICA8aGludFNldExpc3Q+CiAgICA8aGludHNldCBw";
com.typemytype.robofont.mark = (
1,
0.6,
0.6,
1
);
};
},
{
glyphname = eogonek;
lastChange = "2019-10-26 06:10:49 +0000";
layers = (
{
hints = (
{
horizontal = 1;
origin = "{0, 25}";
type = Tag;
name = hr00;
}
);
layerId = "F1FC1B3B-4EE8-4ECF-8776-11160932002C";
paths = (
{
closed = 1;
nodes = (
"815 -314 OFFCURVE",
"791 -323 OFFCURVE",
"756 -323 CURVE SMOOTH",
"704 -323 OFFCURVE",
"658 -290 OFFCURVE",
"658 -224 CURVE SMOOTH",
"658 -136 OFFCURVE",
"710 -52 OFFCURVE",
"887 76 CURVE",
"838 169 LINE",
"764 119 OFFCURVE",
"682 87 OFFCURVE",
"583 87 CURVE SMOOTH",
"379 87 OFFCURVE",
"244 240 OFFCURVE",
"235 468 CURVE",
"922 468 LINE",
"926 493 OFFCURVE",
"927 518 OFFCURVE",
"927 553 CURVE SMOOTH",
"927 840 OFFCURVE",
"784 1015 OFFCURVE",
"539 1015 CURVE SMOOTH",
"314 1015 OFFCURVE",
"99 817 OFFCURVE",
"99 493 CURVE SMOOTH",
"99 169 OFFCURVE",
"307 -25 OFFCURVE",
"567 -25 CURVE SMOOTH",
"605 -25 OFFCURVE",
"641 -22 OFFCURVE",
"679 -8 CURVE",
"624 -56 OFFCURVE",
"554 -146 OFFCURVE",
"554 -249 CURVE SMOOTH",
"554 -361 OFFCURVE",
"631 -420 OFFCURVE",
"731 -420 CURVE SMOOTH",
"778 -420 OFFCURVE",
"844 -396 OFFCURVE",
"879 -368 CURVE",
"841 -296 LINE"
);
},
{
closed = 1;
nodes = (
"254 778 OFFCURVE",
"391 905 OFFCURVE",
"542 905 CURVE SMOOTH",
"707 905 OFFCURVE",
"805 785 OFFCURVE",
"805 562 CURVE",
"234 562 LINE"
);
}
);
width = 1005;
},
{
hints = (
{
horizontal = 1;
origin = "{0, 38}";
target = "{0, 38}";
type = Tag;
name = hr00;
}
);
layerId = "C4389747-BECF-4D47-A11A-92B8AD605B66";
paths = (
{
closed = 1;
nodes = (
"841 -276 OFFCURVE",
"817 -287 OFFCURVE",
"786 -287 CURVE SMOOTH",
"736 -287 OFFCURVE",
"693 -259 OFFCURVE",
"693 -199 CURVE SMOOTH",
"693 -116 OFFCURVE",
"739 -44 OFFCURVE",
"918 83 CURVE",
"843 220 LINE",
"769 174 OFFCURVE",
"693 147 OFFCURVE",
"606 147 CURVE SMOOTH",
"436 147 OFFCURVE",
"317 256 OFFCURVE",
"300 448 CURVE",
"948 448 LINE",
"952 472 OFFCURVE",
"956 508 OFFCURVE",
"956 553 CURVE SMOOTH",
"956 835 OFFCURVE",
"813 1028 OFFCURVE",
"546 1028 CURVE SMOOTH",
"311 1028 OFFCURVE",
"86 827 OFFCURVE",
"86 501 CURVE SMOOTH",
"86 171 OFFCURVE",
"302 -25 OFFCURVE",
"577 -25 CURVE SMOOTH",
"603 -25 OFFCURVE",
"630 -24 OFFCURVE",
"661 -13 CURVE",
"608 -59 OFFCURVE",
"541 -144 OFFCURVE",
"541 -246 CURVE SMOOTH",
"541 -364 OFFCURVE",
"626 -425 OFFCURVE",
"736 -425 CURVE SMOOTH",
"793 -425 OFFCURVE",
"870 -399 OFFCURVE",
"914 -365 CURVE",
"864 -262 LINE"
);
},
{
closed = 1;
nodes = (
"319 764 OFFCURVE",
"429 858 OFFCURVE",
"550 858 CURVE SMOOTH",
"694 858 OFFCURVE",
"767 757 OFFCURVE",
"767 587 CURVE",
"298 587 LINE"
);
}
);
width = 1033;
}
);
leftKerningGroup = o;
rightKerningGroup = e;
unicode = 0119;
userData = {
com.adobe.type.autohint = "ICA8aGludFNldExpc3Q+CiAgICA8aGludHNldCBw";
};
},
{
glyphname = schwa;
lastChange = "2019-10-26 06:10:49 +0000";
layers = (
{
hints = (
{
horizontal = 1;
origin = "{0, 9}";
type = Tag;
name = hr00;
}
);
layerId = "F1FC1B3B-4EE8-4ECF-8776-11160932002C";
paths = (
{
closed = 1;
nodes = (
"268 868 OFFCURVE",
"350 905 OFFCURVE",
"456 905 CURVE SMOOTH",
"649 905 OFFCURVE",
"761 754 OFFCURVE",
"769 538 CURVE",
"83 538 LINE",
"79 513 OFFCURVE",
"77 484 OFFCURVE",
"77 453 CURVE SMOOTH",
"77 151 OFFCURVE",
"239 -25 OFFCURVE",
"481 -25 CURVE SMOOTH",
"721 -25 OFFCURVE",
"906 173 OFFCURVE",
"906 498 CURVE SMOOTH",
"906 825 OFFCURVE",
"722 1015 OFFCURVE",
"476 1015 CURVE SMOOTH",
"334 1015 OFFCURVE",
"227 969 OFFCURVE",
"139 908 CURVE",
"190 815 LINE"
);
},
{
closed = 1;
nodes = (
"751 218 OFFCURVE",
"644 87 OFFCURVE",
"478 87 CURVE SMOOTH",
"312 87 OFFCURVE",
"199 201 OFFCURVE",
"199 443 CURVE",
"770 443 LINE"
);
}
);
width = 1005;
},
{
hints = (
{
horizontal = 1;
origin = "{0, 13}";
target = "{0, 13}";
type = Tag;
name = hr00;
}
);
layerId = "C4389747-BECF-4D47-A11A-92B8AD605B66";
paths = (
{
closed = 1;
nodes = (
"289 827 OFFCURVE",
"366 858 OFFCURVE",
"459 858 CURVE SMOOTH",
"618 858 OFFCURVE",
"716 749 OFFCURVE",
"731 566 CURVE",
"85 566 LINE",
"81 541 OFFCURVE",
"75 503 OFFCURVE",
"75 460 CURVE SMOOTH",
"75 169 OFFCURVE",
"230 -25 OFFCURVE",
"496 -25 CURVE SMOOTH",
"742 -25 OFFCURVE",
"947 176 OFFCURVE",
"947 503 CURVE SMOOTH",
"947 832 OFFCURVE",
"751 1028 OFFCURVE",
"494 1028 CURVE SMOOTH",
"360 1028 OFFCURVE",
"238 983 OFFCURVE",
"139 917 CURVE",
"215 779 LINE"
);
},
{
closed = 1;
nodes = (
"714 241 OFFCURVE",
"624 147 OFFCURVE",
"491 147 CURVE SMOOTH",
"348 147 OFFCURVE",
"266 243 OFFCURVE",
"266 425 CURVE",
"734 425 LINE"
);
}
);
width = 1033;
}
);
leftKerningGroup = schwa;
rightKerningGroup = schwa;
unicode = 0259;
userData = {
com.adobe.type.autohint = "ICA8aGludFNldExpc3Q+CiAgICA8aGludHNldCBw";
com.typemytype.robofont.mark = (
0.656,
1,
0.6,
1
);
};
},
{
glyphname = f;
lastChange = "2019-10-26 06:09:29 +0000";
layers = (
{
anchors = (
{
name = btm;
position = "{265, -300}";
},
{
name = top;
position = "{175, 1300}";
}
);
hints = (
{
horizontal = 1;
origin = "{0, 12}";
type = Tag;
name = hr00;
}
);
layerId = "F1FC1B3B-4EE8-4ECF-8776-11160932002C";
paths = (
{
closed = 1;
nodes = (
"335 0 LINE",
"335 877 LINE",
"552 877 LINE",
"552 990 LINE",
"335 990 LINE",
"335 1173 LINE",
"335 1306 OFFCURVE",
"382 1376 OFFCURVE",
"480 1376 CURVE SMOOTH",
"517 1376 OFFCURVE",
"557 1367 OFFCURVE",
"595 1350 CURVE",
"627 1456 LINE",
"582 1475 OFFCURVE",
"526 1489 OFFCURVE",
"470 1489 CURVE SMOOTH",
"290 1489 OFFCURVE",
"199 1375 OFFCURVE",
"199 1175 CURVE SMOOTH",
"199 990 LINE",
"64 981 LINE",
"64 877 LINE",
"199 877 LINE",
"199 0 LINE"
);
}
);
width = 574;
},
{
anchors = (
{
name = btm;
position = "{375, -200}";
},
{
name = top;
position = "{248, 1149}";
}
);
hints = (
{
horizontal = 1;
origin = "{0, 0}";
target = "{0, 0}";
type = Tag;
name = hr01;
},
{
horizontal = 1;
origin = "{0, 8}";
target = "{0, 0}";
type = Tag;
name = hr02;
},
{
horizontal = 1;
origin = "{0, 10}";
target = "{0, 0}";
type = Tag;
name = hr03;
}
);
layerId = "C4389747-BECF-4D47-A11A-92B8AD605B66";
paths = (
{
closed = 1;
nodes = (
"411 0 LINE",
"411 828 LINE",
"610 828 LINE",
"610 1003 LINE",
"411 1003 LINE",
"411 1126 LINE SMOOTH",
"411 1245 OFFCURVE",
"455 1299 OFFCURVE",
"541 1299 CURVE SMOOTH",
"577 1299 OFFCURVE",
"615 1290 OFFCURVE",
"651 1276 CURVE",
"695 1440 LINE",
"650 1457 OFFCURVE",
"585 1474 OFFCURVE",
"514 1474 CURVE SMOOTH",
"287 1474 OFFCURVE",
"192 1331 OFFCURVE",
"192 1123 CURVE SMOOTH",
"192 1002 LINE",
"56 992 LINE",
"56 828 LINE",
"192 828 LINE",
"192 0 LINE"
);
}
);
width = 636;
}
);
leftKerningGroup = f;
rightKerningGroup = f;
unicode = 0066;
userData = {
com.adobe.type.autohint = "ICA8aGludFNldExpc3Q+CiAgICA8aGludHNldCBw";
com.typemytype.robofont.mark = (
1,
0.6,
0.6,
1
);
};
},
{
glyphname = g;
lastChange = "2019-10-26 06:10:49 +0000";
layers = (
{
anchors = (
{
name = btm;
position = "{501, -300}";
},
{
name = top;
position = "{546, 1050}";
}
);
hints = (
{
horizontal = 1;
origin = "{1, 8}";
type = Tag;
name = hr01;
},
{
horizontal = 1;
origin = "{0, 2}";
type = Tag;
name = hr02;
},
{
horizontal = 1;
origin = "{0, 20}";
type = Tag;
name = hr03;
},
{
horizontal = 1;
origin = "{0, 30}";
type = Tag;
name = hr04;
},
{
horizontal = 1;
origin = "{2, 11}";
type = Tag;
name = hr06;
}
);
layerId = "F1FC1B3B-4EE8-4ECF-8776-11160932002C";
paths = (
{
closed = 1;
nodes = (
"316 115 OFFCURVE",
"275 165 OFFCURVE",
"275 231 CURVE SMOOTH",
"275 291 OFFCURVE",
"307 319 OFFCURVE",
"345 352 CURVE",
"390 328 OFFCURVE",
"446 314 OFFCURVE",
"501 314 CURVE SMOOTH",
"705 314 OFFCURVE",
"857 445 OFFCURVE",
"857 660 CURVE SMOOTH",
"857 771 OFFCURVE",
"817 840 OFFCURVE",
"763 883 CURVE",
"977 883 LINE",
"977 990 LINE",
"637 990 LINE",
"602 1004 OFFCURVE",
"561 1015 OFFCURVE",
"501 1015 CURVE SMOOTH",
"296 1015 OFFCURVE",
"137 894 OFFCURVE",
"137 664 CURVE SMOOTH",
"137 540 OFFCURVE",
"200 448 OFFCURVE",
"264 395 CURVE",
"264 387 LINE",
"216 353 OFFCURVE",
"157 297 OFFCURVE",
"157 212 CURVE SMOOTH",
"157 135 OFFCURVE",
"194 82 OFFCURVE",
"244 52 CURVE",
"244 44 LINE",
"153 -17 OFFCURVE",
"98 -107 OFFCURVE",
"98 -195 CURVE SMOOTH",
"98 -364 OFFCURVE",
"235 -465 OFFCURVE",
"505 -465 CURVE SMOOTH",
"813 -465 OFFCURVE",
"994 -304 OFFCURVE",
"994 -126 CURVE SMOOTH",
"994 36 OFFCURVE",
"902 115 OFFCURVE",
"669 115 CURVE SMOOTH",
"456 115 LINE"
);
},
{
closed = 1;
nodes = (
"791 0 OFFCURVE",
"860 -45 OFFCURVE",
"860 -144 CURVE SMOOTH",
"860 -256 OFFCURVE",
"733 -364 OFFCURVE",
"525 -364 CURVE SMOOTH",
"321 -364 OFFCURVE",
"222 -291 OFFCURVE",
"222 -178 CURVE SMOOTH",
"222 -114 OFFCURVE",
"254 -39 OFFCURVE",
"334 16 CURVE",
"380 4 OFFCURVE",
"429 0 OFFCURVE",
"460 0 CURVE SMOOTH",
"648 0 LINE"
);
},
{
closed = 1;
nodes = (
"376 410 OFFCURVE",
"271 504 OFFCURVE",
"271 664 CURVE SMOOTH",
"271 831 OFFCURVE",
"368 912 OFFCURVE",
"501 912 CURVE SMOOTH",
"633 912 OFFCURVE",
"729 834 OFFCURVE",
"729 664 CURVE SMOOTH",
"729 502 OFFCURVE",
"623 410 OFFCURVE",
"501 410 CURVE SMOOTH"
);
}
);
width = 1018;
},
{
anchors = (
{
name = btm;
position = "{556, -200}";
},
{
name = top;
position = "{556, 800}";
}
);
hints = (
{
horizontal = 1;
origin = "{0, 41}";
target = "{0, 41}";
type = Tag;
name = hr01;
},
{
horizontal = 1;
origin = "{0, 45}";
target = "{0, 41}";
type = Tag;
name = hr02;
},
{
horizontal = 1;
origin = "{0, 10}";
target = "{0, 41}";
type = Tag;
name = hr03;
},
{
horizontal = 1;
origin = "{0, 28}";
target = "{0, 41}";
type = Tag;
name = hr04;
},
{
horizontal = 1;
origin = "{0, 38}";
target = "{0, 41}";
type = Tag;
name = hr05;
},
{
horizontal = 1;
origin = "{1, 6}";
target = "{0, 41}";
type = Tag;
name = hr06;
},
{
horizontal = 1;
origin = "{2, 0}";
target = "{0, 41}";
type = Tag;
name = hr07;
}
);
layerId = "C4389747-BECF-4D47-A11A-92B8AD605B66";
paths = (
{
closed = 1;
nodes = (
"358 161 OFFCURVE",
"317 198 OFFCURVE",
"317 257 CURVE SMOOTH",
"317 305 OFFCURVE",
"338 323 OFFCURVE",
"370 351 CURVE",
"415 332 OFFCURVE",
"462 322 OFFCURVE",
"509 322 CURVE SMOOTH",
"726 322 OFFCURVE",
"888 437 OFFCURVE",
"888 666 CURVE SMOOTH",
"888 742 OFFCURVE",
"860 807 OFFCURVE",
"823 846 CURVE",
"1012 846 LINE",
"1012 1003 LINE",
"657 1003 LINE",
"617 1018 OFFCURVE",
"571 1028 OFFCURVE",
"509 1028 CURVE SMOOTH",
"294 1028 OFFCURVE",
"117 909 OFFCURVE",
"117 673 CURVE SMOOTH",
"117 549 OFFCURVE",
"182 458 OFFCURVE",
"250 406 CURVE",
"250 398 LINE",
"193 359 OFFCURVE",
"139 300 OFFCURVE",
"139 220 CURVE SMOOTH",
"139 139 OFFCURVE",
"178 94 OFFCURVE",
"229 61 CURVE",
"229 53 LINE",
"137 -3 OFFCURVE",
"84 -97 OFFCURVE",
"84 -184 CURVE SMOOTH",
"84 -359 OFFCURVE",
"239 -449 OFFCURVE",
"500 -449 CURVE SMOOTH",
"833 -449 OFFCURVE",
"1029 -291 OFFCURVE",
"1029 -97 CURVE SMOOTH",
"1029 75 OFFCURVE",
"918 161 OFFCURVE",
"679 161 CURVE SMOOTH",
"484 161 LINE SMOOTH"
);
},
{
closed = 1;
nodes = (
"753 0 OFFCURVE",
"818 -49 OFFCURVE",
"818 -131 CURVE SMOOTH",
"818 -223 OFFCURVE",
"709 -303 OFFCURVE",
"534 -303 CURVE SMOOTH",
"365 -303 OFFCURVE",
"271 -247 OFFCURVE",
"271 -152 CURVE SMOOTH",
"271 -84 OFFCURVE",
"295 -29 OFFCURVE",
"354 14 CURVE",
"393 4 OFFCURVE",
"437 0 OFFCURVE",
"488 0 CURVE SMOOTH",
"635 0 LINE SMOOTH"
);
},
{
closed = 1;
nodes = (
"408 461 OFFCURVE",
"325 533 OFFCURVE",
"325 673 CURVE SMOOTH",
"325 810 OFFCURVE",
"400 874 OFFCURVE",
"509 874 CURVE SMOOTH",
"618 874 OFFCURVE",
"693 809 OFFCURVE",
"693 673 CURVE SMOOTH",
"693 531 OFFCURVE",
"610 461 OFFCURVE",
"509 461 CURVE SMOOTH"
);
}
);
width = 1056;
}
);
leftKerningGroup = g;
rightKerningGroup = g;
unicode = 0067;
userData = {
com.adobe.type.autohint = "ICA8aGludFNldExpc3Q+CiAgICA8aGludHNldCBw";
com.typemytype.robofont.mark = (
1,
0.6,
0.6,
1
);
};
},
{
glyphname = gcommaaccent;
lastChange = "2019-10-26 06:09:29 +0000";
layers = (
{
background = {
paths = (
{
closed = 1;
nodes = (
"540 1143 CURVE",
"572 1214 LINE",
"513 1227 OFFCURVE",
"464 1251 OFFCURVE",
"464 1308 CURVE SMOOTH",
"464 1362 OFFCURVE",
"538 1391 OFFCURVE",
"649 1406 CURVE",
"632 1479 LINE",
"488 1466 OFFCURVE",
"353 1412 OFFCURVE",
"353 1298 CURVE SMOOTH",
"353 1209 OFFCURVE",
"412 1165 OFFCURVE"
);
}
);
};
components = (
{
name = g;
},
{
name = commaaccentcomb;
transform = "{-1, 0, 0, -1, 486, 1042}";
}
);
hints = (
{
horizontal = 1;
place = "{1143, 0}";
type = Tag;
name = hr00;
}
);
layerId = "F1FC1B3B-4EE8-4ECF-8776-11160932002C";
width = 1018;
},
{
components = (
{
name = g;
},
{
name = commaaccentcomb;
transform = "{-1, 0, 0, -1, 552, 1037}";
}
);
layerId = "C4389747-BECF-4D47-A11A-92B8AD605B66";
width = 1056;
}
);
leftKerningGroup = g;
leftMetricsKey = g;
rightKerningGroup = g;
rightMetricsKey = g;
unicode = 0123;
userData = {
com.typemytype.robofont.mark = (
0.967,
0.6,
1,
1
);
};
},
{
glyphname = h;
lastChange = "2019-10-26 06:09:29 +0000";
layers = (
{
anchors = (
{
name = btm;
position = "{560, -300}";
},
{
name = top;
position = "{239, 1208}";
}
);
hints = (
{
horizontal = 1;
origin = "{0, 20}";
type = Tag;
name = hr00;
}
);
layerId = "F1FC1B3B-4EE8-4ECF-8776-11160932002C";
paths = (
{
closed = 1;
nodes = (
"313 0 LINE",
"313 729 LINE",
"421 839 OFFCURVE",
"497 895 OFFCURVE",
"605 895 CURVE SMOOTH",
"751 895 OFFCURVE",
"808 810 OFFCURVE",
"808 614 CURVE SMOOTH",
"808 0 LINE",
"944 0 LINE",
"944 633 LINE",
"944 887 OFFCURVE",
"854 1015 OFFCURVE",
"644 1015 CURVE SMOOTH",
"507 1015 OFFCURVE",
"406 940 OFFCURVE",
"309 845 CURVE",
"313 1055 LINE",
"313 1464 LINE",
"176 1464 LINE",
"176 0 LINE"
);
}
);
width = 1100;
},
{
anchors = (
{
name = btm;
position = "{576, -200}";
},
{
name = top;
position = "{262, 928}";
}
);
hints = (
{
horizontal = 1;
origin = "{0, 0}";
target = "{0, 0}";
type = Tag;
name = hr00;
}
);
layerId = "C4389747-BECF-4D47-A11A-92B8AD605B66";
paths = (
{
closed = 1;
nodes = (
"373 0 LINE",
"373 708 LINE",
"460 794 OFFCURVE",
"522 840 OFFCURVE",
"614 840 CURVE SMOOTH",
"731 840 OFFCURVE",
"778 776 OFFCURVE",
"778 604 CURVE SMOOTH",
"778 0 LINE",
"997 0 LINE",
"997 633 LINE SMOOTH",
"997 887 OFFCURVE",
"906 1028 OFFCURVE",
"689 1028 CURVE SMOOTH",
"551 1028 OFFCURVE",
"451 955 OFFCURVE",
"364 873 CURVE",
"373 1069 LINE",
"373 1450 LINE",
"155 1450 LINE",
"155 0 LINE"
);
}
);
width = 1135;
}
);
leftKerningGroup = h;
rightKerningGroup = n;
unicode = 0068;
userData = {
com.adobe.type.autohint = "ICA8aGludFNldExpc3Q+CiAgICA8aGludHNldCBw";
com.typemytype.robofont.mark = (
1,
0.6,
0.6,
1
);
};
},
{
glyphname = hbar;
lastChange = "2019-10-26 06:09:29 +0000";
layers = (
{
hints = (
{
horizontal = 1;
origin = "{0, 17}";
type = Tag;
name = hr00;
}
);
layerId = "F1FC1B3B-4EE8-4ECF-8776-11160932002C";
paths = (
{
closed = 1;
nodes = (
"313 0 LINE",
"313 688 LINE",
"421 798 OFFCURVE",
"497 855 OFFCURVE",
"605 855 CURVE SMOOTH",
"748 855 OFFCURVE",
"808 767 OFFCURVE",
"808 572 CURVE SMOOTH",
"808 0 LINE",
"944 0 LINE",
"944 590 LINE",
"944 844 OFFCURVE",
"850 974 OFFCURVE",
"644 974 CURVE SMOOTH",
"507 974 OFFCURVE",
"406 899 OFFCURVE",
"309 804 CURVE",
"313 1014 LINE",
"313 1178 LINE",
"692 1178 LINE",
"692 1263 LINE",
"313 1263 LINE",
"313 1464 LINE",
"176 1464 LINE",
"176 1263 LINE",
"22 1254 LINE",
"22 1178 LINE",
"176 1178 LINE",
"176 0 LINE"
);
}
);
width = 1100;
},
{
hints = (
{
horizontal = 1;
origin = "{0, 0}";
target = "{0, 0}";
type = Tag;
name = hr00;
}
);
layerId = "C4389747-BECF-4D47-A11A-92B8AD605B66";
paths = (
{
closed = 1;
nodes = (
"373 0 LINE",
"373 667 LINE",
"460 753 OFFCURVE",
"522 799 OFFCURVE",
"614 799 CURVE SMOOTH",
"728 799 OFFCURVE",
"778 733 OFFCURVE",
"778 561 CURVE SMOOTH",
"778 0 LINE",
"997 0 LINE",
"997 590 LINE SMOOTH",
"997 844 OFFCURVE",
"902 987 OFFCURVE",
"689 987 CURVE SMOOTH",
"551 987 OFFCURVE",
"451 914 OFFCURVE",
"364 832 CURVE",
"373 1028 LINE",
"373 1158 LINE",
"544 1158 LINE",
"544 1274 LINE",
"373 1274 LINE",
"373 1450 LINE",
"155 1450 LINE",
"155 1273 LINE",
"8 1273 LINE",
"8 1158 LINE",
"155 1158 LINE",
"155 0 LINE"
);
}
);
width = 1135;
}
);
leftKerningGroup = h;
rightKerningGroup = n;
unicode = 0127;
userData = {
com.adobe.type.autohint = "ICA8aGludFNldExpc3Q+CiAgICA8aGludHNldCBw";
};
},
{
glyphname = i;
lastChange = "2019-10-26 06:09:29 +0000";
layers = (
{
layerId = "F1FC1B3B-4EE8-4ECF-8776-11160932002C";
paths = (
{
closed = 1;
nodes = (
"313 0 LINE",
"313 990 LINE",
"176 990 LINE",
"176 0 LINE"
);
},
{
closed = 1;
nodes = (
"303 1209 OFFCURVE",
"349 1248 OFFCURVE",
"349 1305 CURVE SMOOTH",
"349 1365 OFFCURVE",
"303 1403 OFFCURVE",
"247 1403 CURVE SMOOTH",
"189 1403 OFFCURVE",
"144 1365 OFFCURVE",
"144 1305 CURVE SMOOTH",
"144 1248 OFFCURVE",
"189 1209 OFFCURVE",
"247 1209 CURVE SMOOTH"
);
}
);
width = 490;
},
{
layerId = "C4389747-BECF-4D47-A11A-92B8AD605B66";
paths = (
{
closed = 1;
nodes = (
"373 0 LINE",
"373 1003 LINE",
"155 1003 LINE",
"155 0 LINE"
);
},
{
closed = 1;
nodes = (
"344 1187 OFFCURVE",
"404 1240 OFFCURVE",
"404 1314 CURVE SMOOTH",
"404 1390 OFFCURVE",
"344 1441 OFFCURVE",
"265 1441 CURVE SMOOTH",
"186 1441 OFFCURVE",
"126 1390 OFFCURVE",
"126 1314 CURVE SMOOTH",
"126 1240 OFFCURVE",
"186 1187 OFFCURVE",
"265 1187 CURVE SMOOTH"
);
}
);
width = 527;
}
);
leftKerningGroup = i;
rightKerningGroup = i;
unicode = 0069;
userData = {
com.adobe.type.autohint = "ICA8aGludFNldExpc3Q+CiAgICA8aGludHNldCBw";
com.typemytype.robofont.mark = (
1,
0.6,
0.6,
1
);
};
},
{
glyphname = idotless;
lastChange = "2019-10-26 06:09:29 +0000";
layers = (
{
anchors = (
{
name = btm;
position = "{244, -300}";
},
{
name = top;
position = "{244, 1050}";
}
);
hints = (
{
horizontal = 1;
origin = "{0, 3}";
type = Tag;
name = hr00;
}
);
layerId = "F1FC1B3B-4EE8-4ECF-8776-11160932002C";
paths = (
{
closed = 1;
nodes = (
"313 0 LINE",
"313 990 LINE",
"176 990 LINE",
"176 0 LINE"
);
}
);
width = 490;
},
{
anchors = (
{
name = btm;
position = "{264, -200}";
},
{
name = top;
position = "{264, 800}";
}
);
hints = (
{
horizontal = 1;
origin = "{0, 1}";
target = "{0, 1}";
type = Tag;
name = hr00;
}
);
layerId = "C4389747-BECF-4D47-A11A-92B8AD605B66";
paths = (
{
closed = 1;
nodes = (
"373 0 LINE",
"373 1003 LINE",
"155 1003 LINE",
"155 0 LINE"
);
}
);
width = 527;
}
);
leftKerningGroup = idotless;
rightKerningGroup = idotless;
unicode = 0131;
userData = {
com.adobe.type.autohint = "ICA8aGludFNldExpc3Q+CiAgICA8aGludHNldCBw";
com.typemytype.robofont.mark = (
1,
0.6,
0.6,
1
);
};
},
{
glyphname = iogonek;
lastChange = "2019-10-26 06:10:49 +0000";
layers = (
{
hints = (
{
horizontal = 1;
origin = "{0, 11}";
type = Tag;
name = hr01;
},
{
horizontal = 1;
origin = "{0, 15}";
type = Tag;
name = hr02;
},
{
horizontal = 1;
origin = "{0, 21}";
type = Tag;
name = hr03;
},
{
horizontal = 1;
origin = "{0, 2}";
type = Tag;
name = hr04;
},
{
horizontal = 1;
origin = "{0, 8}";
type = Tag;
name = hr05;
},
{
horizontal = 1;
origin = "{1, 11}";
type = Tag;
name = hr06;
}
);
layerId = "F1FC1B3B-4EE8-4ECF-8776-11160932002C";
paths = (
{
closed = 1;
nodes = (
"337 -314 OFFCURVE",
"313 -323 OFFCURVE",
"281 -323 CURVE SMOOTH",
"230 -323 OFFCURVE",
"183 -290 OFFCURVE",
"183 -224 CURVE SMOOTH",
"183 -141 OFFCURVE",
"237 -64 OFFCURVE",
"313 0 CURVE",
"313 990 LINE",
"176 990 LINE",
"176 0 LINE",
"207 0 LINE",
"148 -61 OFFCURVE",
"77 -140 OFFCURVE",
"77 -249 CURVE SMOOTH",
"77 -361 OFFCURVE",
"155 -420 OFFCURVE",
"255 -420 CURVE SMOOTH",
"303 -420 OFFCURVE",
"368 -396 OFFCURVE",
"404 -368 CURVE",
"365 -296 LINE"
);
},
{
closed = 1;
nodes = (
"299 1209 OFFCURVE",
"346 1248 OFFCURVE",
"346 1305 CURVE SMOOTH",
"346 1365 OFFCURVE",
"299 1403 OFFCURVE",
"243 1403 CURVE SMOOTH",
"187 1403 OFFCURVE",
"141 1365 OFFCURVE",
"141 1305 CURVE SMOOTH",
"141 1248 OFFCURVE",
"187 1209 OFFCURVE",
"243 1209 CURVE SMOOTH"
);
}
);
width = 490;
},
{
hints = (
{
horizontal = 1;
origin = "{0, 19}";
target = "{0, 19}";
type = Tag;
name = hr01;
},
{
horizontal = 1;
origin = "{1, 0}";
target = "{0, 19}";
type = Tag;
name = hr02;
},
{
horizontal = 1;
origin = "{1, 6}";
target = "{0, 19}";
type = Tag;
name = hr03;
},
{
horizontal = 1;
origin = "{1, 0}";
target = "{0, 19}";
type = Tag;
name = hr04;
},
{
horizontal = 1;
origin = "{1, 4}";
target = "{0, 19}";
type = Tag;
name = hr05;
},
{
horizontal = 1;
origin = "{1, 10}";
target = "{0, 19}";
type = Tag;
name = hr06;
}
);
layerId = "C4389747-BECF-4D47-A11A-92B8AD605B66";
paths = (
{
closed = 1;
nodes = (
"380 -276 OFFCURVE",
"356 -287 OFFCURVE",
"328 -287 CURVE SMOOTH",
"279 -287 OFFCURVE",
"235 -259 OFFCURVE",
"235 -199 CURVE SMOOTH",
"235 -127 OFFCURVE",
"281 -52 OFFCURVE",
"373 0 CURVE",
"373 1003 LINE",
"155 1003 LINE",
"155 0 LINE",
"212 0 LINE",
"157 -51 OFFCURVE",
"80 -132 OFFCURVE",
"80 -246 CURVE SMOOTH",
"80 -364 OFFCURVE",
"168 -425 OFFCURVE",
"278 -425 CURVE SMOOTH",
"334 -425 OFFCURVE",
"412 -399 OFFCURVE",
"456 -365 CURVE",
"406 -262 LINE"
);
},
{
closed = 1;
nodes = (
"341 1187 OFFCURVE",
"401 1240 OFFCURVE",
"401 1314 CURVE SMOOTH",
"401 1390 OFFCURVE",
"341 1441 OFFCURVE",
"264 1441 CURVE SMOOTH",
"184 1441 OFFCURVE",
"125 1390 OFFCURVE",
"125 1314 CURVE SMOOTH",
"125 1240 OFFCURVE",
"184 1187 OFFCURVE",
"264 1187 CURVE SMOOTH"
);
}
);
width = 527;
}
);
leftKerningGroup = i;
rightKerningGroup = i;
unicode = 012F;
userData = {
com.adobe.type.autohint = "ICA8aGludFNldExpc3Q+CiAgICA8aGludHNldCBw";
};
},
{
glyphname = j;
lastChange = "2019-10-26 06:10:49 +0000";
layers = (
{
anchors = (
{
name = btm;
position = "{137, -300}";
},
{
name = top;
position = "{248, 1050}";
}
);
hints = (
{
horizontal = 1;
origin = "{0, 1}";
type = Tag;
name = hr01;
},
{
horizontal = 1;
origin = "{0, 8}";
type = Tag;
name = hr02;
},
{
horizontal = 1;
origin = "{0, 11}";
type = Tag;
name = hr03;
},
{
horizontal = 1;
origin = "{1, 11}";
type = Tag;
name = hr04;
}
);
layerId = "F1FC1B3B-4EE8-4ECF-8776-11160932002C";
paths = (
{
closed = 1;
nodes = (
"177 990 LINE",
"177 -142 LINE",
"177 -264 OFFCURVE",
"154 -341 OFFCURVE",
"51 -341 CURVE SMOOTH",
"14 -341 OFFCURVE",
"-22 -332 OFFCURVE",
"-46 -324 CURVE",
"-76 -429 LINE",
"-43 -442 OFFCURVE",
"7 -454 OFFCURVE",
"63 -454 CURVE SMOOTH",
"242 -454 OFFCURVE",
"315 -343 OFFCURVE",
"315 -145 CURVE SMOOTH",
"315 990 LINE"
);
},
{
closed = 1;
nodes = (
"303 1209 OFFCURVE",
"350 1248 OFFCURVE",
"350 1305 CURVE SMOOTH",
"350 1365 OFFCURVE",
"303 1403 OFFCURVE",
"248 1403 CURVE SMOOTH",
"191 1403 OFFCURVE",
"145 1365 OFFCURVE",
"145 1305 CURVE SMOOTH",
"145 1248 OFFCURVE",
"191 1209 OFFCURVE",
"248 1209 CURVE SMOOTH"
);
}
);
width = 491;
},
{
anchors = (
{
name = btm;
position = "{157, -200}";
},
{
name = top;
position = "{157, 800}";
}
);
hints = (
{
horizontal = 1;
origin = "{0, 12}";
target = "{0, 12}";
type = Tag;
name = hr01;
},
{
horizontal = 1;
origin = "{1, 0}";
target = "{0, 12}";
type = Tag;
name = hr02;
},
{
horizontal = 1;
origin = "{1, 8}";
target = "{0, 12}";
type = Tag;
name = hr03;
},
{
horizontal = 1;
origin = "{1, 3}";
target = "{0, 12}";
type = Tag;
name = hr04;
}
);
layerId = "C4389747-BECF-4D47-A11A-92B8AD605B66";
paths = (
{
closed = 1;
nodes = (
"157 1003 LINE",
"157 -74 LINE SMOOTH",
"157 -192 OFFCURVE",
"131 -253 OFFCURVE",
"40 -253 CURVE SMOOTH",
"7 -253 OFFCURVE",
"-24 -246 OFFCURVE",
"-49 -238 CURVE",
"-90 -401 LINE",
"-53 -416 OFFCURVE",
"-1 -428 OFFCURVE",
"69 -428 CURVE SMOOTH",
"297 -428 OFFCURVE",
"375 -281 OFFCURVE",
"375 -71 CURVE SMOOTH",
"375 1003 LINE"
);
},
{
closed = 1;
nodes = (
"345 1187 OFFCURVE",
"405 1240 OFFCURVE",
"405 1314 CURVE SMOOTH",
"405 1390 OFFCURVE",
"345 1441 OFFCURVE",
"268 1441 CURVE SMOOTH",
"188 1441 OFFCURVE",
"129 1390 OFFCURVE",
"129 1314 CURVE SMOOTH",
"129 1240 OFFCURVE",
"188 1187 OFFCURVE",
"268 1187 CURVE SMOOTH"
);
}
);
width = 530;
}
);
leftKerningGroup = j;
rightKerningGroup = j;
unicode = 006A;
userData = {
com.adobe.type.autohint = "ICA8aGludFNldExpc3Q+CiAgICA8aGludHNldCBw";
com.typemytype.robofont.mark = (
1,
0.6,
0.6,
1
);
};
},
{
glyphname = jdotless;
lastChange = "2019-10-26 06:10:49 +0000";
layers = (
{
anchors = (
{
name = btm;
position = "{119, -300}";
},
{
name = top;
position = "{248, 1050}";
}
);
hints = (
{
horizontal = 1;
origin = "{0, 1}";
type = Tag;
name = hr01;
},
{
horizontal = 1;
origin = "{0, 8}";
type = Tag;
name = hr02;
},
{
horizontal = 1;
origin = "{0, 11}";
type = Tag;
name = hr03;
}
);
layerId = "F1FC1B3B-4EE8-4ECF-8776-11160932002C";
paths = (
{
closed = 1;
nodes = (
"177 990 LINE",
"177 -142 LINE",
"177 -264 OFFCURVE",
"154 -341 OFFCURVE",
"51 -341 CURVE SMOOTH",
"14 -341 OFFCURVE",
"-22 -332 OFFCURVE",
"-46 -324 CURVE",
"-76 -429 LINE",
"-43 -442 OFFCURVE",
"7 -454 OFFCURVE",
"63 -454 CURVE SMOOTH",
"242 -454 OFFCURVE",
"315 -343 OFFCURVE",
"315 -145 CURVE SMOOTH",
"315 990 LINE"
);
}
);
width = 491;
},
{
anchors = (
{
name = btm;
position = "{143, -200}";
},
{
name = top;
position = "{271, 800}";
}
);
hints = (
{
horizontal = 1;
origin = "{0, 12}";
target = "{0, 12}";
type = Tag;
name = hr00;
}
);
layerId = "C4389747-BECF-4D47-A11A-92B8AD605B66";
paths = (
{
closed = 1;
nodes = (
"156 1004 LINE",
"156 -67 LINE SMOOTH",
"156 -184 OFFCURVE",
"130 -249 OFFCURVE",
"40 -249 CURVE SMOOTH",
"7 -249 OFFCURVE",
"-24 -242 OFFCURVE",
"-49 -234 CURVE",
"-91 -399 LINE",
"-54 -414 OFFCURVE",
"-2 -426 OFFCURVE",
"69 -426 CURVE SMOOTH",
"299 -426 OFFCURVE",
"378 -274 OFFCURVE",
"378 -64 CURVE",
"378 1004 LINE"
);
}
);
width = 532;
}
);
leftKerningGroup = jdotless;
rightKerningGroup = jdotless;
unicode = 0237;
userData = {
com.adobe.type.autohint = "ICA8aGludFNldExpc3Q+CiAgICA8aGludHNldCBw";
com.typemytype.robofont.mark = (
1,
0.6,
0.6,
1
);
};
},
{
glyphname = k;
lastChange = "2019-10-26 06:09:29 +0000";
layers = (
{
anchors = (
{
name = btm;
position = "{547, -300}";
},
{
name = top;
position = "{248, 1208}";
}
);
hints = (
{
horizontal = 1;
origin = "{0, 12}";
type = Tag;
name = hr00;
}
);
layerId = "F1FC1B3B-4EE8-4ECF-8776-11160932002C";
paths = (
{
closed = 1;
nodes = (
"311 0 LINE",
"311 264 LINE",
"512 498 LINE",
"817 0 LINE",
"967 0 LINE",
"590 595 LINE",
"918 990 LINE",
"766 990 LINE",
"317 437 LINE",
"311 437 LINE",
"311 1464 LINE",
"176 1464 LINE",
"176 0 LINE"
);
}
);
width = 988;
},
{
anchors = (
{
name = btm;
position = "{597, -200}";
},
{
name = top;
position = "{597, 800}";
}
);
hints = (
{
horizontal = 1;
origin = "{0, 10}";
target = "{0, 10}";
type = Tag;
name = hr00;
}
);
layerId = "C4389747-BECF-4D47-A11A-92B8AD605B66";
paths = (
{
closed = 1;
nodes = (
"369 0 LINE",
"369 257 LINE",
"533 447 LINE",
"801 0 LINE",
"1039 0 LINE",
"658 597 LINE",
"1001 1003 LINE",
"761 1003 LINE",
"376 525 LINE",
"369 525 LINE",
"369 1450 LINE",
"155 1450 LINE",
"155 0 LINE"
);
}
);
width = 1055;
}
);
leftKerningGroup = h;
rightKerningGroup = k;
unicode = 006B;
userData = {
com.adobe.type.autohint = "ICA8aGludFNldExpc3Q+CiAgICA8aGludHNldCBw";
com.typemytype.robofont.mark = (
1,
0.6,
0.6,
1
);
};
},
{
glyphname = kgreenlandic;
lastChange = "2019-10-26 06:09:29 +0000";
layers = (
{
hints = (
{
horizontal = 1;
origin = "{0, 12}";
type = Tag;
name = hr00;
}
);
layerId = "F1FC1B3B-4EE8-4ECF-8776-11160932002C";
paths = (
{
closed = 1;
nodes = (
"313 0 LINE",
"313 260 LINE",
"512 495 LINE",
"817 0 LINE",
"967 0 LINE",
"593 595 LINE",
"918 990 LINE",
"766 990 LINE",
"319 434 LINE",
"313 434 LINE",
"313 990 LINE",
"176 990 LINE",
"176 0 LINE"
);
}
);
width = 988;
},
{
hints = (
{
horizontal = 1;
origin = "{0, 10}";
target = "{0, 10}";
type = Tag;
name = hr00;
}
);
layerId = "C4389747-BECF-4D47-A11A-92B8AD605B66";
paths = (
{
closed = 1;
nodes = (
"373 0 LINE",
"373 250 LINE",
"533 440 LINE",
"801 0 LINE",
"1039 0 LINE",
"665 597 LINE",
"1001 1003 LINE",
"761 1003 LINE",
"379 520 LINE",
"373 520 LINE",
"373 1003 LINE",
"155 1003 LINE",
"155 0 LINE"
);
}
);
width = 1055;
}
);
leftKerningGroup = h;
rightKerningGroup = k;
unicode = 0138;
userData = {
com.adobe.type.autohint = "ICA8aGludFNldExpc3Q+CiAgICA8aGludHNldCBw";
};
},
{
glyphname = l;
lastChange = "2019-10-26 06:10:49 +0000";
layers = (
{
anchors = (
{
name = bottom;
position = "{254, 0}";
},
{
name = center;
position = "{254, 495}";
},
{
name = top;
position = "{254, 990}";
},
{
name = topright;
position = "{487, 990}";
}
);
hints = (
{
horizontal = 1;
origin = "{0, 8}";
type = Tag;
name = hr01;
},
{
horizontal = 1;
origin = "{0, 11}";
type = Tag;
name = hr02;
}
);
layerId = "F1FC1B3B-4EE8-4ECF-8776-11160932002C";
paths = (
{
closed = 1;
nodes = (
"375 90 OFFCURVE",
"367 90 OFFCURVE",
"358 90 CURVE SMOOTH",
"333 90 OFFCURVE",
"313 111 OFFCURVE",
"313 160 CURVE SMOOTH",
"313 1464 LINE",
"176 1464 LINE",
"176 172 LINE",
"176 43 OFFCURVE",
"223 -25 OFFCURVE",
"331 -25 CURVE SMOOTH",
"369 -25 OFFCURVE",
"394 -19 OFFCURVE",
"415 -10 CURVE",
"395 94 LINE"
);
}
);
width = 507;
},
{
anchors = (
{
name = bottom;
position = "{273, 0}";
},
{
name = center;
position = "{273, 502}";
},
{
name = top;
position = "{273, 1003}";
},
{
name = topright;
position = "{526, 1003}";
}
);
hints = (
{
horizontal = 1;
origin = "{0, 12}";
target = "{0, 12}";
type = Tag;
name = hr01;
},
{
horizontal = 1;
origin = "{0, 1}";
target = "{0, 12}";
type = Tag;
name = hr02;
},
{
horizontal = 1;
origin = "{0, 5}";
target = "{0, 12}";
type = Tag;
name = hr03;
}
);
layerId = "C4389747-BECF-4D47-A11A-92B8AD605B66";
paths = (
{
closed = 1;
nodes = (
"442 155 OFFCURVE",
"434 155 OFFCURVE",
"423 155 CURVE SMOOTH",
"398 155 OFFCURVE",
"373 175 OFFCURVE",
"373 232 CURVE SMOOTH",
"373 1450 LINE",
"155 1450 LINE",
"155 245 LINE SMOOTH",
"155 76 OFFCURVE",
"213 -25 OFFCURVE",
"370 -25 CURVE SMOOTH",
"424 -25 OFFCURVE",
"461 -16 OFFCURVE",
"487 -5 CURVE",
"460 159 LINE"
);
}
);
width = 546;
}
);
leftKerningGroup = h;
rightKerningGroup = l;
unicode = 006C;
userData = {
com.adobe.type.autohint = "ICA8aGludFNldExpc3Q+CiAgICA8aGludHNldCBw";
com.typemytype.robofont.mark = (
0.967,
0.6,
1,
1
);
};
},
{
glyphname = lslash;
lastChange = "2019-10-26 06:10:49 +0000";
layers = (
{
hints = (
{
horizontal = 1;
origin = "{0, 7}";
type = Tag;
name = hr01;
},
{
horizontal = 1;
origin = "{0, 19}";
type = Tag;
name = hr02;
}
);
layerId = "F1FC1B3B-4EE8-4ECF-8776-11160932002C";
paths = (
{
closed = 1;
nodes = (
"382 90 OFFCURVE",
"374 90 OFFCURVE",
"365 90 CURVE SMOOTH",
"340 90 OFFCURVE",
"320 111 OFFCURVE",
"320 160 CURVE SMOOTH",
"320 779 LINE",
"466 873 LINE",
"466 994 LINE",
"320 899 LINE",
"320 1464 LINE",
"182 1464 LINE",
"182 825 LINE",
"51 741 LINE",
"51 621 LINE",
"182 705 LINE",
"182 172 LINE",
"182 43 OFFCURVE",
"230 -25 OFFCURVE",
"336 -25 CURVE SMOOTH",
"376 -25 OFFCURVE",
"399 -19 OFFCURVE",
"422 -10 CURVE",
"401 94 LINE"
);
}
);
width = 517;
},
{
hints = (
{
horizontal = 1;
origin = "{0, 20}";
target = "{0, 20}";
type = Tag;
name = hr01;
}
);
layerId = "C4389747-BECF-4D47-A11A-92B8AD605B66";
paths = (
{
closed = 1;
nodes = (
"455 155 OFFCURVE",
"446 155 OFFCURVE",
"437 155 CURVE SMOOTH",
"413 155 OFFCURVE",
"388 175 OFFCURVE",
"388 232 CURVE",
"388 747 LINE",
"527 834 LINE",
"527 1014 LINE",
"388 927 LINE",
"388 1450 LINE",
"168 1450 LINE",
"168 816 LINE",
"41 736 LINE",
"41 556 LINE",
"168 635 LINE",
"168 245 LINE SMOOTH",
"168 76 OFFCURVE",
"227 -25 OFFCURVE",
"383 -25 CURVE SMOOTH",
"437 -25 OFFCURVE",
"473 -16 OFFCURVE",
"502 -5 CURVE",
"474 159 LINE"
);
}
);
width = 569;
}
);
leftKerningGroup = lslash;
rightKerningGroup = lslash;
unicode = 0142;
userData = {
com.adobe.type.autohint = "ICA8aGludFNldExpc3Q+CiAgICA8aGludHNldCBw";
};
},
{
glyphname = m;
lastChange = "2019-10-26 06:09:29 +0000";
layers = (
{
anchors = (
{
name = btm;
position = "{848, -300}";
},
{
name = top;
position = "{848, 1050}";
}
);
hints = (
{
horizontal = 1;
origin = "{0, 35}";
type = Tag;
name = hr01;
},
{
horizontal = 1;
origin = "{0, 33}";
type = Tag;
name = hr02;
}
);
layerId = "F1FC1B3B-4EE8-4ECF-8776-11160932002C";
paths = (
{
closed = 1;
nodes = (
"313 0 LINE",
"313 729 LINE",
"411 840 OFFCURVE",
"501 895 OFFCURVE",
"581 895 CURVE SMOOTH",
"724 895 OFFCURVE",
"781 811 OFFCURVE",
"781 615 CURVE SMOOTH",
"781 0 LINE",
"917 0 LINE",
"917 732 LINE",
"1016 843 OFFCURVE",
"1102 895 OFFCURVE",
"1186 895 CURVE SMOOTH",
"1327 895 OFFCURVE",
"1384 811 OFFCURVE",
"1384 615 CURVE SMOOTH",
"1384 0 LINE",
"1521 0 LINE",
"1521 634 LINE",
"1521 888 OFFCURVE",
"1429 1015 OFFCURVE",
"1221 1015 CURVE SMOOTH",
"1104 1015 OFFCURVE",
"999 940 OFFCURVE",
"891 823 CURVE",
"852 943 OFFCURVE",
"777 1015 OFFCURVE",
"618 1015 CURVE SMOOTH",
"503 1015 OFFCURVE",
"396 940 OFFCURVE",
"309 843 CURVE",
"302 843 LINE",
"290 990 LINE",
"176 990 LINE",
"176 0 LINE"
);
}
);
width = 1684;
},
{
anchors = (
{
name = btm;
position = "{887, -200}";
},
{
name = top;
position = "{865, 800}";
}
);
hints = (
{
horizontal = 1;
origin = "{0, 0}";
target = "{0, 0}";
type = Tag;
name = hr01;
},
{
horizontal = 1;
origin = "{0, 7}";
target = "{0, 0}";
type = Tag;
name = hr02;
}
);
layerId = "C4389747-BECF-4D47-A11A-92B8AD605B66";
paths = (
{
closed = 1;
nodes = (
"373 0 LINE",
"373 708 LINE",
"455 796 OFFCURVE",
"529 840 OFFCURVE",
"594 840 CURVE SMOOTH",
"711 840 OFFCURVE",
"756 781 OFFCURVE",
"756 609 CURVE SMOOTH",
"756 0 LINE",
"975 0 LINE",
"975 711 LINE",
"1057 799 OFFCURVE",
"1128 840 OFFCURVE",
"1196 840 CURVE SMOOTH",
"1312 840 OFFCURVE",
"1358 777 OFFCURVE",
"1358 605 CURVE SMOOTH",
"1358 0 LINE",
"1576 0 LINE",
"1576 634 LINE SMOOTH",
"1576 888 OFFCURVE",
"1485 1028 OFFCURVE",
"1268 1028 CURVE SMOOTH",
"1142 1028 OFFCURVE",
"1042 953 OFFCURVE",
"943 848 CURVE",
"901 969 OFFCURVE",
"824 1028 OFFCURVE",
"669 1028 CURVE SMOOTH",
"545 1028 OFFCURVE",
"444 955 OFFCURVE",
"359 865 CURVE",
"351 865 LINE",
"334 1003 LINE",
"155 1003 LINE",
"155 0 LINE"
);
}
);
width = 1720;
}
);
leftKerningGroup = n;
rightKerningGroup = n;
unicode = 006D;
userData = {
com.adobe.type.autohint = "ICA8aGludFNldExpc3Q+CiAgICA8aGludHNldCBw";
com.typemytype.robofont.mark = (
1,
0.6,
0.6,
1
);
};
},
{
glyphname = n;
lastChange = "2019-10-26 06:09:29 +0000";
layers = (
{
anchors = (
{
name = btm;
position = "{560, -300}";
},
{
name = top;
position = "{597, 1050}";
}
);
hints = (
{
horizontal = 1;
origin = "{0, 20}";
type = Tag;
name = hr01;
},
{
horizontal = 1;
origin = "{0, 18}";
type = Tag;
name = hr02;
}
);
layerId = "F1FC1B3B-4EE8-4ECF-8776-11160932002C";
paths = (
{
closed = 1;
nodes = (
"313 0 LINE",
"313 729 LINE",
"421 839 OFFCURVE",
"497 895 OFFCURVE",
"605 895 CURVE SMOOTH",
"754 895 OFFCURVE",
"808 811 OFFCURVE",
"808 615 CURVE SMOOTH",
"808 0 LINE",
"944 0 LINE",
"944 634 LINE",
"944 888 OFFCURVE",
"856 1015 OFFCURVE",
"644 1015 CURVE SMOOTH",
"507 1015 OFFCURVE",
"405 940 OFFCURVE",
"309 843 CURVE",
"302 843 LINE",
"290 990 LINE",
"176 990 LINE",
"176 0 LINE"
);
}
);
width = 1108;
},
{
anchors = (
{
name = btm;
position = "{597, -200}";
},
{
name = top;
position = "{597, 800}";
}
);
hints = (
{
horizontal = 1;
origin = "{0, 0}";
target = "{0, 0}";
type = Tag;
name = hr01;
},
{
horizontal = 1;
origin = "{0, 7}";
target = "{0, 0}";
type = Tag;
name = hr02;
}
);
layerId = "C4389747-BECF-4D47-A11A-92B8AD605B66";
paths = (
{
closed = 1;
nodes = (
"373 0 LINE",
"373 708 LINE",
"460 794 OFFCURVE",
"522 840 OFFCURVE",
"614 840 CURVE SMOOTH",
"734 840 OFFCURVE",
"778 777 OFFCURVE",
"778 605 CURVE SMOOTH",
"778 0 LINE",
"997 0 LINE",
"997 634 LINE SMOOTH",
"997 888 OFFCURVE",
"908 1028 OFFCURVE",
"689 1028 CURVE SMOOTH",
"551 1028 OFFCURVE",
"449 955 OFFCURVE",
"359 865 CURVE",
"351 865 LINE",
"334 1003 LINE",
"155 1003 LINE",
"155 0 LINE"
);
}
);
width = 1139;
}
);
leftKerningGroup = n;
rightKerningGroup = n;
unicode = 006E;
userData = {
com.adobe.type.autohint = "ICA8aGludFNldExpc3Q+CiAgICA8aGludHNldCBw";
com.typemytype.robofont.mark = (
1,
0.6,
0.6,
1
);
};
},
{
glyphname = o;
lastChange = "2019-10-26 06:09:29 +0000";
layers = (
{
anchors = (
{
name = btm;
position = "{552, -300}";
},
{
name = top;
position = "{552, 1050}";
}
);
hints = (
{
horizontal = 1;
origin = "{0, 8}";
type = Tag;
name = hr00;
}
);
layerId = "F1FC1B3B-4EE8-4ECF-8776-11160932002C";
paths = (
{
closed = 1;
nodes = (
"797 -25 OFFCURVE",
"1005 162 OFFCURVE",
"1005 494 CURVE SMOOTH",
"1005 831 OFFCURVE",
"797 1015 OFFCURVE",
"551 1015 CURVE SMOOTH",
"306 1015 OFFCURVE",
"100 831 OFFCURVE",
"100 494 CURVE SMOOTH",
"100 162 OFFCURVE",
"306 -25 OFFCURVE",
"551 -25 CURVE SMOOTH"
);
},
{
closed = 1;
nodes = (
"366 90 OFFCURVE",
"241 251 OFFCURVE",
"241 494 CURVE SMOOTH",
"241 739 OFFCURVE",
"366 900 OFFCURVE",
"551 900 CURVE SMOOTH",
"737 900 OFFCURVE",
"864 739 OFFCURVE",
"864 494 CURVE SMOOTH",
"864 251 OFFCURVE",
"737 90 OFFCURVE",
"551 90 CURVE SMOOTH"
);
}
);
width = 1104;
},
{
anchors = (
{
name = btm;
position = "{560, -200}";
},
{
name = top;
position = "{560, 800}";
}
);
hints = (
{
horizontal = 1;
origin = "{0, 5}";
target = "{0, 5}";
type = Tag;
name = hr00;
}
);
layerId = "C4389747-BECF-4D47-A11A-92B8AD605B66";
paths = (
{
closed = 1;
nodes = (
"813 -25 OFFCURVE",
"1034 164 OFFCURVE",
"1034 502 CURVE SMOOTH",
"1034 842 OFFCURVE",
"813 1028 OFFCURVE",
"560 1028 CURVE SMOOTH",
"306 1028 OFFCURVE",
"87 842 OFFCURVE",
"87 502 CURVE SMOOTH",
"87 164 OFFCURVE",
"306 -25 OFFCURVE",
"560 -25 CURVE SMOOTH"
);
},
{
closed = 1;
nodes = (
"404 155 OFFCURVE",
"313 291 OFFCURVE",
"313 502 CURVE SMOOTH",
"313 714 OFFCURVE",
"404 849 OFFCURVE",
"560 849 CURVE SMOOTH",
"717 849 OFFCURVE",
"809 714 OFFCURVE",
"809 502 CURVE SMOOTH",
"809 291 OFFCURVE",
"717 155 OFFCURVE",
"560 155 CURVE SMOOTH"
);
}
);
width = 1120;
}
);
leftKerningGroup = o;
rightKerningGroup = o;
unicode = 006F;
userData = {
com.adobe.type.autohint = "ICA8aGludFNldExpc3Q+CiAgICA8aGludHNldCBw";
com.typemytype.robofont.mark = (
1,
0.6,
0.6,
1
);
};
},
{
glyphname = ohorn;
lastChange = "2019-10-26 06:10:49 +0000";
layers = (
{
anchors = (
{
name = btm;
position = "{551, -300}";
},
{
name = top;
position = "{552, 1049}";
}
);
layerId = "F1FC1B3B-4EE8-4ECF-8776-11160932002C";
paths = (
{
closed = 1;
nodes = (
"894 1164 OFFCURVE",
"905 1136 OFFCURVE",
"905 1108 CURVE SMOOTH",
"905 1031 OFFCURVE",
"847 987 OFFCURVE",
"743 972 CURVE",
"684 1001 OFFCURVE",
"619 1015 OFFCURVE",
"552 1015 CURVE SMOOTH",
"311 1015 OFFCURVE",
"99 825 OFFCURVE",
"99 493 CURVE SMOOTH",
"99 165 OFFCURVE",
"311 -25 OFFCURVE",
"552 -25 CURVE SMOOTH",
"793 -25 OFFCURVE",
"1005 165 OFFCURVE",
"1005 493 CURVE SMOOTH",
"1005 682 OFFCURVE",
"936 824 OFFCURVE",
"833 913 CURVE",
"930 941 OFFCURVE",
"1020 997 OFFCURVE",
"1020 1117 CURVE SMOOTH",
"1020 1165 OFFCURVE",
"1003 1206 OFFCURVE",
"976 1243 CURVE",
"874 1191 LINE"
);
},
{
closed = 1;
nodes = (
"370 90 OFFCURVE",
"241 253 OFFCURVE",
"241 493 CURVE SMOOTH",
"241 735 OFFCURVE",
"370 900 OFFCURVE",
"552 900 CURVE SMOOTH",
"734 900 OFFCURVE",
"864 735 OFFCURVE",
"864 493 CURVE SMOOTH",
"864 253 OFFCURVE",
"734 90 OFFCURVE",
"552 90 CURVE SMOOTH"
);
}
);
width = 1104;
},
{
anchors = (
{
name = btm;
position = "{556, -200}";
},
{
name = top;
position = "{561, 800}";
}
);
hints = (
{
horizontal = 1;
origin = "{0, 15}";
target = "{0, 15}";
type = Tag;
name = hr01;
},
{
horizontal = 1;
origin = "{0, 6}";
target = "{0, 15}";
type = Tag;
name = hr02;
},
{
horizontal = 1;
origin = "{0, 12}";
target = "{0, 15}";
type = Tag;
name = hr03;
},
{
horizontal = 1;
origin = "{1, 0}";
target = "{0, 15}";
type = Tag;
name = hr04;
}
);
layerId = "C4389747-BECF-4D47-A11A-92B8AD605B66";
paths = (
{
closed = 1;
nodes = (
"877 1179 OFFCURVE",
"891 1148 OFFCURVE",
"891 1115 CURVE SMOOTH",
"891 1039 OFFCURVE",
"838 1002 OFFCURVE",
"754 986 CURVE",
"693 1014 OFFCURVE",
"628 1028 OFFCURVE",
"560 1028 CURVE SMOOTH",
"311 1028 OFFCURVE",
"86 835 OFFCURVE",
"86 501 CURVE SMOOTH",
"86 168 OFFCURVE",
"311 -25 OFFCURVE",
"560 -25 CURVE SMOOTH",
"809 -25 OFFCURVE",
"1034 168 OFFCURVE",
"1034 501 CURVE SMOOTH",
"1034 679 OFFCURVE",
"969 817 OFFCURVE",
"872 907 CURVE",
"978 938 OFFCURVE",
"1065 1004 OFFCURVE",
"1065 1130 CURVE SMOOTH",
"1065 1188 OFFCURVE",
"1042 1238 OFFCURVE",
"1014 1275 CURVE",
"860 1204 LINE"
);
},
{
closed = 1;
nodes = (
"408 155 OFFCURVE",
"312 292 OFFCURVE",
"312 501 CURVE SMOOTH",
"312 709 OFFCURVE",
"408 849 OFFCURVE",
"560 849 CURVE SMOOTH",
"714 849 OFFCURVE",
"809 709 OFFCURVE",
"809 501 CURVE SMOOTH",
"809 292 OFFCURVE",
"714 155 OFFCURVE",
"560 155 CURVE SMOOTH"
);
}
);
width = 1120;
}
);
leftKerningGroup = o;
rightKerningGroup = o;
unicode = 01A1;
userData = {
com.typemytype.robofont.mark = (
1,
0.864,
0.6,
1
);
};
},
{
glyphname = oogonek;
lastChange = "2019-10-26 06:10:49 +0000";
layers = (
{
hints = (
{
horizontal = 1;
origin = "{0, 23}";
type = Tag;
name = hr00;
}
);
layerId = "F1FC1B3B-4EE8-4ECF-8776-11160932002C";
paths = (
{
closed = 1;
nodes = (
"688 -314 OFFCURVE",
"663 -323 OFFCURVE",
"629 -323 CURVE SMOOTH",
"579 -323 OFFCURVE",
"532 -291 OFFCURVE",
"532 -224 CURVE SMOOTH",
"532 -143 OFFCURVE",
"590 -53 OFFCURVE",
"681 -10 CURVE SMOOTH",
"874 77 OFFCURVE",
"1005 215 OFFCURVE",
"1005 493 CURVE SMOOTH",
"1005 825 OFFCURVE",
"793 1015 OFFCURVE",
"552 1015 CURVE SMOOTH",
"311 1015 OFFCURVE",
"99 825 OFFCURVE",
"99 493 CURVE SMOOTH",
"99 175 OFFCURVE",
"300 -14 OFFCURVE",
"542 -24 CURVE",
"495 -61 OFFCURVE",
"427 -146 OFFCURVE",
"427 -249 CURVE SMOOTH",
"427 -361 OFFCURVE",
"505 -420 OFFCURVE",
"603 -420 CURVE SMOOTH",
"653 -420 OFFCURVE",
"718 -396 OFFCURVE",
"753 -368 CURVE",
"714 -296 LINE"
);
},
{
closed = 1;
nodes = (
"370 90 OFFCURVE",
"241 253 OFFCURVE",
"241 493 CURVE SMOOTH",
"241 735 OFFCURVE",
"370 900 OFFCURVE",
"552 900 CURVE SMOOTH",
"734 900 OFFCURVE",
"864 735 OFFCURVE",
"864 493 CURVE SMOOTH",
"864 253 OFFCURVE",
"734 90 OFFCURVE",
"552 90 CURVE SMOOTH"
);
}
);
width = 1104;
},
{
hints = (
{
horizontal = 1;
origin = "{0, 27}";
target = "{0, 27}";
type = Tag;
name = hr00;
}
);
layerId = "C4389747-BECF-4D47-A11A-92B8AD605B66";
paths = (
{
closed = 1;
nodes = (
"710 -276 OFFCURVE",
"685 -287 OFFCURVE",
"655 -287 CURVE SMOOTH",
"608 -287 OFFCURVE",
"564 -260 OFFCURVE",
"564 -199 CURVE SMOOTH",
"564 -129 OFFCURVE",
"611 -49 OFFCURVE",
"706 -5 CURVE SMOOTH",
"902 85 OFFCURVE",
"1034 226 OFFCURVE",
"1034 501 CURVE SMOOTH",
"1034 835 OFFCURVE",
"809 1028 OFFCURVE",
"560 1028 CURVE SMOOTH",
"311 1028 OFFCURVE",
"86 835 OFFCURVE",
"86 501 CURVE SMOOTH",
"86 187 OFFCURVE",
"286 -3 OFFCURVE",
"523 -22 CURVE",
"476 -61 OFFCURVE",
"409 -143 OFFCURVE",
"409 -246 CURVE SMOOTH",
"409 -364 OFFCURVE",
"496 -425 OFFCURVE",
"606 -425 CURVE SMOOTH",
"663 -425 OFFCURVE",
"741 -399 OFFCURVE",
"785 -365 CURVE",
"735 -262 LINE"
);
},
{
closed = 1;
nodes = (
"408 155 OFFCURVE",
"312 292 OFFCURVE",
"312 501 CURVE SMOOTH",
"312 709 OFFCURVE",
"408 849 OFFCURVE",
"560 849 CURVE SMOOTH",
"714 849 OFFCURVE",
"809 709 OFFCURVE",
"809 501 CURVE SMOOTH",
"809 292 OFFCURVE",
"714 155 OFFCURVE",
"560 155 CURVE SMOOTH"
);
}
);
width = 1120;
}
);
leftKerningGroup = oogonek;
rightKerningGroup = oogonek;
unicode = 01EB;
userData = {
com.adobe.type.autohint = "ICA8aGludFNldExpc3Q+CiAgICA8aGludHNldCBw";
com.typemytype.robofont.mark = (
0.656,
1,
0.6,
1
);
};
},
{
glyphname = oslash;
lastChange = "2019-10-26 06:10:49 +0000";
layers = (
{
anchors = (
{
name = top;
position = "{552, 990}";
}
);
hints = (
{
horizontal = 1;
origin = "{1, 9}";
type = Tag;
name = hr00;
}
);
layerId = "F1FC1B3B-4EE8-4ECF-8776-11160932002C";
paths = (
{
closed = 1;
nodes = (
"265 82 LINE",
"345 12 OFFCURVE",
"446 -25 OFFCURVE",
"552 -25 CURVE SMOOTH",
"793 -25 OFFCURVE",
"1005 165 OFFCURVE",
"1005 493 CURVE SMOOTH",
"1005 640 OFFCURVE",
"963 759 OFFCURVE",
"896 847 CURVE",
"1010 983 LINE",
"944 1035 LINE",
"839 908 LINE",
"759 978 OFFCURVE",
"657 1015 OFFCURVE",
"552 1015 CURVE SMOOTH",
"311 1015 OFFCURVE",
"99 825 OFFCURVE",
"99 493 CURVE SMOOTH",
"99 348 OFFCURVE",
"141 231 OFFCURVE",
"208 143 CURVE",
"94 6 LINE",
"161 -46 LINE"
);
},
{
closed = 1;
nodes = (
"849 674 OFFCURVE",
"869 589 OFFCURVE",
"869 488 CURVE SMOOTH",
"869 250 OFFCURVE",
"734 87 OFFCURVE",
"552 87 CURVE SMOOTH",
"471 87 OFFCURVE",
"399 119 OFFCURVE",
"344 176 CURVE",
"810 742 LINE"
);
},
{
closed = 1;
nodes = (
"255 314 OFFCURVE",
"235 399 OFFCURVE",
"235 499 CURVE SMOOTH",
"235 738 OFFCURVE",
"370 903 OFFCURVE",
"552 903 CURVE SMOOTH",
"634 903 OFFCURVE",
"706 871 OFFCURVE",
"760 812 CURVE",
"293 247 LINE"
);
}
);
width = 1104;
},
{
anchors = (
{
name = top;
position = "{560, 1003}";
}
);
hints = (
{
horizontal = 1;
origin = "{0, 0}";
target = "{0, 0}";
type = Tag;
name = hr00;
}
);
layerId = "C4389747-BECF-4D47-A11A-92B8AD605B66";
paths = (
{
closed = 1;
nodes = (
"280 69 LINE",
"360 8 OFFCURVE",
"459 -25 OFFCURVE",
"560 -25 CURVE SMOOTH",
"809 -25 OFFCURVE",
"1034 168 OFFCURVE",
"1034 501 CURVE SMOOTH",
"1034 648 OFFCURVE",
"990 767 OFFCURVE",
"921 855 CURVE",
"1026 983 LINE",
"937 1053 LINE",
"840 934 LINE",
"760 995 OFFCURVE",
"662 1028 OFFCURVE",
"560 1028 CURVE SMOOTH",
"311 1028 OFFCURVE",
"86 835 OFFCURVE",
"86 501 CURVE SMOOTH",
"86 354 OFFCURVE",
"130 236 OFFCURVE",
"199 148 CURVE",
"94 21 LINE",
"184 -49 LINE"
);
},
{
closed = 1;
nodes = (
"809 633 OFFCURVE",
"820 568 OFFCURVE",
"820 490 CURVE SMOOTH",
"820 286 OFFCURVE",
"714 148 OFFCURVE",
"560 148 CURVE SMOOTH",
"497 148 OFFCURVE",
"441 171 OFFCURVE",
"398 213 CURVE",
"785 688 LINE"
);
},
{
closed = 1;
nodes = (
"311 369 OFFCURVE",
"300 435 OFFCURVE",
"300 512 CURVE SMOOTH",
"300 716 OFFCURVE",
"408 855 OFFCURVE",
"560 855 CURVE SMOOTH",
"625 855 OFFCURVE",
"680 833 OFFCURVE",
"722 790 CURVE",
"334 316 LINE"
);
}
);
width = 1120;
}
);
leftKerningGroup = o;
rightKerningGroup = o;
unicode = 00F8;
userData = {
com.adobe.type.autohint = "ICA8aGludFNldExpc3Q+CiAgICA8aGludHNldCBw";
};
},
{
glyphname = oe;
lastChange = "2019-10-26 06:10:49 +0000";
layers = (
{
anchors = (
{
name = top;
position = "{907, 990}";
}
);
hints = (
{
horizontal = 1;
origin = "{1, 2}";
type = Tag;
name = hr01;
},
{
horizontal = 1;
origin = "{2, 2}";
type = Tag;
name = hr02;
}
);
layerId = "F1FC1B3B-4EE8-4ECF-8776-11160932002C";
paths = (
{
closed = 1;
nodes = (
"1483 124 OFFCURVE",
"1404 89 OFFCURVE",
"1304 89 CURVE SMOOTH",
"1122 89 OFFCURVE",
"979 242 OFFCURVE",
"974 466 CURVE",
"1643 466 LINE",
"1647 490 OFFCURVE",
"1649 520 OFFCURVE",
"1649 552 CURVE SMOOTH",
"1649 838 OFFCURVE",
"1508 1015 OFFCURVE",
"1268 1015 CURVE SMOOTH",
"1117 1015 OFFCURVE",
"985 913 OFFCURVE",
"911 748 CURVE",
"841 923 OFFCURVE",
"696 1015 OFFCURVE",
"543 1015 CURVE SMOOTH",
"305 1015 OFFCURVE",
"99 825 OFFCURVE",
"99 493 CURVE SMOOTH",
"99 165 OFFCURVE",
"304 -25 OFFCURVE",
"540 -25 CURVE SMOOTH",
"707 -25 OFFCURVE",
"836 65 OFFCURVE",
"913 240 CURVE",
"986 77 OFFCURVE",
"1126 -25 OFFCURVE",
"1288 -25 CURVE SMOOTH",
"1427 -25 OFFCURVE",
"1527 24 OFFCURVE",
"1609 76 CURVE",
"1557 174 LINE"
);
},
{
closed = 1;
nodes = (
"367 90 OFFCURVE",
"239 253 OFFCURVE",
"239 493 CURVE SMOOTH",
"239 735 OFFCURVE",
"367 900 OFFCURVE",
"543 900 CURVE SMOOTH",
"720 900 OFFCURVE",
"845 735 OFFCURVE",
"845 493 CURVE SMOOTH",
"845 253 OFFCURVE",
"720 90 OFFCURVE",
"543 90 CURVE SMOOTH"
);
},
{
closed = 1;
nodes = (
"993 768 OFFCURVE",
"1117 905 OFFCURVE",
"1265 905 CURVE SMOOTH",
"1426 905 OFFCURVE",
"1527 785 OFFCURVE",
"1527 561 CURVE",
"974 561 LINE"
);
}
);
width = 1726;
},
{
anchors = (
{
name = top;
position = "{853, 1003}";
}
);
hints = (
{
horizontal = 1;
origin = "{0, 25}";
target = "{0, 25}";
type = Tag;
name = hr01;
},
{
horizontal = 1;
origin = "{0, 6}";
target = "{0, 25}";
type = Tag;
name = hr02;
},
{
horizontal = 1;
origin = "{1, 0}";
target = "{0, 25}";
type = Tag;
name = hr04;
},
{
horizontal = 1;
origin = "{2, 6}";
target = "{0, 25}";
type = Tag;
name = hr05;
}
);
layerId = "C4389747-BECF-4D47-A11A-92B8AD605B66";
paths = (
{
closed = 1;
nodes = (
"1439 183 OFFCURVE",
"1366 150 OFFCURVE",
"1278 150 CURVE SMOOTH",
"1126 150 OFFCURVE",
"1005 261 OFFCURVE",
"992 443 CURVE",
"1620 443 LINE",
"1625 467 OFFCURVE",
"1629 506 OFFCURVE",
"1629 549 CURVE SMOOTH",
"1629 831 OFFCURVE",
"1490 1028 OFFCURVE",
"1236 1028 CURVE SMOOTH",
"1099 1028 OFFCURVE",
"975 945 OFFCURVE",
"897 805 CURVE",
"823 948 OFFCURVE",
"696 1028 OFFCURVE",
"548 1028 CURVE SMOOTH",
"300 1028 OFFCURVE",
"86 835 OFFCURVE",
"86 501 CURVE SMOOTH",
"86 168 OFFCURVE",
"296 -25 OFFCURVE",
"543 -25 CURVE SMOOTH",
"702 -25 OFFCURVE",
"818 51 OFFCURVE",
"899 197 CURVE",
"978 59 OFFCURVE",
"1107 -25 OFFCURVE",
"1250 -25 CURVE SMOOTH",
"1379 -25 OFFCURVE",
"1498 21 OFFCURVE",
"1591 83 CURVE",
"1513 229 LINE"
);
},
{
closed = 1;
nodes = (
"404 155 OFFCURVE",
"309 292 OFFCURVE",
"309 501 CURVE SMOOTH",
"309 709 OFFCURVE",
"404 849 OFFCURVE",
"548 849 CURVE SMOOTH",
"692 849 OFFCURVE",
"788 709 OFFCURVE",
"788 501 CURVE SMOOTH",
"788 292 OFFCURVE",
"692 155 OFFCURVE",
"548 155 CURVE SMOOTH"
);
},
{
closed = 1;
nodes = (
"1009 757 OFFCURVE",
"1109 858 OFFCURVE",
"1229 858 CURVE SMOOTH",
"1366 858 OFFCURVE",
"1439 756 OFFCURVE",
"1439 582 CURVE",
"992 582 LINE"
);
}
);
width = 1705;
}
);
leftKerningGroup = o;
rightKerningGroup = e;
unicode = 0153;
userData = {
com.adobe.type.autohint = "ICA8aGludFNldExpc3Q+CiAgICA8aGludHNldCBw";
com.typemytype.robofont.mark = (
1,
0.6,
0.6,
1
);
};
},
{
glyphname = p;
lastChange = "2019-10-26 06:10:49 +0000";
layers = (
{
anchors = (
{
name = btm;
position = "{601, -300}";
},
{
name = top;
position = "{601, 1050}";
}
);
hints = (
{
horizontal = 1;
origin = "{0, 2}";
type = Tag;
name = hr01;
},
{
horizontal = 1;
origin = "{0, 16}";
type = Tag;
name = hr02;
},
{
horizontal = 1;
origin = "{1, 2}";
type = Tag;
name = hr03;
}
);
layerId = "F1FC1B3B-4EE8-4ECF-8776-11160932002C";
paths = (
{
closed = 1;
nodes = (
"313 -430 LINE",
"313 -85 LINE",
"310 92 LINE",
"406 19 OFFCURVE",
"499 -25 OFFCURVE",
"593 -25 CURVE SMOOTH",
"826 -25 OFFCURVE",
"1026 167 OFFCURVE",
"1026 508 CURVE SMOOTH",
"1026 820 OFFCURVE",
"895 1015 OFFCURVE",
"632 1015 CURVE SMOOTH",
"512 1015 OFFCURVE",
"401 948 OFFCURVE",
"309 872 CURVE",
"302 872 LINE",
"290 990 LINE",
"176 990 LINE",
"176 -430 LINE"
);
},
{
closed = 1;
nodes = (
"419 847 OFFCURVE",
"509 899 OFFCURVE",
"600 899 CURVE SMOOTH",
"807 899 OFFCURVE",
"883 741 OFFCURVE",
"883 508 CURVE SMOOTH",
"883 251 OFFCURVE",
"754 92 OFFCURVE",
"574 92 CURVE SMOOTH",
"503 92 OFFCURVE",
"412 122 OFFCURVE",
"313 205 CURVE",
"313 752 LINE"
);
}
);
width = 1128;
},
{
anchors = (
{
name = btm;
position = "{260, -200}";
},
{
name = top;
position = "{607, 800}";
}
);
hints = (
{
horizontal = 1;
origin = "{0, 0}";
target = "{0, 0}";
type = Tag;
name = hr01;
},
{
horizontal = 1;
origin = "{0, 16}";
target = "{0, 0}";
type = Tag;
name = hr02;
},
{
horizontal = 1;
origin = "{1, 3}";
target = "{0, 0}";
type = Tag;
name = hr03;
}
);
layerId = "C4389747-BECF-4D47-A11A-92B8AD605B66";
paths = (
{
closed = 1;
nodes = (
"373 -404 LINE",
"373 -82 LINE",
"367 87 LINE",
"451 16 OFFCURVE",
"537 -25 OFFCURVE",
"630 -25 CURVE SMOOTH",
"858 -25 OFFCURVE",
"1059 169 OFFCURVE",
"1059 515 CURVE SMOOTH",
"1059 831 OFFCURVE",
"921 1028 OFFCURVE",
"664 1028 CURVE SMOOTH",
"549 1028 OFFCURVE",
"444 968 OFFCURVE",
"359 894 CURVE",
"351 894 LINE",
"334 1003 LINE",
"155 1003 LINE",
"155 -404 LINE"
);
},
{
closed = 1;
nodes = (
"457 806 OFFCURVE",
"527 847 OFFCURVE",
"603 847 CURVE SMOOTH",
"770 847 OFFCURVE",
"833 723 OFFCURVE",
"833 514 CURVE SMOOTH",
"833 279 OFFCURVE",
"728 157 OFFCURVE",
"584 157 CURVE SMOOTH",
"523 157 OFFCURVE",
"449 180 OFFCURVE",
"373 246 CURVE",
"373 727 LINE"
);
}
);
width = 1151;
}
);
leftKerningGroup = p;
rightKerningGroup = o;
unicode = 0070;
userData = {
com.adobe.type.autohint = "ICA8aGludFNldExpc3Q+CiAgICA8aGludHNldCBw";
com.typemytype.robofont.mark = (
1,
0.6,
0.6,
1
);
};
},
{
glyphname = thorn;
lastChange = "2019-10-26 06:10:49 +0000";
layers = (
{
hints = (
{
horizontal = 1;
origin = "{0, 1}";
type = Tag;
name = hr00;
}
);
layerId = "F1FC1B3B-4EE8-4ECF-8776-11160932002C";
paths = (
{
closed = 1;
nodes = (
"313 -430 LINE",
"313 -85 LINE",
"311 89 LINE",
"406 17 OFFCURVE",
"498 -25 OFFCURVE",
"594 -25 CURVE SMOOTH",
"823 -25 OFFCURVE",
"1026 173 OFFCURVE",
"1026 510 CURVE SMOOTH",
"1026 817 OFFCURVE",
"890 1015 OFFCURVE",
"627 1015 CURVE SMOOTH",
"513 1015 OFFCURVE",
"404 952 OFFCURVE",
"311 879 CURVE",
"313 1056 LINE",
"313 1464 LINE",
"176 1464 LINE",
"176 -430 LINE"
);
},
{
closed = 1;
nodes = (
"419 847 OFFCURVE",
"511 899 OFFCURVE",
"601 899 CURVE SMOOTH",
"805 899 OFFCURVE",
"883 738 OFFCURVE",
"883 510 CURVE SMOOTH",
"883 255 OFFCURVE",
"753 92 OFFCURVE",
"575 92 CURVE SMOOTH",
"506 92 OFFCURVE",
"412 122 OFFCURVE",
"313 205 CURVE",
"313 752 LINE"
);
}
);
width = 1128;
},
{
hints = (
{
horizontal = 1;
origin = "{0, 0}";
target = "{0, 0}";
type = Tag;
name = hr00;
}
);
layerId = "C4389747-BECF-4D47-A11A-92B8AD605B66";
paths = (
{
closed = 1;
nodes = (
"373 -404 LINE",
"373 -82 LINE",
"369 81 LINE",
"451 14 OFFCURVE",
"533 -25 OFFCURVE",
"630 -25 CURVE SMOOTH",
"855 -25 OFFCURVE",
"1059 175 OFFCURVE",
"1059 517 CURVE SMOOTH",
"1059 827 OFFCURVE",
"913 1028 OFFCURVE",
"653 1028 CURVE SMOOTH",
"551 1028 OFFCURVE",
"451 976 OFFCURVE",
"369 910 CURVE",
"373 1069 LINE",
"373 1450 LINE",
"155 1450 LINE",
"155 -404 LINE"
);
},
{
closed = 1;
nodes = (
"457 806 OFFCURVE",
"529 847 OFFCURVE",
"604 847 CURVE SMOOTH",
"767 847 OFFCURVE",
"833 720 OFFCURVE",
"833 515 CURVE SMOOTH",
"833 283 OFFCURVE",
"727 157 OFFCURVE",
"586 157 CURVE SMOOTH",
"526 157 OFFCURVE",
"449 180 OFFCURVE",
"373 246 CURVE",
"373 727 LINE"
);
}
);
width = 1151;
}
);
leftKerningGroup = h;
rightKerningGroup = o;
unicode = 00FE;
userData = {
com.adobe.type.autohint = "ICA8aGludFNldExpc3Q+CiAgICA8aGludHNldCBw";
com.typemytype.robofont.mark = (
1,
0.6,
0.6,
1
);
};
},
{
glyphname = q;
lastChange = "2019-10-26 06:10:49 +0000";
layers = (
{
anchors = (
{
name = btm;
position = "{525, -300}";
},
{
name = top;
position = "{525, 1050}";
}
);
hints = (
{
horizontal = 1;
origin = "{0, 10}";
type = Tag;
name = hr01;
},
{
horizontal = 1;
origin = "{0, 1}";
type = Tag;
name = hr02;
},
{
horizontal = 1;
origin = "{0, 7}";
type = Tag;
name = hr03;
}
);
layerId = "F1FC1B3B-4EE8-4ECF-8776-11160932002C";
paths = (
{
closed = 1;
nodes = (
"951 -430 LINE",
"951 990 LINE",
"841 990 LINE",
"826 898 LINE",
"822 898 LINE",
"731 973 OFFCURVE",
"654 1015 OFFCURVE",
"535 1015 CURVE SMOOTH",
"301 1015 OFFCURVE",
"100 819 OFFCURVE",
"100 492 CURVE SMOOTH",
"100 154 OFFCURVE",
"257 -25 OFFCURVE",
"511 -25 CURVE SMOOTH",
"635 -25 OFFCURVE",
"737 40 OFFCURVE",
"821 117 CURVE",
"814 -66 LINE",
"814 -430 LINE"
);
},
{
closed = 1;
nodes = (
"723 142 OFFCURVE",
"640 92 OFFCURVE",
"539 92 CURVE SMOOTH",
"346 92 OFFCURVE",
"243 241 OFFCURVE",
"243 493 CURVE SMOOTH",
"243 733 OFFCURVE",
"377 899 OFFCURVE",
"555 899 CURVE SMOOTH",
"645 899 OFFCURVE",
"722 868 OFFCURVE",
"814 785 CURVE",
"814 239 LINE"
);
}
);
width = 1115;
},
{
anchors = (
{
name = btm;
position = "{543, -200}";
},
{
name = top;
position = "{543, 800}";
}
);
hints = (
{
horizontal = 1;
origin = "{0, 0}";
target = "{0, 0}";
type = Tag;
name = hr01;
},
{
horizontal = 1;
origin = "{0, 13}";
target = "{0, 0}";
type = Tag;
name = hr02;
}
);
layerId = "C4389747-BECF-4D47-A11A-92B8AD605B66";
paths = (
{
closed = 1;
nodes = (
"996 -404 LINE",
"996 1003 LINE",
"823 1003 LINE",
"803 906 LINE",
"797 906 LINE",
"711 987 OFFCURVE",
"635 1028 OFFCURVE",
"519 1028 CURVE SMOOTH",
"292 1028 OFFCURVE",
"90 832 OFFCURVE",
"90 499 CURVE SMOOTH",
"90 161 OFFCURVE",
"248 -25 OFFCURVE",
"504 -25 CURVE SMOOTH",
"613 -25 OFFCURVE",
"711 32 OFFCURVE",
"786 102 CURVE",
"776 -67 LINE",
"776 -404 LINE"
);
},
{
closed = 1;
nodes = (
"707 194 OFFCURVE",
"641 157 OFFCURVE",
"558 157 CURVE SMOOTH",
"401 157 OFFCURVE",
"315 273 OFFCURVE",
"315 502 CURVE SMOOTH",
"315 720 OFFCURVE",
"425 847 OFFCURVE",
"564 847 CURVE SMOOTH",
"638 847 OFFCURVE",
"704 823 OFFCURVE",
"776 757 CURVE",
"776 277 LINE"
);
}
);
width = 1143;
}
);
leftKerningGroup = o;
rightKerningGroup = q;
unicode = 0071;
userData = {
com.adobe.type.autohint = "ICA8aGludFNldExpc3Q+CiAgICA8aGludHNldCBw";
com.typemytype.robofont.mark = (
1,
0.6,
0.6,
1
);
};
},
{
glyphname = r;
lastChange = "2019-10-26 06:09:29 +0000";
layers = (
{
anchors = (
{
name = btm;
position = "{280, -300}";
},
{
name = top;
position = "{434, 1050}";
}
);
hints = (
{
horizontal = 1;
origin = "{0, 18}";
type = Tag;
name = hr01;
},
{
horizontal = 1;
origin = "{0, 8}";
type = Tag;
name = hr02;
},
{
horizontal = 1;
origin = "{0, 11}";
type = Tag;
name = hr03;
},
{
horizontal = 1;
origin = "{0, 16}";
type = Tag;
name = hr04;
}
);
layerId = "F1FC1B3B-4EE8-4ECF-8776-11160932002C";
paths = (
{
closed = 1;
nodes = (
"313 0 LINE",
"313 652 LINE",
"383 826 OFFCURVE",
"486 890 OFFCURVE",
"571 890 CURVE SMOOTH",
"611 890 OFFCURVE",
"632 885 OFFCURVE",
"665 874 CURVE",
"692 994 LINE",
"660 1010 OFFCURVE",
"630 1015 OFFCURVE",
"589 1015 CURVE SMOOTH",
"475 1015 OFFCURVE",
"375 933 OFFCURVE",
"309 809 CURVE",
"302 809 LINE",
"290 990 LINE",
"176 990 LINE",
"176 0 LINE"
);
}
);
width = 686;
},
{
anchors = (
{
name = btm;
position = "{334, -200}";
},
{
name = top;
position = "{455, 800}";
}
);
hints = (
{
horizontal = 1;
origin = "{0, 0}";
target = "{0, 0}";
type = Tag;
name = hr01;
},
{
horizontal = 1;
origin = "{0, 7}";
target = "{0, 0}";
type = Tag;
name = hr02;
},
{
horizontal = 1;
origin = "{0, 11}";
target = "{0, 0}";
type = Tag;
name = hr03;
},
{
horizontal = 1;
origin = "{0, 14}";
target = "{0, 0}";
type = Tag;
name = hr04;
}
);
layerId = "C4389747-BECF-4D47-A11A-92B8AD605B66";
paths = (
{
closed = 1;
nodes = (
"373 0 LINE",
"373 620 LINE",
"435 776 OFFCURVE",
"534 833 OFFCURVE",
"614 833 CURVE SMOOTH",
"656 833 OFFCURVE",
"682 827 OFFCURVE",
"716 817 CURVE",
"755 1007 LINE",
"724 1021 OFFCURVE",
"692 1028 OFFCURVE",
"643 1028 CURVE SMOOTH",
"534 1028 OFFCURVE",
"428 953 OFFCURVE",
"359 824 CURVE",
"351 824 LINE",
"334 1003 LINE",
"155 1003 LINE",
"155 0 LINE"
);
}
);
width = 751;
}
);
leftKerningGroup = n;
rightKerningGroup = r;
unicode = 0072;
userData = {
com.adobe.type.autohint = "ICA8aGludFNldExpc3Q+CiAgICA8aGludHNldCBw";
com.typemytype.robofont.mark = (
1,
0.6,
0.6,
1
);
};
},
{
glyphname = s;
lastChange = "2019-10-26 06:10:49 +0000";
layers = (
{
anchors = (
{
name = btm;
position = "{421, -300}";
},
{
name = top;
position = "{421, 1050}";
}
);
hints = (
{
horizontal = 1;
origin = "{0, 18}";
type = Tag;
name = hr00;
}
);
layerId = "F1FC1B3B-4EE8-4ECF-8776-11160932002C";
paths = (
{
closed = 1;
nodes = (
"664 970 OFFCURVE",
"557 1015 OFFCURVE",
"441 1015 CURVE SMOOTH",
"230 1015 OFFCURVE",
"109 895 OFFCURVE",
"109 742 CURVE SMOOTH",
"109 574 OFFCURVE",
"268 507 OFFCURVE",
"412 455 CURVE SMOOTH",
"523 414 OFFCURVE",
"645 365 OFFCURVE",
"645 254 CURVE SMOOTH",
"645 160 OFFCURVE",
"574 84 OFFCURVE",
"433 84 CURVE SMOOTH",
"305 84 OFFCURVE",
"220 137 OFFCURVE",
"135 206 CURVE",
"64 112 LINE",
"156 36 OFFCURVE",
"285 -25 OFFCURVE",
"427 -25 CURVE SMOOTH",
"654 -25 OFFCURVE",
"779 106 OFFCURVE",
"779 261 CURVE SMOOTH",
"779 452 OFFCURVE",
"615 510 OFFCURVE",
"467 565 CURVE SMOOTH",
"353 608 OFFCURVE",
"242 654 OFFCURVE",
"242 753 CURVE SMOOTH",
"242 835 OFFCURVE",
"305 906 OFFCURVE",
"441 906 CURVE SMOOTH",
"534 906 OFFCURVE",
"604 870 OFFCURVE",
"671 820 CURVE",
"739 909 LINE"
);
}
);
width = 846;
},
{
anchors = (
{
name = btm;
position = "{459, -200}";
},
{
name = top;
position = "{455, 800}";
}
);
hints = (
{
horizontal = 1;
origin = "{0, 22}";
target = "{0, 22}";
type = Tag;
name = hr00;
}
);
layerId = "C4389747-BECF-4D47-A11A-92B8AD605B66";
paths = (
{
closed = 1;
nodes = (
"709 975 OFFCURVE",
"598 1028 OFFCURVE",
"462 1028 CURVE SMOOTH",
"239 1028 OFFCURVE",
"101 904 OFFCURVE",
"101 734 CURVE SMOOTH",
"101 566 OFFCURVE",
"254 488 OFFCURVE",
"387 439 CURVE SMOOTH",
"495 398 OFFCURVE",
"607 358 OFFCURVE",
"607 268 CURVE SMOOTH",
"607 195 OFFCURVE",
"555 141 OFFCURVE",
"436 141 CURVE SMOOTH",
"330 141 OFFCURVE",
"247 187 OFFCURVE",
"158 256 CURVE",
"55 115 LINE",
"152 34 OFFCURVE",
"292 -25 OFFCURVE",
"430 -25 CURVE SMOOTH",
"680 -25 OFFCURVE",
"815 112 OFFCURVE",
"815 281 CURVE SMOOTH",
"815 469 OFFCURVE",
"660 536 OFFCURVE",
"522 586 CURVE",
"413 628 OFFCURVE",
"310 666 OFFCURVE",
"310 750 CURVE SMOOTH",
"310 818 OFFCURVE",
"357 862 OFFCURVE",
"465 862 CURVE SMOOTH",
"555 862 OFFCURVE",
"619 829 OFFCURVE",
"689 777 CURVE",
"790 911 LINE"
);
}
);
width = 877;
}
);
leftKerningGroup = s;
rightKerningGroup = s;
unicode = 0073;
userData = {
com.adobe.type.autohint = "ICA8aGludFNldExpc3Q+CiAgICA8aGludHNldCBw";
com.typemytype.robofont.mark = (
1,
0.6,
0.6,
1
);
};
},
{
glyphname = germandbls;
lastChange = "2019-10-26 06:10:49 +0000";
layers = (
{
anchors = (
{
name = btm;
position = "{634, -300}";
},
{
name = top;
position = "{634, 1050}";
}
);
hints = (
{
horizontal = 1;
origin = "{0, 39}";
type = Tag;
name = hr01;
},
{
horizontal = 1;
origin = "{0, 16}";
type = Tag;
name = hr02;
}
);
layerId = "F1FC1B3B-4EE8-4ECF-8776-11160932002C";
paths = (
{
closed = 1;
nodes = (
"313 0 LINE",
"313 1038 LINE",
"313 1263 OFFCURVE",
"405 1371 OFFCURVE",
"555 1371 CURVE SMOOTH",
"674 1371 OFFCURVE",
"735 1292 OFFCURVE",
"735 1182 CURVE SMOOTH",
"735 1005 OFFCURVE",
"546 944 OFFCURVE",
"546 753 CURVE SMOOTH",
"546 464 OFFCURVE",
"960 522 OFFCURVE",
"960 264 CURVE SMOOTH",
"960 171 OFFCURVE",
"896 84 OFFCURVE",
"773 84 CURVE SMOOTH",
"692 84 OFFCURVE",
"624 114 OFFCURVE",
"549 175 CURVE",
"491 78 LINE",
"573 15 OFFCURVE",
"666 -25 OFFCURVE",
"776 -25 CURVE SMOOTH",
"967 -25 OFFCURVE",
"1092 104 OFFCURVE",
"1092 272 CURVE SMOOTH",
"1092 609 OFFCURVE",
"678 555 OFFCURVE",
"678 768 CURVE SMOOTH",
"678 919 OFFCURVE",
"870 989 OFFCURVE",
"870 1196 CURVE SMOOTH",
"870 1354 OFFCURVE",
"757 1485 OFFCURVE",
"557 1485 CURVE SMOOTH",
"318 1485 OFFCURVE",
"176 1323 OFFCURVE",
"176 1069 CURVE SMOOTH",
"176 0 LINE"
);
}
);
width = 1151;
},
{
anchors = (
{
name = btm;
position = "{660, -200}";
},
{
name = top;
position = "{660, 800}";
}
);
hints = (
{
horizontal = 1;
origin = "{0, 24}";
target = "{0, 24}";
type = Tag;
name = hr01;
},
{
horizontal = 1;
origin = "{0, 25}";
target = "{0, 24}";
type = Tag;
name = hr02;
},
{
horizontal = 1;
origin = "{0, 39}";
target = "{0, 24}";
type = Tag;
name = hr03;
},
{
horizontal = 1;
origin = "{0, 21}";
target = "{0, 24}";
type = Tag;
name = hr04;
}
);
layerId = "C4389747-BECF-4D47-A11A-92B8AD605B66";
paths = (
{
closed = 1;
nodes = (
"372 0 LINE",
"372 1001 LINE SMOOTH",
"372 1191 OFFCURVE",
"449 1294 OFFCURVE",
"586 1294 CURVE SMOOTH",
"688 1294 OFFCURVE",
"742 1225 OFFCURVE",
"742 1131 CURVE SMOOTH",
"742 968 OFFCURVE",
"575 909 OFFCURVE",
"575 734 CURVE SMOOTH",
"575 455 OFFCURVE",
"963 487 OFFCURVE",
"963 280 CURVE SMOOTH",
"963 205 OFFCURVE",
"909 141 OFFCURVE",
"812 141 CURVE SMOOTH",
"740 141 OFFCURVE",
"675 168 OFFCURVE",
"604 224 CURVE",
"523 73 LINE",
"612 12 OFFCURVE",
"703 -25 OFFCURVE",
"819 -25 CURVE SMOOTH",
"1039 -25 OFFCURVE",
"1165 115 OFFCURVE",
"1165 292 CURVE SMOOTH",
"1165 618 OFFCURVE",
"779 586 OFFCURVE",
"779 761 CURVE SMOOTH",
"779 888 OFFCURVE",
"955 954 OFFCURVE",
"955 1155 CURVE SMOOTH",
"955 1322 OFFCURVE",
"828 1470 OFFCURVE",
"588 1470 CURVE SMOOTH",
"304 1470 OFFCURVE",
"155 1292 OFFCURVE",
"155 1033 CURVE",
"155 0 LINE"
);
}
);
width = 1224;
}
);
leftKerningGroup = h;
rightKerningGroup = germandbls;
unicode = 00DF;
userData = {
com.adobe.type.autohint = "ICA8aGludFNldExpc3Q+CiAgICA8aGludHNldCBw";
com.typemytype.robofont.mark = (
1,
0.6,
0.6,
1
);
};
},
{
glyphname = t;
lastChange = "2019-10-26 06:10:49 +0000";
layers = (
{
anchors = (
{
name = btm;
position = "{380, -300}";
},
{
name = car;
position = "{671, 1003}";
},
{
name = top;
position = "{277, 1227}";
}
);
hints = (
{
horizontal = 1;
origin = "{0, 16}";
type = Tag;
name = hr00;
}
);
layerId = "F1FC1B3B-4EE8-4ECF-8776-11160932002C";
paths = (
{
closed = 1;
nodes = (
"582 104 OFFCURVE",
"535 89 OFFCURVE",
"499 89 CURVE SMOOTH",
"376 89 OFFCURVE",
"341 164 OFFCURVE",
"341 288 CURVE SMOOTH",
"341 877 LINE",
"616 877 LINE",
"616 990 LINE",
"341 990 LINE",
"341 1272 LINE",
"225 1272 LINE",
"208 990 LINE",
"52 981 LINE",
"52 877 LINE",
"203 877 LINE",
"203 293 LINE",
"203 105 OFFCURVE",
"267 -25 OFFCURVE",
"471 -25 CURVE SMOOTH",
"525 -25 OFFCURVE",
"589 -7 OFFCURVE",
"645 12 CURVE",
"616 117 LINE"
);
}
);
width = 670;
},
{
anchors = (
{
name = btm;
position = "{371, -200}";
},
{
name = car;
position = "{625, 1029}";
},
{
name = top;
position = "{308, 1029}";
}
);
hints = (
{
horizontal = 1;
origin = "{0, 20}";
target = "{0, 20}";
type = Tag;
name = hr00;
}
);
layerId = "C4389747-BECF-4D47-A11A-92B8AD605B66";
paths = (
{
closed = 1;
nodes = (
"629 163 OFFCURVE",
"587 150 OFFCURVE",
"553 150 CURVE SMOOTH",
"452 150 OFFCURVE",
"408 211 OFFCURVE",
"408 331 CURVE SMOOTH",
"408 828 LINE",
"667 828 LINE",
"667 1003 LINE",
"408 1003 LINE",
"408 1279 LINE",
"225 1279 LINE",
"199 1003 LINE",
"44 992 LINE",
"44 828 LINE",
"188 828 LINE",
"188 331 LINE SMOOTH",
"188 119 OFFCURVE",
"270 -25 OFFCURVE",
"497 -25 CURVE SMOOTH",
"574 -25 OFFCURVE",
"643 -5 OFFCURVE",
"698 12 CURVE",
"659 174 LINE"
);
}
);
width = 727;
}
);
leftKerningGroup = t;
rightKerningGroup = t;
unicode = 0074;
userData = {
com.adobe.type.autohint = "ICA8aGludFNldExpc3Q+CiAgICA8aGludHNldCBw";
com.typemytype.robofont.mark = (
0.967,
0.6,
1,
1
);
};
},
{
glyphname = tbar;
lastChange = "2019-10-26 06:09:29 +0000";
layers = (
{
components = (
{
name = t;
}
);
hints = (
{
horizontal = 1;
origin = "{0, 3}";
target = "{0, 3}";
type = Tag;
name = hr00;
}
);
layerId = "F1FC1B3B-4EE8-4ECF-8776-11160932002C";
paths = (
{
closed = 1;
nodes = (
"611 531 LINE",
"611 642 LINE",
"54 642 LINE",
"54 531 LINE"
);
}
);
width = 670;
},
{
components = (
{
name = t;
}
);
hints = (
{
horizontal = 1;
origin = "{0, 1}";
target = "{0, 1}";
type = Tag;
name = hr00;
}
);
layerId = "C4389747-BECF-4D47-A11A-92B8AD605B66";
paths = (
{
closed = 1;
nodes = (
"669 486 LINE",
"669 661 LINE",
"46 661 LINE",
"46 486 LINE"
);
}
);
width = 727;
}
);
leftKerningGroup = t;
rightKerningGroup = t;
unicode = 0167;
userData = {
com.adobe.type.autohint = "ICA8aGludFNldExpc3Q+CiAgICA8aGludHNldCBw";
com.typemytype.robofont.mark = (
1,
0.6,
0.6,
1
);
};
},
{
glyphname = u;
lastChange = "2019-10-26 06:10:49 +0000";
layers = (
{
anchors = (
{
name = btm;
position = "{543, -300}";
},
{
name = top;
position = "{543, 1050}";
}
);
hints = (
{
horizontal = 1;
origin = "{0, 13}";
type = Tag;
name = hr01;
},
{
horizontal = 1;
origin = "{0, 0}";
type = Tag;
name = hr02;
},
{
horizontal = 1;
origin = "{0, 7}";
type = Tag;
name = hr03;
}
);
layerId = "F1FC1B3B-4EE8-4ECF-8776-11160932002C";
paths = (
{
closed = 1;
nodes = (
"812 0 LINE",
"925 0 LINE",
"925 990 LINE",
"789 990 LINE",
"789 276 LINE",
"686 150 OFFCURVE",
"615 95 OFFCURVE",
"501 95 CURVE SMOOTH",
"353 95 OFFCURVE",
"299 180 OFFCURVE",
"299 376 CURVE SMOOTH",
"299 990 LINE",
"162 990 LINE",
"162 357 LINE",
"162 103 OFFCURVE",
"250 -25 OFFCURVE",
"464 -25 CURVE SMOOTH",
"606 -25 OFFCURVE",
"700 49 OFFCURVE",
"794 159 CURVE",
"800 159 LINE"
);
}
);
width = 1101;
},
{
anchors = (
{
name = btm;
position = "{560, -200}";
},
{
name = top;
position = "{560, 800}";
}
);
hints = (
{
horizontal = 1;
origin = "{0, 17}";
target = "{0, 17}";
type = Tag;
name = hr01;
},
{
horizontal = 1;
origin = "{0, 6}";
target = "{0, 17}";
type = Tag;
name = hr02;
},
{
horizontal = 1;
origin = "{0, 13}";
target = "{0, 17}";
type = Tag;
name = hr03;
}
);
layerId = "C4389747-BECF-4D47-A11A-92B8AD605B66";
paths = (
{
closed = 1;
nodes = (
"799 0 LINE",
"979 0 LINE",
"979 1003 LINE",
"760 1003 LINE",
"760 310 LINE",
"679 207 OFFCURVE",
"624 163 OFFCURVE",
"526 163 CURVE SMOOTH",
"405 163 OFFCURVE",
"362 228 OFFCURVE",
"362 399 CURVE SMOOTH",
"362 1003 LINE",
"142 1003 LINE",
"142 370 LINE SMOOTH",
"142 116 OFFCURVE",
"230 -25 OFFCURVE",
"451 -25 CURVE SMOOTH",
"595 -25 OFFCURVE",
"686 44 OFFCURVE",
"775 150 CURVE",
"782 150 LINE"
);
}
);
width = 1133;
}
);
leftKerningGroup = u;
rightKerningGroup = u;
unicode = 0075;
userData = {
com.adobe.type.autohint = "ICA8aGludFNldExpc3Q+CiAgICA8aGludHNldCBw";
com.typemytype.robofont.mark = (
1,
0.6,
0.6,
1
);
};
},
{
glyphname = uhorn;
lastChange = "2019-10-26 06:10:49 +0000";
layers = (
{
anchors = (
{
name = btm;
position = "{636, -300}";
},
{
name = top;
position = "{636, 1050}";
}
);
hints = (
{
horizontal = 1;
origin = "{0, 9}";
type = Tag;
name = hr01;
},
{
horizontal = 1;
origin = "{0, 0}";
type = Tag;
name = hr02;
}
);
layerId = "F1FC1B3B-4EE8-4ECF-8776-11160932002C";
paths = (
{
closed = 1;
nodes = (
"812 0 LINE",
"925 0 LINE",
"925 934 LINE",
"1013 958 OFFCURVE",
"1110 1014 OFFCURVE",
"1110 1138 CURVE SMOOTH",
"1110 1185 OFFCURVE",
"1092 1226 OFFCURVE",
"1066 1263 CURVE",
"966 1212 LINE",
"983 1185 OFFCURVE",
"994 1157 OFFCURVE",
"994 1128 CURVE SMOOTH",
"994 1039 OFFCURVE",
"921 1002 OFFCURVE",
"820 990 CURVE",
"789 990 LINE",
"789 276 LINE",
"686 150 OFFCURVE",
"609 95 OFFCURVE",
"501 95 CURVE SMOOTH",
"359 95 OFFCURVE",
"299 183 OFFCURVE",
"299 378 CURVE SMOOTH",
"299 990 LINE",
"162 990 LINE",
"162 360 LINE",
"162 106 OFFCURVE",
"256 -25 OFFCURVE",
"464 -25 CURVE SMOOTH",
"600 -25 OFFCURVE",
"700 49 OFFCURVE",
"794 159 CURVE",
"800 159 LINE"
);
}
);
width = 1101;
},
{
anchors = (
{
name = btm;
position = "{551, -200}";
},
{
name = top;
position = "{542, 800}";
}
);
hints = (
{
horizontal = 1;
origin = "{0, 30}";
target = "{0, 30}";
type = Tag;
name = hr01;
},
{
horizontal = 1;
origin = "{0, 4}";
target = "{0, 30}";
type = Tag;
name = hr02;
},
{
horizontal = 1;
origin = "{0, 22}";
target = "{0, 30}";
type = Tag;
name = hr03;
},
{
horizontal = 1;
origin = "{0, 27}";
target = "{0, 30}";
type = Tag;
name = hr04;
}
);
layerId = "C4389747-BECF-4D47-A11A-92B8AD605B66";
paths = (
{
closed = 1;
nodes = (
"799 0 LINE",
"979 0 LINE",
"979 929 LINE",
"1077 957 OFFCURVE",
"1168 1023 OFFCURVE",
"1168 1151 CURVE SMOOTH",
"1168 1208 OFFCURVE",
"1144 1258 OFFCURVE",
"1116 1295 CURVE",
"963 1225 LINE",
"979 1199 OFFCURVE",
"992 1168 OFFCURVE",
"992 1135 CURVE SMOOTH",
"992 1037 OFFCURVE",
"912 1011 OFFCURVE",
"823 1003 CURVE",
"760 1003 LINE",
"760 310 LINE",
"679 207 OFFCURVE",
"618 163 OFFCURVE",
"526 163 CURVE SMOOTH",
"411 163 OFFCURVE",
"362 231 OFFCURVE",
"362 401 CURVE SMOOTH",
"362 1003 LINE",
"142 1003 LINE",
"142 373 LINE SMOOTH",
"142 119 OFFCURVE",
"236 -25 OFFCURVE",
"451 -25 CURVE SMOOTH",
"589 -25 OFFCURVE",
"686 44 OFFCURVE",
"775 150 CURVE",
"782 150 LINE"
);
}
);
width = 1133;
}
);
leftKerningGroup = u;
rightKerningGroup = u;
unicode = 01B0;
userData = {
com.adobe.type.autohint = "ICA8aGludFNldExpc3Q+CiAgICA8aGludHNldCBw";
};
},
{
glyphname = uogonek;
lastChange = "2019-10-26 06:10:49 +0000";
layers = (
{
hints = (
{
horizontal = 1;
origin = "{0, 20}";
type = Tag;
name = hr01;
},
{
horizontal = 1;
origin = "{0, 8}";
type = Tag;
name = hr02;
},
{
horizontal = 1;
origin = "{0, 14}";
type = Tag;
name = hr03;
}
);
layerId = "F1FC1B3B-4EE8-4ECF-8776-11160932002C";
paths = (
{
closed = 1;
nodes = (
"905 -314 OFFCURVE",
"878 -323 OFFCURVE",
"844 -323 CURVE SMOOTH",
"796 -323 OFFCURVE",
"748 -290 OFFCURVE",
"748 -224 CURVE SMOOTH",
"748 -141 OFFCURVE",
"807 -64 OFFCURVE",
"925 0 CURVE",
"925 990 LINE",
"789 990 LINE",
"789 276 LINE",
"686 150 OFFCURVE",
"609 95 OFFCURVE",
"501 95 CURVE SMOOTH",
"357 95 OFFCURVE",
"299 183 OFFCURVE",
"299 378 CURVE SMOOTH",
"299 990 LINE",
"162 990 LINE",
"162 360 LINE",
"162 106 OFFCURVE",
"256 -25 OFFCURVE",
"464 -25 CURVE SMOOTH",
"600 -25 OFFCURVE",
"700 49 OFFCURVE",
"794 159 CURVE",
"800 159 LINE",
"813 10 LINE",
"718 -58 OFFCURVE",
"642 -140 OFFCURVE",
"642 -249 CURVE SMOOTH",
"642 -361 OFFCURVE",
"720 -420 OFFCURVE",
"820 -420 CURVE SMOOTH",
"868 -420 OFFCURVE",
"933 -396 OFFCURVE",
"969 -368 CURVE",
"930 -296 LINE"
);
}
);
width = 1101;
},
{
layerId = "C4389747-BECF-4D47-A11A-92B8AD605B66";
paths = (
{
closed = 1;
nodes = (
"949 -276 OFFCURVE",
"922 -287 OFFCURVE",
"891 -287 CURVE SMOOTH",
"846 -287 OFFCURVE",
"800 -259 OFFCURVE",
"800 -199 CURVE SMOOTH",
"800 -127 OFFCURVE",
"852 -52 OFFCURVE",
"979 0 CURVE",
"979 1003 LINE",
"760 1003 LINE",
"760 310 LINE",
"679 207 OFFCURVE",
"618 163 OFFCURVE",
"526 163 CURVE SMOOTH",
"410 163 OFFCURVE",
"362 231 OFFCURVE",
"362 401 CURVE SMOOTH",
"362 1003 LINE",
"142 1003 LINE",
"142 373 LINE SMOOTH",
"142 119 OFFCURVE",
"236 -25 OFFCURVE",
"451 -25 CURVE SMOOTH",
"589 -25 OFFCURVE",
"686 44 OFFCURVE",
"775 150 CURVE",
"782 150 LINE",
"802 3 LINE",
"726 -50 OFFCURVE",
"645 -132 OFFCURVE",
"645 -246 CURVE SMOOTH",
"645 -364 OFFCURVE",
"733 -425 OFFCURVE",
"843 -425 CURVE SMOOTH",
"900 -425 OFFCURVE",
"977 -399 OFFCURVE",
"1021 -365 CURVE",
"971 -262 LINE"
);
}
);
width = 1133;
}
);
leftKerningGroup = u;
rightKerningGroup = u;
unicode = 0173;
userData = {
com.adobe.type.autohint = "ICA8aGludFNldExpc3Q+CiAgICA8aGludHNldCBw";
};
},
{
glyphname = v;
lastChange = "2019-10-26 06:09:29 +0000";
layers = (
{
anchors = (
{
name = btm;
position = "{464, -300}";
},
{
name = top;
position = "{464, 1050}";
}
);
hints = (
{
horizontal = 1;
origin = "{0, 13}";
type = Tag;
name = hr00;
}
);
layerId = "F1FC1B3B-4EE8-4ECF-8776-11160932002C";
paths = (
{
closed = 1;
nodes = (
"547 0 LINE",
"904 990 LINE",
"768 990 LINE",
"567 404 LINE",
"536 307 OFFCURVE",
"502 208 OFFCURVE",
"472 115 CURVE",
"464 115 LINE",
"434 208 OFFCURVE",
"399 307 OFFCURVE",
"369 404 CURVE",
"168 990 LINE",
"25 990 LINE",
"387 0 LINE"
);
}
);
width = 929;
},
{
anchors = (
{
name = btm;
position = "{500, -200}";
},
{
name = top;
position = "{500, 800}";
}
);
hints = (
{
horizontal = 1;
origin = "{0, 0}";
target = "{0, 0}";
type = Tag;
name = hr00;
}
);
layerId = "C4389747-BECF-4D47-A11A-92B8AD605B66";
paths = (
{
closed = 1;
nodes = (
"632 0 LINE",
"976 1003 LINE",
"763 1003 LINE",
"596 471 LINE",
"568 372 OFFCURVE",
"537 269 OFFCURVE",
"510 170 CURVE",
"502 170 LINE",
"473 269 OFFCURVE",
"442 372 OFFCURVE",
"414 471 CURVE",
"248 1003 LINE",
"25 1003 LINE",
"377 0 LINE"
);
}
);
width = 1000;
}
);
leftKerningGroup = v;
rightKerningGroup = v;
unicode = 0076;
userData = {
com.adobe.type.autohint = "ICA8aGludFNldExpc3Q+CiAgICA8aGludHNldCBw";
com.typemytype.robofont.mark = (
1,
0.6,
0.6,
1
);
};
},
{
glyphname = w;
lastChange = "2019-10-26 06:09:29 +0000";
layers = (
{
anchors = (
{
name = btm;
position = "{721, -300}";
},
{
name = top;
position = "{721, 1050}";
}
);
hints = (
{
horizontal = 1;
origin = "{0, 33}";
type = Tag;
name = hr00;
}
);
layerId = "F1FC1B3B-4EE8-4ECF-8776-11160932002C";
paths = (
{
closed = 1;
nodes = (
"492 0 LINE",
"644 562 LINE",
"672 657 OFFCURVE",
"695 751 OFFCURVE",
"717 850 CURVE",
"725 850 LINE",
"751 751 OFFCURVE",
"770 660 OFFCURVE",
"796 566 CURVE SMOOTH",
"951 0 LINE",
"1121 0 LINE",
"1394 990 LINE",
"1262 990 LINE",
"1104 390 LINE",
"1083 297 OFFCURVE",
"1062 210 OFFCURVE",
"1040 119 CURVE",
"1032 119 LINE",
"1008 210 OFFCURVE",
"985 297 OFFCURVE",
"960 390 CURVE SMOOTH",
"795 990 LINE",
"654 990 LINE",
"490 390 LINE",
"465 298 OFFCURVE",
"444 210 OFFCURVE",
"421 119 CURVE",
"413 119 LINE",
"394 210 OFFCURVE",
"373 297 OFFCURVE",
"351 390 CURVE",
"191 990 LINE",
"49 990 LINE",
"332 0 LINE"
);
}
);
width = 1443;
},
{
anchors = (
{
name = btm;
position = "{757, -200}";
},
{
name = top;
position = "{757, 800}";
}
);
hints = (
{
horizontal = 1;
origin = "{0, 0}";
target = "{0, 0}";
type = Tag;
name = hr01;
},
{
horizontal = 1;
origin = "{0, 7}";
target = "{0, 0}";
type = Tag;
name = hr02;
}
);
layerId = "C4389747-BECF-4D47-A11A-92B8AD605B66";
paths = (
{
closed = 1;
nodes = (
"570 0 LINE",
"691 484 LINE",
"714 579 OFFCURVE",
"732 673 OFFCURVE",
"753 776 CURVE",
"761 776 LINE",
"783 673 OFFCURVE",
"801 580 OFFCURVE",
"824 486 CURVE",
"948 0 LINE",
"1209 0 LINE",
"1466 1003 LINE",
"1262 1003 LINE",
"1135 468 LINE",
"1115 371 OFFCURVE",
"1100 278 OFFCURVE",
"1079 182 CURVE",
"1071 182 LINE",
"1049 278 OFFCURVE",
"1028 371 OFFCURVE",
"1004 468 CURVE",
"863 1003 LINE",
"663 1003 LINE",
"525 468 LINE",
"500 374 OFFCURVE",
"482 278 OFFCURVE",
"460 182 CURVE",
"452 182 LINE",
"435 278 OFFCURVE",
"418 371 OFFCURVE",
"398 468 CURVE",
"269 1003 LINE",
"49 1003 LINE",
"317 0 LINE"
);
}
);
width = 1515;
}
);
leftKerningGroup = w;
rightKerningGroup = w;
unicode = 0077;
userData = {
com.adobe.type.autohint = "ICA8aGludFNldExpc3Q+CiAgICA8aGludHNldCBw";
com.typemytype.robofont.mark = (
1,
0.6,
0.6,
1
);
};
},
{
glyphname = x;
lastChange = "2019-10-26 06:09:29 +0000";
layers = (
{
anchors = (
{
name = btm;
position = "{440, -300}";
},
{
name = top;
position = "{440, 1050}";
}
);
hints = (
{
horizontal = 1;
origin = "{0, 25}";
type = Tag;
name = hr00;
}
);
layerId = "F1FC1B3B-4EE8-4ECF-8776-11160932002C";
paths = (
{
closed = 1;
nodes = (
"172 0 LINE",
"321 246 LINE",
"356 308 OFFCURVE",
"390 368 OFFCURVE",
"426 426 CURVE",
"435 426 LINE",
"473 368 OFFCURVE",
"511 307 OFFCURVE",
"546 246 CURVE",
"703 0 LINE",
"852 0 LINE",
"524 504 LINE",
"827 990 LINE",
"684 990 LINE",
"550 758 LINE",
"518 705 OFFCURVE",
"487 649 OFFCURVE",
"456 594 CURVE",
"448 594 LINE",
"412 649 OFFCURVE",
"378 705 OFFCURVE",
"347 758 CURVE SMOOTH",
"203 990 LINE",
"54 990 LINE",
"357 518 LINE",
"29 0 LINE"
);
}
);
width = 881;
},
{
anchors = (
{
name = btm;
position = "{483, -200}";
},
{
name = top;
position = "{483, 800}";
}
);
hints = (
{
horizontal = 1;
origin = "{0, 0}";
target = "{0, 0}";
type = Tag;
name = hr00;
}
);
layerId = "C4389747-BECF-4D47-A11A-92B8AD605B66";
paths = (
{
closed = 1;
nodes = (
"257 0 LINE",
"371 207 LINE",
"400 268 OFFCURVE",
"432 327 OFFCURVE",
"462 385 CURVE",
"471 385 LINE",
"506 327 OFFCURVE",
"540 266 OFFCURVE",
"574 207 CURVE",
"701 0 LINE",
"938 0 LINE",
"618 499 LINE",
"917 1003 LINE",
"689 1003 LINE",
"588 805 LINE",
"561 750 OFFCURVE",
"531 692 OFFCURVE",
"506 636 CURVE",
"498 636 LINE",
"465 692 OFFCURVE",
"433 750 OFFCURVE",
"404 805 CURVE",
"288 1003 LINE",
"51 1003 LINE",
"349 523 LINE",
"29 0 LINE"
);
}
);
width = 966;
}
);
leftKerningGroup = x;
rightKerningGroup = x;
unicode = 0078;
userData = {
com.adobe.type.autohint = "ICA8aGludFNldExpc3Q+CiAgICA8aGludHNldCBw";
com.typemytype.robofont.mark = (
1,
0.6,
0.6,
1
);
};
},
{
glyphname = y;
lastChange = "2019-10-26 06:10:49 +0000";
layers = (
{
anchors = (
{
name = btm;
position = "{699, -300}";
},
{
name = top;
position = "{465, 1050}";
}
);
hints = (
{
horizontal = 1;
origin = "{0, 18}";
type = Tag;
name = hr01;
},
{
horizontal = 1;
origin = "{0, 19}";
type = Tag;
name = hr02;
},
{
horizontal = 1;
origin = "{0, 22}";
type = Tag;
name = hr03;
}
);
layerId = "F1FC1B3B-4EE8-4ECF-8776-11160932002C";
paths = (
{
closed = 1;
nodes = (
"769 990 LINE",
"579 412 LINE",
"552 326 OFFCURVE",
"523 222 OFFCURVE",
"493 134 CURVE",
"485 134 LINE",
"452 223 OFFCURVE",
"415 327 OFFCURVE",
"384 412 CURVE SMOOTH",
"168 990 LINE",
"25 990 LINE",
"426 -9 LINE",
"401 -87 LINE",
"357 -222 OFFCURVE",
"281 -320 OFFCURVE",
"165 -320 CURVE SMOOTH",
"139 -320 OFFCURVE",
"108 -312 OFFCURVE",
"88 -304 CURVE",
"60 -416 LINE",
"90 -428 OFFCURVE",
"128 -437 OFFCURVE",
"170 -437 CURVE SMOOTH",
"361 -437 OFFCURVE",
"461 -282 OFFCURVE",
"525 -99 CURVE SMOOTH",
"906 990 LINE"
);
}
);
width = 930;
},
{
anchors = (
{
name = btm;
position = "{767, -285}";
},
{
name = top;
position = "{499, 800}";
}
);
hints = (
{
horizontal = 1;
origin = "{0, 23}";
target = "{0, 23}";
type = Tag;
name = hr01;
},
{
horizontal = 1;
origin = "{0, 0}";
target = "{0, 23}";
type = Tag;
name = hr02;
},
{
horizontal = 1;
origin = "{0, 3}";
target = "{0, 23}";
type = Tag;
name = hr03;
}
);
layerId = "C4389747-BECF-4D47-A11A-92B8AD605B66";
paths = (
{
closed = 1;
nodes = (
"760 1003 LINE",
"604 496 LINE",
"578 404 OFFCURVE",
"554 305 OFFCURVE",
"527 212 CURVE",
"519 212 LINE",
"490 308 OFFCURVE",
"459 407 OFFCURVE",
"428 496 CURVE SMOOTH",
"248 1003 LINE",
"25 1003 LINE",
"421 9 LINE",
"401 -57 LINE",
"366 -164 OFFCURVE",
"302 -240 OFFCURVE",
"194 -240 CURVE SMOOTH",
"171 -240 OFFCURVE",
"141 -232 OFFCURVE",
"121 -226 CURVE",
"81 -396 LINE",
"116 -408 OFFCURVE",
"156 -416 OFFCURVE",
"208 -416 CURVE SMOOTH",
"423 -416 OFFCURVE",
"528 -274 OFFCURVE",
"608 -55 CURVE",
"974 1003 LINE"
);
}
);
width = 998;
}
);
leftKerningGroup = y;
rightKerningGroup = y;
unicode = 0079;
userData = {
com.adobe.type.autohint = "ICA8aGludFNldExpc3Q+CiAgICA8aGludHNldCBw";
com.typemytype.robofont.mark = (
1,
0.6,
0.6,
1
);
};
},
{
glyphname = z;
lastChange = "2019-10-26 06:09:29 +0000";
layers = (
{
anchors = (
{
name = btm;
position = "{429, -300}";
},
{
name = top;
position = "{429, 1050}";
}
);
hints = (
{
horizontal = 1;
origin = "{0, 9}";
type = Tag;
name = hr00;
}
);
layerId = "F1FC1B3B-4EE8-4ECF-8776-11160932002C";
paths = (
{
closed = 1;
nodes = (
"799 0 LINE",
"799 114 LINE",
"234 114 LINE",
"782 918 LINE",
"782 990 LINE",
"120 990 LINE",
"120 877 LINE",
"608 877 LINE",
"60 73 LINE",
"60 0 LINE"
);
}
);
width = 852;
},
{
anchors = (
{
name = btm;
position = "{478, -200}";
},
{
name = top;
position = "{457, 800}";
}
);
hints = (
{
horizontal = 1;
origin = "{0, 7}";
target = "{0, 7}";
type = Tag;
name = hr00;
}
);
layerId = "C4389747-BECF-4D47-A11A-92B8AD605B66";
paths = (
{
closed = 1;
nodes = (
"846 0 LINE",
"846 175 LINE",
"344 175 LINE",
"831 886 LINE",
"831 1003 LINE",
"123 1003 LINE",
"123 828 LINE",
"556 828 LINE",
"69 117 LINE",
"69 0 LINE"
);
}
);
width = 897;
}
);
leftKerningGroup = z;
rightKerningGroup = z;
unicode = 007A;
userData = {
com.adobe.type.autohint = "ICA8aGludFNldExpc3Q+CiAgICA8aGludHNldCBw";
com.typemytype.robofont.mark = (
1,
0.6,
0.6,
1
);
};
},
{
glyphname = i.cy;
lastChange = "2019-10-26 06:09:29 +0000";
layers = (
{
layerId = "F1FC1B3B-4EE8-4ECF-8776-11160932002C";
paths = (
{
closed = 1;
nodes = (
"313 0 LINE",
"313 990 LINE",
"176 990 LINE",
"176 0 LINE"
);
},
{
closed = 1;
nodes = (
"303 1209 OFFCURVE",
"349 1248 OFFCURVE",
"349 1305 CURVE SMOOTH",
"349 1365 OFFCURVE",
"303 1403 OFFCURVE",
"247 1403 CURVE SMOOTH",
"189 1403 OFFCURVE",
"144 1365 OFFCURVE",
"144 1305 CURVE SMOOTH",
"144 1248 OFFCURVE",
"189 1209 OFFCURVE",
"247 1209 CURVE SMOOTH"
);
}
);
width = 490;
},
{
layerId = "C4389747-BECF-4D47-A11A-92B8AD605B66";
paths = (
{
closed = 1;
nodes = (
"373 0 LINE",
"373 1003 LINE",
"155 1003 LINE",
"155 0 LINE"
);
},
{
closed = 1;
nodes = (
"344 1187 OFFCURVE",
"404 1240 OFFCURVE",
"404 1314 CURVE SMOOTH",
"404 1390 OFFCURVE",
"344 1441 OFFCURVE",
"265 1441 CURVE SMOOTH",
"186 1441 OFFCURVE",
"126 1390 OFFCURVE",
"126 1314 CURVE SMOOTH",
"126 1240 OFFCURVE",
"186 1187 OFFCURVE",
"265 1187 CURVE SMOOTH"
);
}
);
width = 527;
}
);
leftKerningGroup = i.cy;
leftMetricsKey = i;
rightKerningGroup = i.cy;
rightMetricsKey = i;
userData = {
com.typemytype.robofont.mark = (
0.6,
0.986,
1,
1
);
};
},
{
glyphname = f_f;
lastChange = "2019-10-26 06:09:29 +0000";
layers = (
{
hints = (
{
horizontal = 1;
origin = "{0, 16}";
type = Tag;
name = hr01;
},
{
horizontal = 1;
origin = "{0, 28}";
type = Tag;
name = hr02;
},
{
horizontal = 1;
origin = "{0, 12}";
type = Tag;
name = hr03;
}
);
layerId = "F1FC1B3B-4EE8-4ECF-8776-11160932002C";
paths = (
{
closed = 1;
nodes = (
"335 0 LINE",
"335 877 LINE",
"766 877 LINE",
"766 0 LINE",
"902 0 LINE",
"902 877 LINE",
"1119 877 LINE",
"1119 990 LINE",
"902 990 LINE",
"902 1171 LINE",
"902 1303 OFFCURVE",
"950 1376 OFFCURVE",
"1048 1376 CURVE SMOOTH",
"1083 1376 OFFCURVE",
"1123 1367 OFFCURVE",
"1163 1350 CURVE",
"1194 1456 LINE",
"1149 1475 OFFCURVE",
"1091 1489 OFFCURVE",
"1037 1489 CURVE SMOOTH",
"856 1489 OFFCURVE",
"766 1373 OFFCURVE",
"766 1173 CURVE SMOOTH",
"766 990 LINE",
"335 990 LINE",
"335 1137 LINE",
"335 1277 OFFCURVE",
"393 1355 OFFCURVE",
"499 1355 CURVE SMOOTH",
"547 1355 OFFCURVE",
"590 1347 OFFCURVE",
"635 1326 CURVE",
"666 1431 LINE",
"616 1455 OFFCURVE",
"551 1468 OFFCURVE",
"491 1468 CURVE SMOOTH",
"300 1468 OFFCURVE",
"199 1348 OFFCURVE",
"199 1142 CURVE SMOOTH",
"199 990 LINE",
"65 981 LINE",
"65 877 LINE",
"199 877 LINE",
"199 0 LINE"
);
}
);
width = 1135;
},
{
hints = (
{
horizontal = 1;
origin = "{0, 0}";
target = "{0, 0}";
type = Tag;
name = hr01;
},
{
horizontal = 1;
origin = "{0, 13}";
target = "{0, 0}";
type = Tag;
name = hr02;
},
{
horizontal = 1;
origin = "{0, 26}";
target = "{0, 0}";
type = Tag;
name = hr03;
}
);
layerId = "C4389747-BECF-4D47-A11A-92B8AD605B66";
paths = (
{
closed = 1;
nodes = (
"411 0 LINE",
"411 828 LINE",
"798 828 LINE",
"798 0 LINE",
"1017 0 LINE",
"1017 828 LINE",
"1217 828 LINE",
"1217 1003 LINE",
"1017 1003 LINE",
"1017 1128 LINE SMOOTH",
"1017 1246 OFFCURVE",
"1063 1299 OFFCURVE",
"1149 1299 CURVE SMOOTH",
"1183 1299 OFFCURVE",
"1221 1290 OFFCURVE",
"1259 1276 CURVE",
"1301 1440 LINE",
"1256 1457 OFFCURVE",
"1191 1474 OFFCURVE",
"1121 1474 CURVE SMOOTH",
"894 1474 OFFCURVE",
"798 1332 OFFCURVE",
"798 1125 CURVE SMOOTH",
"798 1003 LINE",
"411 1003 LINE",
"411 1103 LINE SMOOTH",
"411 1221 OFFCURVE",
"466 1278 OFFCURVE",
"553 1278 CURVE SMOOTH",
"604 1278 OFFCURVE",
"641 1270 OFFCURVE",
"680 1253 CURVE",
"723 1417 LINE",
"675 1438 OFFCURVE",
"603 1454 OFFCURVE",
"530 1454 CURVE SMOOTH",
"297 1454 OFFCURVE",
"192 1313 OFFCURVE",
"192 1105 CURVE SMOOTH",
"192 1002 LINE",
"56 992 LINE",
"56 828 LINE",
"192 828 LINE",
"192 0 LINE"
);
}
);
width = 1240;
}
);
leftKerningGroup = f;
rightKerningGroup = f;
unicode = FB00;
userData = {
com.adobe.type.autohint = "ICA8aGludFNldExpc3Q+CiAgICA8aGludHNldCBw";
};
},
{
glyphname = f_t;
lastChange = "2019-10-26 06:10:49 +0000";
layers = (
{
hints = (
{
horizontal = 1;
origin = "{0, 43}";
type = Tag;
name = hr01;
},
{
horizontal = 1;
origin = "{0, 32}";
type = Tag;
name = hr02;
},
{
horizontal = 1;
origin = "{0, 39}";
type = Tag;
name = hr03;
}
);
layerId = "F1FC1B3B-4EE8-4ECF-8776-11160932002C";
paths = (
{
closed = 1;
nodes = (
"1082 104 OFFCURVE",
"1035 89 OFFCURVE",
"999 89 CURVE SMOOTH",
"876 89 OFFCURVE",
"839 164 OFFCURVE",
"839 288 CURVE SMOOTH",
"839 877 LINE",
"1116 877 LINE",
"1116 990 LINE",
"839 990 LINE",
"839 1272 LINE",
"725 1272 LINE",
"708 990 LINE",
"335 990 LINE",
"335 1171 LINE",
"335 1303 OFFCURVE",
"382 1376 OFFCURVE",
"480 1376 CURVE SMOOTH",
"517 1376 OFFCURVE",
"557 1367 OFFCURVE",
"595 1350 CURVE",
"627 1456 LINE",
"582 1475 OFFCURVE",
"526 1489 OFFCURVE",
"470 1489 CURVE SMOOTH",
"290 1489 OFFCURVE",
"199 1373 OFFCURVE",
"199 1173 CURVE SMOOTH",
"199 990 LINE",
"64 981 LINE",
"64 877 LINE",
"199 877 LINE",
"199 0 LINE",
"335 0 LINE",
"335 877 LINE",
"703 877 LINE",
"703 293 LINE",
"703 105 OFFCURVE",
"768 -25 OFFCURVE",
"971 -25 CURVE SMOOTH",
"1024 -25 OFFCURVE",
"1089 -7 OFFCURVE",
"1145 12 CURVE",
"1116 117 LINE"
);
}
);
width = 1171;
},
{
hints = (
{
horizontal = 1;
origin = "{0, 40}";
target = "{0, 40}";
type = Tag;
name = hr01;
},
{
horizontal = 1;
origin = "{0, 26}";
target = "{0, 40}";
type = Tag;
name = hr02;
},
{
horizontal = 1;
origin = "{0, 28}";
target = "{0, 40}";
type = Tag;
name = hr03;
},
{
horizontal = 1;
origin = "{0, 37}";
target = "{0, 40}";
type = Tag;
name = hr04;
}
);
layerId = "C4389747-BECF-4D47-A11A-92B8AD605B66";
paths = (
{
closed = 1;
nodes = (
"1191 163 OFFCURVE",
"1150 150 OFFCURVE",
"1115 150 CURVE SMOOTH",
"1014 150 OFFCURVE",
"970 211 OFFCURVE",
"970 331 CURVE SMOOTH",
"970 828 LINE",
"1229 828 LINE",
"1229 1003 LINE",
"970 1003 LINE",
"970 1279 LINE",
"788 1279 LINE",
"762 1003 LINE",
"411 1003 LINE",
"411 1124 LINE SMOOTH",
"411 1243 OFFCURVE",
"455 1299 OFFCURVE",
"541 1299 CURVE SMOOTH",
"577 1299 OFFCURVE",
"615 1290 OFFCURVE",
"651 1276 CURVE",
"695 1440 LINE",
"650 1457 OFFCURVE",
"585 1474 OFFCURVE",
"514 1474 CURVE SMOOTH",
"287 1474 OFFCURVE",
"192 1329 OFFCURVE",
"192 1121 CURVE SMOOTH",
"192 1002 LINE",
"56 992 LINE",
"56 828 LINE",
"192 828 LINE",
"192 0 LINE",
"411 0 LINE",
"411 828 LINE",
"751 828 LINE",
"751 331 LINE SMOOTH",
"751 119 OFFCURVE",
"833 -25 OFFCURVE",
"1061 -25 CURVE SMOOTH",
"1136 -25 OFFCURVE",
"1206 -5 OFFCURVE",
"1260 12 CURVE",
"1222 174 LINE"
);
}
);
width = 1290;
}
);
leftKerningGroup = f;
rightKerningGroup = t;
userData = {
com.adobe.type.autohint = "ICA8aGludFNldExpc3Q+CiAgICA8aGludHNldCBw";
};
},
{
glyphname = fi;
lastChange = "2019-10-26 06:09:29 +0000";
layers = (
{
hints = (
{
horizontal = 1;
origin = "{0, 19}";
type = Tag;
name = hr01;
},
{
horizontal = 1;
origin = "{2, 5}";
type = Tag;
name = hr02;
}
);
layerId = "F1FC1B3B-4EE8-4ECF-8776-11160932002C";
paths = (
{
closed = 1;
nodes = (
"335 0 LINE",
"335 877 LINE",
"552 877 LINE",
"552 990 LINE",
"335 990 LINE",
"335 1171 LINE",
"335 1303 OFFCURVE",
"382 1376 OFFCURVE",
"480 1376 CURVE SMOOTH",
"517 1376 OFFCURVE",
"557 1367 OFFCURVE",
"595 1350 CURVE",
"627 1456 LINE",
"582 1475 OFFCURVE",
"526 1489 OFFCURVE",
"470 1489 CURVE SMOOTH",
"290 1489 OFFCURVE",
"199 1373 OFFCURVE",
"199 1173 CURVE SMOOTH",
"199 990 LINE",
"64 981 LINE",
"64 877 LINE",
"199 877 LINE",
"199 0 LINE"
);
},
{
closed = 1;
nodes = (
"923 0 LINE",
"923 990 LINE",
"787 990 LINE",
"787 0 LINE"
);
},
{
closed = 1;
nodes = (
"914 1209 OFFCURVE",
"958 1248 OFFCURVE",
"958 1305 CURVE SMOOTH",
"958 1365 OFFCURVE",
"914 1403 OFFCURVE",
"857 1403 CURVE SMOOTH",
"800 1403 OFFCURVE",
"754 1365 OFFCURVE",
"754 1305 CURVE SMOOTH",
"754 1248 OFFCURVE",
"800 1209 OFFCURVE",
"857 1209 CURVE SMOOTH"
);
}
);
width = 1099;
},
{
hints = (
{
horizontal = 1;
origin = "{0, 0}";
target = "{0, 0}";
type = Tag;
name = hr01;
},
{
horizontal = 1;
origin = "{0, 1}";
target = "{0, 0}";
type = Tag;
name = hr02;
},
{
horizontal = 1;
origin = "{0, 3}";
target = "{0, 0}";
type = Tag;
name = hr03;
},
{
horizontal = 1;
origin = "{1, 0}";
target = "{0, 0}";
type = Tag;
name = hr04;
},
{
horizontal = 1;
origin = "{2, 0}";
target = "{0, 0}";
type = Tag;
name = hr05;
}
);
layerId = "C4389747-BECF-4D47-A11A-92B8AD605B66";
paths = (
{
closed = 1;
nodes = (
"411 0 LINE",
"411 828 LINE",
"610 828 LINE",
"610 1003 LINE",
"411 1003 LINE",
"411 1124 LINE SMOOTH",
"411 1243 OFFCURVE",
"455 1299 OFFCURVE",
"541 1299 CURVE SMOOTH",
"577 1299 OFFCURVE",
"615 1290 OFFCURVE",
"651 1276 CURVE",
"695 1440 LINE",
"650 1457 OFFCURVE",
"585 1474 OFFCURVE",
"514 1474 CURVE SMOOTH",
"287 1474 OFFCURVE",
"192 1329 OFFCURVE",
"192 1121 CURVE",
"192 1002 LINE",
"56 992 LINE",
"56 828 LINE",
"192 828 LINE",
"192 0 LINE"
);
},
{
closed = 1;
nodes = (
"1047 0 LINE",
"1047 1003 LINE",
"828 1003 LINE",
"828 0 LINE"
);
},
{
closed = 1;
nodes = (
"1017 1187 OFFCURVE",
"1076 1240 OFFCURVE",
"1076 1314 CURVE SMOOTH",
"1076 1390 OFFCURVE",
"1017 1441 OFFCURVE",
"938 1441 CURVE SMOOTH",
"859 1441 OFFCURVE",
"799 1390 OFFCURVE",
"799 1314 CURVE SMOOTH",
"799 1240 OFFCURVE",
"859 1187 OFFCURVE",
"938 1187 CURVE SMOOTH"
);
}
);
width = 1200;
}
);
leftKerningGroup = f;
rightKerningGroup = i;
unicode = FB01;
userData = {
com.adobe.type.autohint = "ICA8aGludFNldExpc3Q+CiAgICA8aGludHNldCBw";
};
},
